<svg width="352" height="92" viewBox="0 0 352 92" fill="none" xmlns="http://www.w3.org/2000/svg">
<g filter="url(#filter0_d_1_386)">
<rect x="4.5" y="0.5" width="343" height="64" rx="32" fill="#060809" stroke="#FFC41B"/>
<path opacity="0.12" fillRule="evenodd" clipRule="evenodd" d="M31.6316 27.0244L28.3333 29.3331L28.3333 35.9998L31.6316 38.3086C33.2611 39.4492 34.0759 40.0196 34.7541 39.9899C35.3447 39.9641 35.8936 39.6783 36.2534 39.2093C36.6667 38.6707 36.6667 37.6761 36.6667 35.687L36.6667 29.6459C36.6667 27.6568 36.6667 26.6622 36.2534 26.1237C35.8936 25.6547 35.3447 25.3689 34.7541 25.343C34.0759 25.3133 33.2611 25.8837 31.6316 27.0244ZM27.5 36.0001L25 36.0001L25 39.7501C25 40.4405 25.5596 41.0001 26.25 41.0001C26.9404 41.0001 27.5 40.4405 27.5 39.7501L27.5 36.0001Z" fill="#FFC41B"/>
<path fillRule="evenodd" clipRule="evenodd" d="M32.0617 27.6388C32.8887 27.0599 33.4666 26.6562 33.9219 26.3959C34.3851 26.131 34.6028 26.0871 34.7213 26.0923C35.0904 26.1085 35.4335 26.2871 35.6584 26.5802C35.7306 26.6743 35.8195 26.8778 35.8681 27.4092C35.9159 27.9314 35.9167 28.6364 35.9167 29.6459L35.9167 30.1666L35.9167 35.1666L35.9167 35.687C35.9167 36.6965 35.9159 37.4015 35.8681 37.9238C35.8195 38.4551 35.7306 38.6586 35.6584 38.7527C35.4335 39.0459 35.0904 39.2245 34.7213 39.2406C34.6028 39.2458 34.3851 39.2019 33.9219 38.9371C33.4666 38.6767 32.8887 38.273 32.0617 37.6941L29.0833 35.6093L29.0833 29.7236L32.0617 27.6388ZM37.4167 35.8296C37.4166 36.7433 37.4147 37.4832 37.3619 38.0604C37.3072 38.6583 37.1895 39.2213 36.8484 39.6658C36.3537 40.3107 35.5989 40.7037 34.7869 40.7392C34.2271 40.7637 33.6984 40.5372 33.1773 40.2392C32.6552 39.9406 32.0211 39.4968 31.2334 38.9453L31.2333 38.9453L31.2333 38.9453L31.2333 38.9452L31.2015 38.923L28.25 36.857L28.25 39.7501C28.25 40.8547 27.3546 41.7501 26.25 41.7501C25.1454 41.7501 24.25 40.8547 24.25 39.7501L24.25 36.6813C22.353 36.3291 20.9167 34.6656 20.9167 32.6667C20.9167 30.4115 22.7448 28.5833 25 28.5833L28.0966 28.5833L31.2015 26.4099L31.2333 26.3877C32.0211 25.8362 32.6552 25.3923 33.1772 25.0937C33.6984 24.7957 34.2271 24.5692 34.7869 24.5937C35.5989 24.6293 36.3537 25.0222 36.8484 25.6671C37.1895 26.1116 37.3072 26.6746 37.3619 27.2725C37.4147 27.8497 37.4166 28.5897 37.4167 29.5035C38.85 29.8421 39.9167 31.1298 39.9167 32.6666C39.9167 34.2034 38.85 35.491 37.4167 35.8296ZM37.4167 34.2482C38.0079 33.9673 38.4167 33.3647 38.4167 32.6666C38.4167 31.9685 38.0079 31.3658 37.4167 31.085L37.4167 34.2482ZM27.5833 30.0833L25 30.0833C23.5733 30.0833 22.4167 31.2399 22.4167 32.6667C22.4167 34.0934 23.5733 35.25 25 35.25L27.5833 35.25L27.5833 30.0833ZM25.75 36.7501L25.75 39.7501C25.75 40.0262 25.9738 40.2501 26.25 40.2501C26.5261 40.2501 26.75 40.0262 26.75 39.7501L26.75 36.7501L25.75 36.7501Z" fill="#FFC41B"/>
<path d="M52.803 16.3H54.013L56.609 22.548L59.205 16.3H60.415V24H59.425V18.192L57.027 24H56.191L53.782 18.192V24H52.803V16.3ZM64.3421 24.088C63.7994 24.088 63.3117 23.967 62.8791 23.725C62.4537 23.4757 62.1201 23.1347 61.8781 22.702C61.6434 22.2693 61.5261 21.778 61.5261 21.228C61.5261 20.678 61.6434 20.1867 61.8781 19.754C62.1201 19.3213 62.4537 18.984 62.8791 18.742C63.3117 18.4927 63.7994 18.368 64.3421 18.368C64.8847 18.368 65.3687 18.4927 65.7941 18.742C66.2267 18.984 66.5641 19.3213 66.8061 19.754C67.0481 20.1867 67.1691 20.678 67.1691 21.228C67.1691 21.778 67.0481 22.2693 66.8061 22.702C66.5641 23.1347 66.2267 23.4757 65.7941 23.725C65.3687 23.967 64.8847 24.088 64.3421 24.088ZM62.4831 21.228C62.4831 21.822 62.6554 22.3097 63.0001 22.691C63.3447 23.065 63.7921 23.252 64.3421 23.252C64.8921 23.252 65.3394 23.065 65.6841 22.691C66.0287 22.3097 66.2011 21.822 66.2011 21.228C66.2011 20.634 66.0287 20.15 65.6841 19.776C65.3394 19.3947 64.8921 19.204 64.3421 19.204C63.7921 19.204 63.3447 19.3947 63.0001 19.776C62.6554 20.15 62.4831 20.634 62.4831 21.228ZM68.2456 18.456H69.1806V19.501C69.3786 19.1563 69.6426 18.8813 69.9726 18.676C70.3026 18.4707 70.6729 18.368 71.0836 18.368C71.6629 18.368 72.1359 18.5477 72.5026 18.907C72.8766 19.2663 73.0636 19.7393 73.0636 20.326V24H72.1286V20.502C72.1286 20.1207 72.0149 19.8127 71.7876 19.578C71.5602 19.336 71.2559 19.215 70.8746 19.215C70.3539 19.215 69.9396 19.4277 69.6316 19.853C69.3309 20.271 69.1806 20.843 69.1806 21.569V24H68.2456V18.456ZM79.3178 23.857C78.7604 23.857 78.2838 23.7397 77.8878 23.505C77.4918 23.2703 77.1911 22.9477 76.9858 22.537C76.7804 22.119 76.6778 21.646 76.6778 21.118C76.6778 20.59 76.7804 20.117 76.9858 19.699C77.1911 19.281 77.4881 18.9547 77.8768 18.72C78.2728 18.4853 78.7458 18.368 79.2958 18.368C79.6624 18.368 80.0108 18.4487 80.3408 18.61C80.6708 18.764 80.9201 18.962 81.0888 19.204V18.456H82.0128V23.736C82.0128 24.198 81.9028 24.605 81.6828 24.957C81.4701 25.3163 81.1658 25.595 80.7698 25.793C80.3811 25.991 79.9338 26.09 79.4278 26.09C78.7824 26.09 78.2324 25.9323 77.7778 25.617C77.3231 25.309 77.0554 24.9057 76.9748 24.407L77.8768 24.253C77.9061 24.561 78.0638 24.8103 78.3498 25.001C78.6431 25.199 79.0024 25.298 79.4278 25.298C79.9191 25.298 80.3188 25.1623 80.6268 24.891C80.9348 24.6197 81.0888 24.2677 81.0888 23.835V23.065C80.9641 23.2997 80.7368 23.4903 80.4068 23.637C80.0768 23.7837 79.7138 23.857 79.3178 23.857ZM77.6348 21.118C77.6348 21.6973 77.7961 22.1593 78.1188 22.504C78.4414 22.8487 78.8704 23.021 79.4058 23.021C79.9411 23.021 80.3664 22.8487 80.6818 22.504C81.0044 22.1593 81.1658 21.6973 81.1658 21.118C81.1658 20.5387 81.0044 20.0767 80.6818 19.732C80.3664 19.38 79.9411 19.204 79.4058 19.204C78.8631 19.204 78.4304 19.38 78.1078 19.732C77.7924 20.0767 77.6348 20.5387 77.6348 21.118ZM86.829 20.392C86.829 20.0107 86.7044 19.71 86.455 19.49C86.213 19.2627 85.8867 19.149 85.476 19.149C85.0947 19.149 84.7794 19.2553 84.53 19.468C84.2807 19.6807 84.1377 19.974 84.101 20.348L83.232 20.183C83.3127 19.633 83.5584 19.193 83.969 18.863C84.387 18.533 84.8894 18.368 85.476 18.368C86.158 18.368 86.708 18.555 87.126 18.929C87.544 19.303 87.753 19.809 87.753 20.447V24H86.829V23.054C86.6677 23.3693 86.4184 23.6223 86.081 23.813C85.751 23.9963 85.3844 24.088 84.981 24.088C84.431 24.088 83.98 23.9377 83.628 23.637C83.2834 23.329 83.111 22.933 83.111 22.449C83.111 21.921 83.3274 21.5067 83.76 21.206C84.2 20.9053 84.8637 20.711 85.751 20.623L86.829 20.502V20.392ZM84.046 22.438C84.046 22.6947 84.145 22.9073 84.343 23.076C84.5484 23.2373 84.8087 23.318 85.124 23.318C85.6594 23.318 86.0774 23.153 86.378 22.823C86.6787 22.493 86.829 22.0493 86.829 21.492V21.228L85.751 21.349C85.1937 21.4077 84.7684 21.5323 84.475 21.723C84.189 21.9063 84.046 22.1447 84.046 22.438ZM92.3983 19.369C92.1929 19.281 91.9546 19.237 91.6833 19.237C91.2139 19.237 90.8289 19.4643 90.5283 19.919C90.2349 20.3663 90.0883 21.0227 90.0883 21.888V24H89.1533V18.456H90.0883V19.578C90.2496 19.226 90.4916 18.9363 90.8143 18.709C91.1369 18.4817 91.4706 18.368 91.8153 18.368C92.0573 18.368 92.2699 18.401 92.4533 18.467L92.3983 19.369ZM94.9638 24.088C94.3478 24.088 93.8418 23.9303 93.4458 23.615C93.0571 23.2997 92.7931 22.9183 92.6538 22.471L93.4568 22.119C93.7061 22.9037 94.2085 23.296 94.9638 23.296C95.2938 23.296 95.5615 23.2153 95.7668 23.054C95.9795 22.8853 96.0858 22.6837 96.0858 22.449C96.0858 22.251 96.0235 22.0897 95.8988 21.965C95.7815 21.8403 95.6348 21.745 95.4588 21.679C95.2828 21.613 95.0371 21.5397 94.7218 21.459C94.3258 21.3563 94.0068 21.2573 93.7648 21.162C93.5301 21.0593 93.3248 20.9053 93.1488 20.7C92.9801 20.4873 92.8958 20.2013 92.8958 19.842C92.8958 19.402 93.0718 19.0463 93.4238 18.775C93.7758 18.5037 94.2488 18.368 94.8428 18.368C95.3341 18.368 95.7705 18.4963 96.1518 18.753C96.5405 19.0023 96.7898 19.3287 96.8998 19.732L96.1188 20.073C96.0455 19.7943 95.8841 19.5707 95.6348 19.402C95.3928 19.226 95.1215 19.138 94.8208 19.138C94.5055 19.138 94.2561 19.2003 94.0728 19.325C93.8968 19.4423 93.8088 19.611 93.8088 19.831C93.8088 20.051 93.9078 20.216 94.1058 20.326C94.3038 20.4287 94.6081 20.5277 95.0188 20.623C95.4295 20.7257 95.7668 20.832 96.0308 20.942C96.2948 21.0447 96.5221 21.217 96.7128 21.459C96.9035 21.6937 96.9988 22.0163 96.9988 22.427C96.9988 22.9183 96.8118 23.318 96.4378 23.626C96.0638 23.934 95.5725 24.088 94.9638 24.088ZM98.0378 22.856H99.2918L98.0598 25.166H97.3998L98.0378 22.856ZM103.089 18.456H104.024V19.501C104.171 19.1563 104.384 18.8813 104.662 18.676C104.948 18.4707 105.293 18.368 105.696 18.368C106.151 18.368 106.54 18.4707 106.862 18.676C107.192 18.8813 107.405 19.1673 107.5 19.534C107.654 19.1893 107.889 18.9107 108.204 18.698C108.527 18.478 108.89 18.368 109.293 18.368C109.887 18.368 110.357 18.5403 110.701 18.885C111.053 19.2297 111.229 19.6953 111.229 20.282V24H110.294V20.469C110.294 20.0803 110.188 19.7723 109.975 19.545C109.763 19.3103 109.466 19.193 109.084 19.193C108.622 19.193 108.263 19.38 108.006 19.754C107.75 20.128 107.621 20.6157 107.621 21.217V24H106.686V20.469C106.686 20.0803 106.58 19.7723 106.367 19.545C106.162 19.3103 105.869 19.193 105.487 19.193C105.025 19.193 104.666 19.38 104.409 19.754C104.153 20.128 104.024 20.6157 104.024 21.217V24H103.089V18.456ZM115.124 24.088C114.581 24.088 114.093 23.967 113.661 23.725C113.235 23.4757 112.902 23.1347 112.66 22.702C112.425 22.2693 112.308 21.778 112.308 21.228C112.308 20.678 112.425 20.1867 112.66 19.754C112.902 19.3213 113.235 18.984 113.661 18.742C114.093 18.4927 114.581 18.368 115.124 18.368C115.666 18.368 116.15 18.4927 116.576 18.742C117.008 18.984 117.346 19.3213 117.588 19.754C117.83 20.1867 117.951 20.678 117.951 21.228C117.951 21.778 117.83 22.2693 117.588 22.702C117.346 23.1347 117.008 23.4757 116.576 23.725C116.15 23.967 115.666 24.088 115.124 24.088ZM113.265 21.228C113.265 21.822 113.437 22.3097 113.782 22.691C114.126 23.065 114.574 23.252 115.124 23.252C115.674 23.252 116.121 23.065 116.466 22.691C116.81 22.3097 116.983 21.822 116.983 21.228C116.983 20.634 116.81 20.15 116.466 19.776C116.121 19.3947 115.674 19.204 115.124 19.204C114.574 19.204 114.126 19.3947 113.782 19.776C113.437 20.15 113.265 20.634 113.265 21.228ZM119.027 18.456H119.962V19.501C120.16 19.1563 120.424 18.8813 120.754 18.676C121.084 18.4707 121.454 18.368 121.865 18.368C122.444 18.368 122.917 18.5477 123.284 18.907C123.658 19.2663 123.845 19.7393 123.845 20.326V24H122.91V20.502C122.91 20.1207 122.796 19.8127 122.569 19.578C122.342 19.336 122.037 19.215 121.656 19.215C121.135 19.215 120.721 19.4277 120.413 19.853C120.112 20.271 119.962 20.843 119.962 21.569V24H119.027V18.456ZM131.199 20.392C131.199 20.0107 131.075 19.71 130.825 19.49C130.583 19.2627 130.257 19.149 129.846 19.149C129.465 19.149 129.15 19.2553 128.9 19.468C128.651 19.6807 128.508 19.974 128.471 20.348L127.602 20.183C127.683 19.633 127.929 19.193 128.339 18.863C128.757 18.533 129.26 18.368 129.846 18.368C130.528 18.368 131.078 18.555 131.496 18.929C131.914 19.303 132.123 19.809 132.123 20.447V24H131.199V23.054C131.038 23.3693 130.789 23.6223 130.451 23.813C130.121 23.9963 129.755 24.088 129.351 24.088C128.801 24.088 128.35 23.9377 127.998 23.637C127.654 23.329 127.481 22.933 127.481 22.449C127.481 21.921 127.698 21.5067 128.13 21.206C128.57 20.9053 129.234 20.711 130.121 20.623L131.199 20.502V20.392ZM128.416 22.438C128.416 22.6947 128.515 22.9073 128.713 23.076C128.919 23.2373 129.179 23.318 129.494 23.318C130.03 23.318 130.448 23.153 130.748 22.823C131.049 22.493 131.199 22.0493 131.199 21.492V21.228L130.121 21.349C129.564 21.4077 129.139 21.5323 128.845 21.723C128.559 21.9063 128.416 22.1447 128.416 22.438ZM133.523 16.212H134.458V24H133.523V16.212ZM138.592 24.088C138.188 24.088 137.818 24.0037 137.481 23.835C137.143 23.6663 136.912 23.4537 136.788 23.197V24H135.853V16.212H136.788V19.248C136.964 18.984 137.217 18.7713 137.547 18.61C137.884 18.4487 138.236 18.368 138.603 18.368C139.16 18.368 139.637 18.4927 140.033 18.742C140.436 18.984 140.74 19.3213 140.946 19.754C141.158 20.1867 141.265 20.678 141.265 21.228C141.265 21.778 141.158 22.2693 140.946 22.702C140.74 23.1347 140.436 23.4757 140.033 23.725C139.629 23.967 139.149 24.088 138.592 24.088ZM136.7 21.228C136.7 21.8367 136.865 22.328 137.195 22.702C137.525 23.0687 137.961 23.252 138.504 23.252C139.046 23.252 139.483 23.0687 139.813 22.702C140.143 22.328 140.308 21.8367 140.308 21.228C140.308 20.6193 140.143 20.1317 139.813 19.765C139.483 19.391 139.046 19.204 138.504 19.204C137.961 19.204 137.525 19.391 137.195 19.765C136.865 20.1317 136.7 20.6193 136.7 21.228ZM147.157 24H146.222V22.955C146.024 23.2997 145.76 23.5747 145.43 23.78C145.1 23.9853 144.73 24.088 144.319 24.088C143.74 24.088 143.263 23.9083 142.889 23.549C142.522 23.1897 142.339 22.7167 142.339 22.13V18.456H143.274V21.954C143.274 22.3353 143.388 22.647 143.615 22.889C143.842 23.1237 144.147 23.241 144.528 23.241C145.049 23.241 145.459 23.032 145.76 22.614C146.068 22.1887 146.222 21.613 146.222 20.887V18.456H147.157V24ZM148.557 18.456H149.492V19.501C149.639 19.1563 149.851 18.8813 150.13 18.676C150.416 18.4707 150.761 18.368 151.164 18.368C151.619 18.368 152.007 18.4707 152.33 18.676C152.66 18.8813 152.873 19.1673 152.968 19.534C153.122 19.1893 153.357 18.9107 153.672 18.698C153.995 18.478 154.358 18.368 154.761 18.368C155.355 18.368 155.824 18.5403 156.169 18.885C156.521 19.2297 156.697 19.6953 156.697 20.282V24H155.762V20.469C155.762 20.0803 155.656 19.7723 155.443 19.545C155.23 19.3103 154.933 19.193 154.552 19.193C154.09 19.193 153.731 19.38 153.474 19.754C153.217 20.128 153.089 20.6157 153.089 21.217V24H152.154V20.469C152.154 20.0803 152.048 19.7723 151.835 19.545C151.63 19.3103 151.336 19.193 150.955 19.193C150.493 19.193 150.134 19.38 149.877 19.754C149.62 20.128 149.492 20.6157 149.492 21.217V24H148.557V18.456ZM162.498 24.088C161.882 24.088 161.376 23.9303 160.98 23.615C160.591 23.2997 160.327 22.9183 160.188 22.471L160.991 22.119C161.24 22.9037 161.742 23.296 162.498 23.296C162.828 23.296 163.095 23.2153 163.301 23.054C163.513 22.8853 163.62 22.6837 163.62 22.449C163.62 22.251 163.557 22.0897 163.433 21.965C163.315 21.8403 163.169 21.745 162.993 21.679C162.817 21.613 162.571 21.5397 162.256 21.459C161.86 21.3563 161.541 21.2573 161.299 21.162C161.064 21.0593 160.859 20.9053 160.683 20.7C160.514 20.4873 160.43 20.2013 160.43 19.842C160.43 19.402 160.606 19.0463 160.958 18.775C161.31 18.5037 161.783 18.368 162.377 18.368C162.868 18.368 163.304 18.4963 163.686 18.753C164.074 19.0023 164.324 19.3287 164.434 19.732L163.653 20.073C163.579 19.7943 163.418 19.5707 163.169 19.402C162.927 19.226 162.655 19.138 162.355 19.138C162.039 19.138 161.79 19.2003 161.607 19.325C161.431 19.4423 161.343 19.611 161.343 19.831C161.343 20.051 161.442 20.216 161.64 20.326C161.838 20.4287 162.142 20.5277 162.553 20.623C162.963 20.7257 163.301 20.832 163.565 20.942C163.829 21.0447 164.056 21.217 164.247 21.459C164.437 21.6937 164.533 22.0163 164.533 22.427C164.533 22.9183 164.346 23.318 163.972 23.626C163.598 23.934 163.106 24.088 162.498 24.088ZM168.053 24.088C167.511 24.088 167.023 23.967 166.59 23.725C166.165 23.4757 165.831 23.1347 165.589 22.702C165.355 22.2693 165.237 21.778 165.237 21.228C165.237 20.678 165.355 20.1867 165.589 19.754C165.831 19.3213 166.165 18.984 166.59 18.742C167.023 18.4927 167.511 18.368 168.053 18.368C168.596 18.368 169.08 18.4927 169.505 18.742C169.938 18.984 170.275 19.3213 170.517 19.754C170.759 20.1867 170.88 20.678 170.88 21.228C170.88 21.778 170.759 22.2693 170.517 22.702C170.275 23.1347 169.938 23.4757 169.505 23.725C169.08 23.967 168.596 24.088 168.053 24.088ZM166.194 21.228C166.194 21.822 166.367 22.3097 166.711 22.691C167.056 23.065 167.503 23.252 168.053 23.252C168.603 23.252 169.051 23.065 169.395 22.691C169.74 22.3097 169.912 21.822 169.912 21.228C169.912 20.634 169.74 20.15 169.395 19.776C169.051 19.3947 168.603 19.204 168.053 19.204C167.503 19.204 167.056 19.3947 166.711 19.776C166.367 20.15 166.194 20.634 166.194 21.228ZM174.773 19.303C174.663 19.2737 174.538 19.259 174.399 19.259C173.944 19.259 173.578 19.4827 173.299 19.93C173.028 20.37 172.892 21.0227 172.892 21.888V24H171.957V18.456H172.892V19.578C173.039 19.226 173.262 18.9363 173.563 18.709C173.864 18.4817 174.183 18.368 174.52 18.368C174.637 18.368 174.74 18.3753 174.828 18.39L174.773 19.303ZM178.921 23.956C178.679 24.044 178.389 24.088 178.052 24.088C177.553 24.088 177.153 23.945 176.853 23.659C176.559 23.3657 176.413 22.9257 176.413 22.339V19.281H175.379V18.456H176.413V16.773H177.348V18.456H178.833V19.281H177.348V22.372C177.348 22.658 177.421 22.8743 177.568 23.021C177.714 23.1677 177.912 23.241 178.162 23.241C178.433 23.241 178.664 23.1933 178.855 23.098L178.921 23.956ZM184.779 24.088C184.222 24.088 183.741 23.967 183.338 23.725C182.935 23.4757 182.627 23.1347 182.414 22.702C182.209 22.2693 182.106 21.778 182.106 21.228C182.106 20.678 182.209 20.1867 182.414 19.754C182.627 19.3213 182.931 18.984 183.327 18.742C183.73 18.4927 184.211 18.368 184.768 18.368C185.135 18.368 185.483 18.4487 185.813 18.61C186.15 18.7713 186.407 18.984 186.583 19.248V16.212H187.518V24H186.583V23.197C186.458 23.4537 186.227 23.6663 185.89 23.835C185.553 24.0037 185.182 24.088 184.779 24.088ZM183.063 21.228C183.063 21.8367 183.228 22.328 183.558 22.702C183.888 23.0687 184.324 23.252 184.867 23.252C185.41 23.252 185.846 23.0687 186.176 22.702C186.506 22.328 186.671 21.8367 186.671 21.228C186.671 20.6193 186.506 20.1317 186.176 19.765C185.846 19.391 185.41 19.204 184.867 19.204C184.324 19.204 183.888 19.391 183.558 19.765C183.228 20.1317 183.063 20.6193 183.063 21.228ZM192.332 20.392C192.332 20.0107 192.208 19.71 191.958 19.49C191.716 19.2627 191.39 19.149 190.979 19.149C190.598 19.149 190.283 19.2553 190.033 19.468C189.784 19.6807 189.641 19.974 189.604 20.348L188.735 20.183C188.816 19.633 189.062 19.193 189.472 18.863C189.89 18.533 190.393 18.368 190.979 18.368C191.661 18.368 192.211 18.555 192.629 18.929C193.047 19.303 193.256 19.809 193.256 20.447V24H192.332V23.054C192.171 23.3693 191.922 23.6223 191.584 23.813C191.254 23.9963 190.888 24.088 190.484 24.088C189.934 24.088 189.483 23.9377 189.131 23.637C188.787 23.329 188.614 22.933 188.614 22.449C188.614 21.921 188.831 21.5067 189.263 21.206C189.703 20.9053 190.367 20.711 191.254 20.623L192.332 20.502V20.392ZM189.549 22.438C189.549 22.6947 189.648 22.9073 189.846 23.076C190.052 23.2373 190.312 23.318 190.627 23.318C191.163 23.318 191.581 23.153 191.881 22.823C192.182 22.493 192.332 22.0493 192.332 21.492V21.228L191.254 21.349C190.697 21.4077 190.272 21.5323 189.978 21.723C189.692 21.9063 189.549 22.1447 189.549 22.438ZM194.657 18.456H195.592V19.501C195.79 19.1563 196.054 18.8813 196.384 18.676C196.714 18.4707 197.084 18.368 197.495 18.368C198.074 18.368 198.547 18.5477 198.914 18.907C199.288 19.2663 199.475 19.7393 199.475 20.326V24H198.54V20.502C198.54 20.1207 198.426 19.8127 198.199 19.578C197.971 19.336 197.667 19.215 197.286 19.215C196.765 19.215 196.351 19.4277 196.043 19.853C195.742 20.271 195.592 20.843 195.592 21.569V24H194.657V18.456ZM202.745 24.088C202.129 24.088 201.623 23.9303 201.227 23.615C200.838 23.2997 200.574 22.9183 200.435 22.471L201.238 22.119C201.487 22.9037 201.989 23.296 202.745 23.296C203.075 23.296 203.342 23.2153 203.548 23.054C203.76 22.8853 203.867 22.6837 203.867 22.449C203.867 22.251 203.804 22.0897 203.68 21.965C203.562 21.8403 203.416 21.745 203.24 21.679C203.064 21.613 202.818 21.5397 202.503 21.459C202.107 21.3563 201.788 21.2573 201.546 21.162C201.311 21.0593 201.106 20.9053 200.93 20.7C200.761 20.4873 200.677 20.2013 200.677 19.842C200.677 19.402 200.853 19.0463 201.205 18.775C201.557 18.5037 202.03 18.368 202.624 18.368C203.115 18.368 203.551 18.4963 203.933 18.753C204.321 19.0023 204.571 19.3287 204.681 19.732L203.9 20.073C203.826 19.7943 203.665 19.5707 203.416 19.402C203.174 19.226 202.902 19.138 202.602 19.138C202.286 19.138 202.037 19.2003 201.854 19.325C201.678 19.4423 201.59 19.611 201.59 19.831C201.59 20.051 201.689 20.216 201.887 20.326C202.085 20.4287 202.389 20.5277 202.8 20.623C203.21 20.7257 203.548 20.832 203.812 20.942C204.076 21.0447 204.303 21.217 204.494 21.459C204.684 21.6937 204.78 22.0163 204.78 22.427C204.78 22.9183 204.593 23.318 204.219 23.626C203.845 23.934 203.353 24.088 202.745 24.088ZM207.94 23.131L210.833 20.634C211.28 20.2453 211.606 19.8823 211.812 19.545C212.017 19.2077 212.12 18.8667 212.12 18.522C212.12 18.0893 211.984 17.7447 211.713 17.488C211.449 17.2313 211.093 17.103 210.646 17.103C210.154 17.103 209.766 17.2533 209.48 17.554C209.201 17.8473 209.062 18.2433 209.062 18.742C209.062 18.8593 209.065 18.9473 209.073 19.006L208.105 18.94C208.097 18.8813 208.094 18.797 208.094 18.687C208.094 18.203 208.2 17.774 208.413 17.4C208.625 17.026 208.926 16.7363 209.315 16.531C209.703 16.3183 210.147 16.212 210.646 16.212C211.144 16.212 211.584 16.3073 211.966 16.498C212.347 16.6887 212.64 16.96 212.846 17.312C213.051 17.6567 213.154 18.06 213.154 18.522C213.154 18.9913 213.018 19.4497 212.747 19.897C212.475 20.3443 212.043 20.8173 211.449 21.316L209.359 23.098H213.154V24H207.951L207.94 23.131ZM218.818 24.088C218.202 24.088 217.696 23.9303 217.3 23.615C216.912 23.2997 216.648 22.9183 216.508 22.471L217.311 22.119C217.561 22.9037 218.063 23.296 218.818 23.296C219.148 23.296 219.416 23.2153 219.621 23.054C219.834 22.8853 219.94 22.6837 219.94 22.449C219.94 22.251 219.878 22.0897 219.753 21.965C219.636 21.8403 219.489 21.745 219.313 21.679C219.137 21.613 218.892 21.5397 218.576 21.459C218.18 21.3563 217.861 21.2573 217.619 21.162C217.385 21.0593 217.179 20.9053 217.003 20.7C216.835 20.4873 216.75 20.2013 216.75 19.842C216.75 19.402 216.926 19.0463 217.278 18.775C217.63 18.5037 218.103 18.368 218.697 18.368C219.189 18.368 219.625 18.4963 220.006 18.753C220.395 19.0023 220.644 19.3287 220.754 19.732L219.973 20.073C219.9 19.7943 219.739 19.5707 219.489 19.402C219.247 19.226 218.976 19.138 218.675 19.138C218.36 19.138 218.111 19.2003 217.927 19.325C217.751 19.4423 217.663 19.611 217.663 19.831C217.663 20.051 217.762 20.216 217.96 20.326C218.158 20.4287 218.463 20.5277 218.873 20.623C219.284 20.7257 219.621 20.832 219.885 20.942C220.149 21.0447 220.377 21.217 220.567 21.459C220.758 21.6937 220.853 22.0163 220.853 22.427C220.853 22.9183 220.666 23.318 220.292 23.626C219.918 23.934 219.427 24.088 218.818 24.088ZM221.558 21.228C221.558 20.7 221.664 20.2197 221.877 19.787C222.097 19.347 222.409 19.0023 222.812 18.753C223.223 18.4963 223.699 18.368 224.242 18.368C224.77 18.368 225.236 18.4853 225.639 18.72C226.042 18.9473 226.35 19.2627 226.563 19.666C226.783 20.062 226.893 20.4983 226.893 20.975C226.893 21.129 226.886 21.2647 226.871 21.382H222.493C222.522 21.954 222.698 22.4123 223.021 22.757C223.344 23.0943 223.765 23.263 224.286 23.263C224.704 23.263 225.056 23.1677 225.342 22.977C225.628 22.7863 225.811 22.5187 225.892 22.174L226.772 22.383C226.633 22.9183 226.343 23.3363 225.903 23.637C225.463 23.9377 224.924 24.088 224.286 24.088C223.743 24.088 223.263 23.9633 222.845 23.714C222.434 23.4573 222.115 23.1127 221.888 22.68C221.668 22.24 221.558 21.756 221.558 21.228ZM225.903 20.623C225.859 20.183 225.69 19.8273 225.397 19.556C225.104 19.2847 224.719 19.149 224.242 19.149C223.809 19.149 223.443 19.281 223.142 19.545C222.841 19.8017 222.643 20.161 222.548 20.623H225.903ZM227.977 18.456H228.912V19.501C229.059 19.1563 229.271 18.8813 229.55 18.676C229.836 18.4707 230.181 18.368 230.584 18.368C231.039 18.368 231.427 18.4707 231.75 18.676C232.08 18.8813 232.293 19.1673 232.388 19.534C232.542 19.1893 232.777 18.9107 233.092 18.698C233.415 18.478 233.778 18.368 234.181 18.368C234.775 18.368 235.244 18.5403 235.589 18.885C235.941 19.2297 236.117 19.6953 236.117 20.282V24H235.182V20.469C235.182 20.0803 235.076 19.7723 234.863 19.545C234.65 19.3103 234.353 19.193 233.972 19.193C233.51 19.193 233.151 19.38 232.894 19.754C232.637 20.128 232.509 20.6157 232.509 21.217V24H231.574V20.469C231.574 20.0803 231.468 19.7723 231.255 19.545C231.05 19.3103 230.756 19.193 230.375 19.193C229.913 19.193 229.554 19.38 229.297 19.754C229.04 20.128 228.912 20.6157 228.912 21.217V24H227.977V18.456ZM240.935 20.392C240.935 20.0107 240.81 19.71 240.561 19.49C240.319 19.2627 239.993 19.149 239.582 19.149C239.201 19.149 238.885 19.2553 238.636 19.468C238.387 19.6807 238.244 19.974 238.207 20.348L237.338 20.183C237.419 19.633 237.664 19.193 238.075 18.863C238.493 18.533 238.995 18.368 239.582 18.368C240.264 18.368 240.814 18.555 241.232 18.929C241.65 19.303 241.859 19.809 241.859 20.447V24H240.935V23.054C240.774 23.3693 240.524 23.6223 240.187 23.813C239.857 23.9963 239.49 24.088 239.087 24.088C238.537 24.088 238.086 23.9377 237.734 23.637C237.389 23.329 237.217 22.933 237.217 22.449C237.217 21.921 237.433 21.5067 237.866 21.206C238.306 20.9053 238.97 20.711 239.857 20.623L240.935 20.502V20.392ZM238.152 22.438C238.152 22.6947 238.251 22.9073 238.449 23.076C238.654 23.2373 238.915 23.318 239.23 23.318C239.765 23.318 240.183 23.153 240.484 22.823C240.785 22.493 240.935 22.0493 240.935 21.492V21.228L239.857 21.349C239.3 21.4077 238.874 21.5323 238.581 21.723C238.295 21.9063 238.152 22.1447 238.152 22.438ZM243.259 18.456H244.194V24H243.259V18.456ZM244.271 16.212V17.4H243.193V16.212H244.271ZM245.589 18.456H246.524V19.501C246.722 19.1563 246.986 18.8813 247.316 18.676C247.646 18.4707 248.016 18.368 248.427 18.368C249.006 18.368 249.479 18.5477 249.846 18.907C250.22 19.2663 250.407 19.7393 250.407 20.326V24H249.472V20.502C249.472 20.1207 249.358 19.8127 249.131 19.578C248.903 19.336 248.599 19.215 248.218 19.215C247.697 19.215 247.283 19.4277 246.975 19.853C246.674 20.271 246.524 20.843 246.524 21.569V24H245.589V18.456ZM251.487 21.228C251.487 20.7 251.594 20.2197 251.806 19.787C252.026 19.347 252.338 19.0023 252.741 18.753C253.152 18.4963 253.629 18.368 254.171 18.368C254.699 18.368 255.165 18.4853 255.568 18.72C255.972 18.9473 256.28 19.2627 256.492 19.666C256.712 20.062 256.822 20.4983 256.822 20.975C256.822 21.129 256.815 21.2647 256.8 21.382H252.422C252.452 21.954 252.628 22.4123 252.95 22.757C253.273 23.0943 253.695 23.263 254.215 23.263C254.633 23.263 254.985 23.1677 255.271 22.977C255.557 22.7863 255.741 22.5187 255.821 22.174L256.701 22.383C256.562 22.9183 256.272 23.3363 255.832 23.637C255.392 23.9377 254.853 24.088 254.215 24.088C253.673 24.088 253.192 23.9633 252.774 23.714C252.364 23.4573 252.045 23.1127 251.817 22.68C251.597 22.24 251.487 21.756 251.487 21.228ZM255.832 20.623C255.788 20.183 255.62 19.8273 255.326 19.556C255.033 19.2847 254.648 19.149 254.171 19.149C253.739 19.149 253.372 19.281 253.071 19.545C252.771 19.8017 252.573 20.161 252.477 20.623H255.832ZM259.722 24.088C259.106 24.088 258.6 23.9303 258.204 23.615C257.816 23.2997 257.552 22.9183 257.412 22.471L258.215 22.119C258.465 22.9037 258.967 23.296 259.722 23.296C260.052 23.296 260.32 23.2153 260.525 23.054C260.738 22.8853 260.844 22.6837 260.844 22.449C260.844 22.251 260.782 22.0897 260.657 21.965C260.54 21.8403 260.393 21.745 260.217 21.679C260.041 21.613 259.796 21.5397 259.48 21.459C259.084 21.3563 258.765 21.2573 258.523 21.162C258.289 21.0593 258.083 20.9053 257.907 20.7C257.739 20.4873 257.654 20.2013 257.654 19.842C257.654 19.402 257.83 19.0463 258.182 18.775C258.534 18.5037 259.007 18.368 259.601 18.368C260.093 18.368 260.529 18.4963 260.91 18.753C261.299 19.0023 261.548 19.3287 261.658 19.732L260.877 20.073C260.804 19.7943 260.643 19.5707 260.393 19.402C260.151 19.226 259.88 19.138 259.579 19.138C259.264 19.138 259.015 19.2003 258.831 19.325C258.655 19.4423 258.567 19.611 258.567 19.831C258.567 20.051 258.666 20.216 258.864 20.326C259.062 20.4287 259.367 20.5277 259.777 20.623C260.188 20.7257 260.525 20.832 260.789 20.942C261.053 21.0447 261.281 21.217 261.471 21.459C261.662 21.6937 261.757 22.0163 261.757 22.427C261.757 22.9183 261.57 23.318 261.196 23.626C260.822 23.934 260.331 24.088 259.722 24.088ZM263.731 22.856V24H262.565V22.856H263.731ZM267.138 23.087C267.314 23.1457 267.505 23.175 267.71 23.175C268.092 23.175 268.37 23.0723 268.546 22.867C268.722 22.6617 268.81 22.3133 268.81 21.822V16.3H269.789V21.789C269.789 22.5517 269.613 23.1237 269.261 23.505C268.909 23.879 268.429 24.066 267.82 24.066C267.6 24.066 267.373 24.0367 267.138 23.978V23.087ZM270.889 21.228C270.889 20.7 270.996 20.2197 271.208 19.787C271.428 19.347 271.74 19.0023 272.143 18.753C272.554 18.4963 273.031 18.368 273.573 18.368C274.101 18.368 274.567 18.4853 274.97 18.72C275.374 18.9473 275.682 19.2627 275.894 19.666C276.114 20.062 276.224 20.4983 276.224 20.975C276.224 21.129 276.217 21.2647 276.202 21.382H271.824C271.854 21.954 272.03 22.4123 272.352 22.757C272.675 23.0943 273.097 23.263 273.617 23.263C274.035 23.263 274.387 23.1677 274.673 22.977C274.959 22.7863 275.143 22.5187 275.223 22.174L276.103 22.383C275.964 22.9183 275.674 23.3363 275.234 23.637C274.794 23.9377 274.255 24.088 273.617 24.088C273.075 24.088 272.594 23.9633 272.176 23.714C271.766 23.4573 271.447 23.1127 271.219 22.68C270.999 22.24 270.889 21.756 270.889 21.228ZM275.234 20.623C275.19 20.183 275.022 19.8273 274.728 19.556C274.435 19.2847 274.05 19.149 273.573 19.149C273.141 19.149 272.774 19.281 272.473 19.545C272.173 19.8017 271.975 20.161 271.879 20.623H275.234ZM279.225 18.456H280.182L281.722 22.911L283.273 18.456H284.241L282.206 24H281.249L279.225 18.456ZM287.342 24.088C286.8 24.088 286.312 23.967 285.879 23.725C285.454 23.4757 285.12 23.1347 284.878 22.702C284.644 22.2693 284.526 21.778 284.526 21.228C284.526 20.678 284.644 20.1867 284.878 19.754C285.12 19.3213 285.454 18.984 285.879 18.742C286.312 18.4927 286.8 18.368 287.342 18.368C287.885 18.368 288.369 18.4927 288.794 18.742C289.227 18.984 289.564 19.3213 289.806 19.754C290.048 20.1867 290.169 20.678 290.169 21.228C290.169 21.778 290.048 22.2693 289.806 22.702C289.564 23.1347 289.227 23.4757 288.794 23.725C288.369 23.967 287.885 24.088 287.342 24.088ZM285.483 21.228C285.483 21.822 285.656 22.3097 286 22.691C286.345 23.065 286.792 23.252 287.342 23.252C287.892 23.252 288.34 23.065 288.684 22.691C289.029 22.3097 289.201 21.822 289.201 21.228C289.201 20.634 289.029 20.15 288.684 19.776C288.34 19.3947 287.892 19.204 287.342 19.204C286.792 19.204 286.345 19.3947 286 19.776C285.656 20.15 285.483 20.634 285.483 21.228ZM296.064 24H295.129V22.955C294.931 23.2997 294.667 23.5747 294.337 23.78C294.007 23.9853 293.637 24.088 293.226 24.088C292.647 24.088 292.17 23.9083 291.796 23.549C291.429 23.1897 291.246 22.7167 291.246 22.13V18.456H292.181V21.954C292.181 22.3353 292.295 22.647 292.522 22.889C292.749 23.1237 293.054 23.241 293.435 23.241C293.956 23.241 294.366 23.032 294.667 22.614C294.975 22.1887 295.129 21.613 295.129 20.887V18.456H296.064V24ZM297.464 16.212H298.399V24H297.464V16.212ZM303.214 20.392C303.214 20.0107 303.089 19.71 302.84 19.49C302.598 19.2627 302.272 19.149 301.861 19.149C301.48 19.149 301.164 19.2553 300.915 19.468C300.666 19.6807 300.523 19.974 300.486 20.348L299.617 20.183C299.698 19.633 299.943 19.193 300.354 18.863C300.772 18.533 301.274 18.368 301.861 18.368C302.543 18.368 303.093 18.555 303.511 18.929C303.929 19.303 304.138 19.809 304.138 20.447V24H303.214V23.054C303.053 23.3693 302.803 23.6223 302.466 23.813C302.136 23.9963 301.769 24.088 301.366 24.088C300.816 24.088 300.365 23.9377 300.013 23.637C299.668 23.329 299.496 22.933 299.496 22.449C299.496 21.921 299.712 21.5067 300.145 21.206C300.585 20.9053 301.249 20.711 302.136 20.623L303.214 20.502V20.392ZM300.431 22.438C300.431 22.6947 300.53 22.9073 300.728 23.076C300.933 23.2373 301.194 23.318 301.509 23.318C302.044 23.318 302.462 23.153 302.763 22.823C303.064 22.493 303.214 22.0493 303.214 21.492V21.228L302.136 21.349C301.579 21.4077 301.153 21.5323 300.86 21.723C300.574 21.9063 300.431 22.1447 300.431 22.438ZM305.538 18.456H306.473V24H305.538V18.456ZM306.55 16.212V17.4H305.472V16.212H306.55ZM309.738 24.088C309.122 24.088 308.616 23.9303 308.22 23.615C307.831 23.2997 307.567 22.9183 307.428 22.471L308.231 22.119C308.48 22.9037 308.982 23.296 309.738 23.296C310.068 23.296 310.335 23.2153 310.541 23.054C310.753 22.8853 310.86 22.6837 310.86 22.449C310.86 22.251 310.797 22.0897 310.673 21.965C310.555 21.8403 310.409 21.745 310.233 21.679C310.057 21.613 309.811 21.5397 309.496 21.459C309.1 21.3563 308.781 21.2573 308.539 21.162C308.304 21.0593 308.099 20.9053 307.923 20.7C307.754 20.4873 307.67 20.2013 307.67 19.842C307.67 19.402 307.846 19.0463 308.198 18.775C308.55 18.5037 309.023 18.368 309.617 18.368C310.108 18.368 310.544 18.4963 310.926 18.753C311.314 19.0023 311.564 19.3287 311.674 19.732L310.893 20.073C310.819 19.7943 310.658 19.5707 310.409 19.402C310.167 19.226 309.895 19.138 309.595 19.138C309.279 19.138 309.03 19.2003 308.847 19.325C308.671 19.4423 308.583 19.611 308.583 19.831C308.583 20.051 308.682 20.216 308.88 20.326C309.078 20.4287 309.382 20.5277 309.793 20.623C310.203 20.7257 310.541 20.832 310.805 20.942C311.069 21.0447 311.296 21.217 311.487 21.459C311.677 21.6937 311.773 22.0163 311.773 22.427C311.773 22.9183 311.586 23.318 311.212 23.626C310.838 23.934 310.346 24.088 309.738 24.088ZM55.707 36.956C55.465 37.044 55.1753 37.088 54.838 37.088C54.3393 37.088 53.9397 36.945 53.639 36.659C53.3457 36.3657 53.199 35.9257 53.199 35.339V32.281H52.165V31.456H53.199V29.773H54.134V31.456H55.619V32.281H54.134V35.372C54.134 35.658 54.2073 35.8743 54.354 36.021C54.5007 36.1677 54.6987 36.241 54.948 36.241C55.2193 36.241 55.4503 36.1933 55.641 36.098L55.707 36.956ZM56.2194 34.228C56.2194 33.7 56.3257 33.2197 56.5384 32.787C56.7584 32.347 57.0701 32.0023 57.4734 31.753C57.8841 31.4963 58.3607 31.368 58.9034 31.368C59.4314 31.368 59.8971 31.4853 60.3004 31.72C60.7037 31.9473 61.0117 32.2627 61.2244 32.666C61.4444 33.062 61.5544 33.4983 61.5544 33.975C61.5544 34.129 61.5471 34.2647 61.5324 34.382H57.1544C57.1837 34.954 57.3597 35.4123 57.6824 35.757C58.0051 36.0943 58.4267 36.263 58.9474 36.263C59.3654 36.263 59.7174 36.1677 60.0034 35.977C60.2894 35.7863 60.4727 35.5187 60.5534 35.174L61.4334 35.383C61.2941 35.9183 61.0044 36.3363 60.5644 36.637C60.1244 36.9377 59.5854 37.088 58.9474 37.088C58.4047 37.088 57.9244 36.9633 57.5064 36.714C57.0957 36.4573 56.7767 36.1127 56.5494 35.68C56.3294 35.24 56.2194 34.756 56.2194 34.228ZM60.5644 33.623C60.5204 33.183 60.3517 32.8273 60.0584 32.556C59.7651 32.2847 59.3801 32.149 58.9034 32.149C58.4707 32.149 58.1041 32.281 57.8034 32.545C57.5027 32.8017 57.3047 33.161 57.2094 33.623H60.5644ZM65.1715 31.456H66.1065V32.259C66.2605 32.0023 66.5025 31.7897 66.8325 31.621C67.1698 31.4523 67.5365 31.368 67.9325 31.368C68.4898 31.368 68.9665 31.4927 69.3625 31.742C69.7585 31.984 70.0591 32.3213 70.2645 32.754C70.4771 33.1867 70.5835 33.678 70.5835 34.228C70.5835 34.778 70.4771 35.2693 70.2645 35.702C70.0518 36.1347 69.7438 36.4757 69.3405 36.725C68.9445 36.967 68.4678 37.088 67.9105 37.088C67.5585 37.088 67.2175 37.011 66.8875 36.857C66.5575 36.6957 66.2971 36.4867 66.1065 36.23V39.002H65.1715V31.456ZM66.0295 34.228C66.0295 34.8367 66.1908 35.328 66.5135 35.702C66.8435 36.0687 67.2798 36.252 67.8225 36.252C68.3725 36.252 68.8125 36.0687 69.1425 35.702C69.4725 35.328 69.6375 34.8367 69.6375 34.228C69.6375 33.6193 69.4725 33.1317 69.1425 32.765C68.8125 32.391 68.3725 32.204 67.8225 32.204C67.2798 32.204 66.8435 32.391 66.5135 32.765C66.1908 33.1317 66.0295 33.6193 66.0295 34.228ZM74.9029 32.369C74.6976 32.281 74.4592 32.237 74.1879 32.237C73.7186 32.237 73.3336 32.4643 73.0329 32.919C72.7396 33.3663 72.5929 34.0227 72.5929 34.888V37H71.6579V31.456H72.5929V32.578C72.7542 32.226 72.9962 31.9363 73.3189 31.709C73.6416 31.4817 73.9752 31.368 74.3199 31.368C74.5619 31.368 74.7746 31.401 74.9579 31.467L74.9029 32.369ZM75.172 34.228C75.172 33.7 75.2784 33.2197 75.491 32.787C75.711 32.347 76.0227 32.0023 76.426 31.753C76.8367 31.4963 77.3134 31.368 77.856 31.368C78.384 31.368 78.8497 31.4853 79.253 31.72C79.6564 31.9473 79.9644 32.2627 80.177 32.666C80.397 33.062 80.507 33.4983 80.507 33.975C80.507 34.129 80.4997 34.2647 80.485 34.382H76.107C76.1364 34.954 76.3124 35.4123 76.635 35.757C76.9577 36.0943 77.3794 36.263 77.9 36.263C78.318 36.263 78.67 36.1677 78.956 35.977C79.242 35.7863 79.4254 35.5187 79.506 35.174L80.386 35.383C80.2467 35.9183 79.957 36.3363 79.517 36.637C79.077 36.9377 78.538 37.088 77.9 37.088C77.3574 37.088 76.877 36.9633 76.459 36.714C76.0484 36.4573 75.7294 36.1127 75.502 35.68C75.282 35.24 75.172 34.756 75.172 34.228ZM79.517 33.623C79.473 33.183 79.3044 32.8273 79.011 32.556C78.7177 32.2847 78.3327 32.149 77.856 32.149C77.4234 32.149 77.0567 32.281 76.756 32.545C76.4554 32.8017 76.2574 33.161 76.162 33.623H79.517ZM78.142 29.212H79.319L78.032 30.84H77.35L78.142 29.212ZM80.7921 31.456H81.7491L83.2891 35.911L84.8401 31.456H85.8081L83.7731 37H82.8161L80.7921 31.456ZM86.0932 34.228C86.0932 33.7 86.1995 33.2197 86.4122 32.787C86.6322 32.347 86.9438 32.0023 87.3472 31.753C87.7578 31.4963 88.2345 31.368 88.7772 31.368C89.3052 31.368 89.7708 31.4853 90.1742 31.72C90.5775 31.9473 90.8855 32.2627 91.0982 32.666C91.3182 33.062 91.4282 33.4983 91.4282 33.975C91.4282 34.129 91.4208 34.2647 91.4062 34.382H87.0282C87.0575 34.954 87.2335 35.4123 87.5562 35.757C87.8788 36.0943 88.3005 36.263 88.8212 36.263C89.2392 36.263 89.5912 36.1677 89.8772 35.977C90.1632 35.7863 90.3465 35.5187 90.4272 35.174L91.3072 35.383C91.1678 35.9183 90.8782 36.3363 90.4382 36.637C89.9982 36.9377 89.4592 37.088 88.8212 37.088C88.2785 37.088 87.7982 36.9633 87.3802 36.714C86.9695 36.4573 86.6505 36.1127 86.4232 35.68C86.2032 35.24 86.0932 34.756 86.0932 34.228ZM90.4382 33.623C90.3942 33.183 90.2255 32.8273 89.9322 32.556C89.6388 32.2847 89.2538 32.149 88.7772 32.149C88.3445 32.149 87.9778 32.281 87.6772 32.545C87.3765 32.8017 87.1785 33.161 87.0832 33.623H90.4382ZM92.5119 31.456H93.4469V32.501C93.6449 32.1563 93.9089 31.8813 94.2389 31.676C94.5689 31.4707 94.9392 31.368 95.3499 31.368C95.9292 31.368 96.4022 31.5477 96.7689 31.907C97.1429 32.2663 97.3299 32.7393 97.3299 33.326V37H96.3949V33.502C96.3949 33.1207 96.2812 32.8127 96.0539 32.578C95.8266 32.336 95.5222 32.215 95.1409 32.215C94.6202 32.215 94.2059 32.4277 93.8979 32.853C93.5972 33.271 93.4469 33.843 93.4469 34.569V37H92.5119V31.456ZM98.7298 31.456H99.6648V37H98.7298V31.456ZM99.7418 29.212V30.4H98.6638V29.212H99.7418ZM104.304 32.369C104.099 32.281 103.86 32.237 103.589 32.237C103.12 32.237 102.735 32.4643 102.434 32.919C102.141 33.3663 101.994 34.0227 101.994 34.888V37H101.059V31.456H101.994V32.578C102.155 32.226 102.397 31.9363 102.72 31.709C103.043 31.4817 103.376 31.368 103.721 31.368C103.963 31.368 104.176 31.401 104.359 31.467L104.304 32.369ZM107.683 31.456H108.618V32.259C108.772 32.0023 109.014 31.7897 109.344 31.621C109.682 31.4523 110.048 31.368 110.444 31.368C111.002 31.368 111.478 31.4927 111.874 31.742C112.27 31.984 112.571 32.3213 112.776 32.754C112.989 33.1867 113.095 33.678 113.095 34.228C113.095 34.778 112.989 35.2693 112.776 35.702C112.564 36.1347 112.256 36.4757 111.852 36.725C111.456 36.967 110.98 37.088 110.422 37.088C110.07 37.088 109.729 37.011 109.399 36.857C109.069 36.6957 108.809 36.4867 108.618 36.23V39.002H107.683V31.456ZM108.541 34.228C108.541 34.8367 108.703 35.328 109.025 35.702C109.355 36.0687 109.792 36.252 110.334 36.252C110.884 36.252 111.324 36.0687 111.654 35.702C111.984 35.328 112.149 34.8367 112.149 34.228C112.149 33.6193 111.984 33.1317 111.654 32.765C111.324 32.391 110.884 32.204 110.334 32.204C109.792 32.204 109.355 32.391 109.025 32.765C108.703 33.1317 108.541 33.6193 108.541 34.228ZM113.851 34.228C113.851 33.7 113.957 33.2197 114.17 32.787C114.39 32.347 114.701 32.0023 115.105 31.753C115.515 31.4963 115.992 31.368 116.535 31.368C117.063 31.368 117.528 31.4853 117.932 31.72C118.335 31.9473 118.643 32.2627 118.856 32.666C119.076 33.062 119.186 33.4983 119.186 33.975C119.186 34.129 119.178 34.2647 119.164 34.382H114.786C114.815 34.954 114.991 35.4123 115.314 35.757C115.636 36.0943 116.058 36.263 116.579 36.263C116.997 36.263 117.349 36.1677 117.635 35.977C117.921 35.7863 118.104 35.5187 118.185 35.174L119.065 35.383C118.925 35.9183 118.636 36.3363 118.196 36.637C117.756 36.9377 117.217 37.088 116.579 37.088C116.036 37.088 115.556 36.9633 115.138 36.714C114.727 36.4573 114.408 36.1127 114.181 35.68C113.961 35.24 113.851 34.756 113.851 34.228ZM118.196 33.623C118.152 33.183 117.983 32.8273 117.69 32.556C117.396 32.2847 117.011 32.149 116.535 32.149C116.102 32.149 115.735 32.281 115.435 32.545C115.134 32.8017 114.936 33.161 114.841 33.623H118.196ZM123.514 32.369C123.309 32.281 123.071 32.237 122.799 32.237C122.33 32.237 121.945 32.4643 121.644 32.919C121.351 33.3663 121.204 34.0227 121.204 34.888V37H120.269V31.456H121.204V32.578C121.366 32.226 121.608 31.9363 121.93 31.709C122.253 31.4817 122.587 31.368 122.931 31.368C123.173 31.368 123.386 31.401 123.569 31.467L123.514 32.369ZM126.08 37.088C125.464 37.088 124.958 36.9303 124.562 36.615C124.173 36.2997 123.909 35.9183 123.77 35.471L124.573 35.119C124.822 35.9037 125.325 36.296 126.08 36.296C126.41 36.296 126.678 36.2153 126.883 36.054C127.096 35.8853 127.202 35.6837 127.202 35.449C127.202 35.251 127.14 35.0897 127.015 34.965C126.898 34.8403 126.751 34.745 126.575 34.679C126.399 34.613 126.153 34.5397 125.838 34.459C125.442 34.3563 125.123 34.2573 124.881 34.162C124.646 34.0593 124.441 33.9053 124.265 33.7C124.096 33.4873 124.012 33.2013 124.012 32.842C124.012 32.402 124.188 32.0463 124.54 31.775C124.892 31.5037 125.365 31.368 125.959 31.368C126.45 31.368 126.887 31.4963 127.268 31.753C127.657 32.0023 127.906 32.3287 128.016 32.732L127.235 33.073C127.162 32.7943 127 32.5707 126.751 32.402C126.509 32.226 126.238 32.138 125.937 32.138C125.622 32.138 125.372 32.2003 125.189 32.325C125.013 32.4423 124.925 32.611 124.925 32.831C124.925 33.051 125.024 33.216 125.222 33.326C125.42 33.4287 125.724 33.5277 126.135 33.623C126.546 33.7257 126.883 33.832 127.147 33.942C127.411 34.0447 127.638 34.217 127.829 34.459C128.02 34.6937 128.115 35.0163 128.115 35.427C128.115 35.9183 127.928 36.318 127.554 36.626C127.18 36.934 126.689 37.088 126.08 37.088ZM131.636 37.088C131.093 37.088 130.605 36.967 130.173 36.725C129.747 36.4757 129.414 36.1347 129.172 35.702C128.937 35.2693 128.82 34.778 128.82 34.228C128.82 33.678 128.937 33.1867 129.172 32.754C129.414 32.3213 129.747 31.984 130.173 31.742C130.605 31.4927 131.093 31.368 131.636 31.368C132.178 31.368 132.662 31.4927 133.088 31.742C133.52 31.984 133.858 32.3213 134.1 32.754C134.342 33.1867 134.463 33.678 134.463 34.228C134.463 34.778 134.342 35.2693 134.1 35.702C133.858 36.1347 133.52 36.4757 133.088 36.725C132.662 36.967 132.178 37.088 131.636 37.088ZM129.777 34.228C129.777 34.822 129.949 35.3097 130.294 35.691C130.638 36.065 131.086 36.252 131.636 36.252C132.186 36.252 132.633 36.065 132.978 35.691C133.322 35.3097 133.495 34.822 133.495 34.228C133.495 33.634 133.322 33.15 132.978 32.776C132.633 32.3947 132.186 32.204 131.636 32.204C131.086 32.204 130.638 32.3947 130.294 32.776C129.949 33.15 129.777 33.634 129.777 34.228ZM135.539 31.456H136.474V32.501C136.672 32.1563 136.936 31.8813 137.266 31.676C137.596 31.4707 137.967 31.368 138.377 31.368C138.957 31.368 139.43 31.5477 139.796 31.907C140.17 32.2663 140.357 32.7393 140.357 33.326V37H139.422V33.502C139.422 33.1207 139.309 32.8127 139.081 32.578C138.854 32.336 138.55 32.215 138.168 32.215C137.648 32.215 137.233 32.4277 136.925 32.853C136.625 33.271 136.474 33.843 136.474 34.569V37H135.539V31.456ZM141.757 31.456H142.692V32.501C142.89 32.1563 143.154 31.8813 143.484 31.676C143.814 31.4707 144.185 31.368 144.595 31.368C145.175 31.368 145.648 31.5477 146.014 31.907C146.388 32.2663 146.575 32.7393 146.575 33.326V37H145.64V33.502C145.64 33.1207 145.527 32.8127 145.299 32.578C145.072 32.336 144.768 32.215 144.386 32.215C143.866 32.215 143.451 32.4277 143.143 32.853C142.843 33.271 142.692 33.843 142.692 34.569V37H141.757V31.456ZM147.656 34.228C147.656 33.7 147.762 33.2197 147.975 32.787C148.195 32.347 148.507 32.0023 148.91 31.753C149.321 31.4963 149.797 31.368 150.34 31.368C150.868 31.368 151.334 31.4853 151.737 31.72C152.14 31.9473 152.448 32.2627 152.661 32.666C152.881 33.062 152.991 33.4983 152.991 33.975C152.991 34.129 152.984 34.2647 152.969 34.382H148.591C148.62 34.954 148.796 35.4123 149.119 35.757C149.442 36.0943 149.863 36.263 150.384 36.263C150.802 36.263 151.154 36.1677 151.44 35.977C151.726 35.7863 151.909 35.5187 151.99 35.174L152.87 35.383C152.731 35.9183 152.441 36.3363 152.001 36.637C151.561 36.9377 151.022 37.088 150.384 37.088C149.841 37.088 149.361 36.9633 148.943 36.714C148.532 36.4573 148.213 36.1127 147.986 35.68C147.766 35.24 147.656 34.756 147.656 34.228ZM152.001 33.623C151.957 33.183 151.788 32.8273 151.495 32.556C151.202 32.2847 150.817 32.149 150.34 32.149C149.907 32.149 149.541 32.281 149.24 32.545C148.939 32.8017 148.741 33.161 148.646 33.623H152.001ZM154.075 29.212H155.01V37H154.075V29.212ZM156.404 29.212H157.339V37H156.404V29.212ZM158.414 34.228C158.414 33.7 158.521 33.2197 158.733 32.787C158.953 32.347 159.265 32.0023 159.668 31.753C160.079 31.4963 160.556 31.368 161.098 31.368C161.626 31.368 162.092 31.4853 162.495 31.72C162.899 31.9473 163.207 32.2627 163.419 32.666C163.639 33.062 163.749 33.4983 163.749 33.975C163.749 34.129 163.742 34.2647 163.727 34.382H159.349C159.379 34.954 159.555 35.4123 159.877 35.757C160.2 36.0943 160.622 36.263 161.142 36.263C161.56 36.263 161.912 36.1677 162.198 35.977C162.484 35.7863 162.668 35.5187 162.748 35.174L163.628 35.383C163.489 35.9183 163.199 36.3363 162.759 36.637C162.319 36.9377 161.78 37.088 161.142 37.088C160.6 37.088 160.119 36.9633 159.701 36.714C159.291 36.4573 158.972 36.1127 158.744 35.68C158.524 35.24 158.414 34.756 158.414 34.228ZM162.759 33.623C162.715 33.183 162.547 32.8273 162.253 32.556C161.96 32.2847 161.575 32.149 161.098 32.149C160.666 32.149 160.299 32.281 159.998 32.545C159.698 32.8017 159.5 33.161 159.404 33.623H162.759ZM164.833 31.456H165.768V32.501C165.915 32.1563 166.127 31.8813 166.406 31.676C166.692 31.4707 167.037 31.368 167.44 31.368C167.895 31.368 168.283 31.4707 168.606 31.676C168.936 31.8813 169.149 32.1673 169.244 32.534C169.398 32.1893 169.633 31.9107 169.948 31.698C170.271 31.478 170.634 31.368 171.037 31.368C171.631 31.368 172.1 31.5403 172.445 31.885C172.797 32.2297 172.973 32.6953 172.973 33.282V37H172.038V33.469C172.038 33.0803 171.932 32.7723 171.719 32.545C171.506 32.3103 171.209 32.193 170.828 32.193C170.366 32.193 170.007 32.38 169.75 32.754C169.493 33.128 169.365 33.6157 169.365 34.217V37H168.43V33.469C168.43 33.0803 168.324 32.7723 168.111 32.545C167.906 32.3103 167.612 32.193 167.231 32.193C166.769 32.193 166.41 32.38 166.153 32.754C165.896 33.128 165.768 33.6157 165.768 34.217V37H164.833V31.456ZM174.051 34.228C174.051 33.7 174.158 33.2197 174.37 32.787C174.59 32.347 174.902 32.0023 175.305 31.753C175.716 31.4963 176.193 31.368 176.735 31.368C177.263 31.368 177.729 31.4853 178.132 31.72C178.536 31.9473 178.844 32.2627 179.056 32.666C179.276 33.062 179.386 33.4983 179.386 33.975C179.386 34.129 179.379 34.2647 179.364 34.382H174.986C175.016 34.954 175.192 35.4123 175.514 35.757C175.837 36.0943 176.259 36.263 176.779 36.263C177.197 36.263 177.549 36.1677 177.835 35.977C178.121 35.7863 178.305 35.5187 178.385 35.174L179.265 35.383C179.126 35.9183 178.836 36.3363 178.396 36.637C177.956 36.9377 177.417 37.088 176.779 37.088C176.237 37.088 175.756 36.9633 175.338 36.714C174.928 36.4573 174.609 36.1127 174.381 35.68C174.161 35.24 174.051 34.756 174.051 34.228ZM178.396 33.623C178.352 33.183 178.184 32.8273 177.89 32.556C177.597 32.2847 177.212 32.149 176.735 32.149C176.303 32.149 175.936 32.281 175.635 32.545C175.335 32.8017 175.137 33.161 175.041 33.623H178.396ZM180.47 31.456H181.405V32.501C181.603 32.1563 181.867 31.8813 182.197 31.676C182.527 31.4707 182.897 31.368 183.308 31.368C183.887 31.368 184.36 31.5477 184.727 31.907C185.101 32.2663 185.288 32.7393 185.288 33.326V37H184.353V33.502C184.353 33.1207 184.239 32.8127 184.012 32.578C183.785 32.336 183.48 32.215 183.099 32.215C182.578 32.215 182.164 32.4277 181.856 32.853C181.555 33.271 181.405 33.843 181.405 34.569V37H180.47V31.456ZM189.432 36.956C189.19 37.044 188.9 37.088 188.563 37.088C188.064 37.088 187.664 36.945 187.364 36.659C187.07 36.3657 186.924 35.9257 186.924 35.339V32.281H185.89V31.456H186.924V29.773H187.859V31.456H189.344V32.281H187.859V35.372C187.859 35.658 187.932 35.8743 188.079 36.021C188.225 36.1677 188.423 36.241 188.673 36.241C188.944 36.241 189.175 36.1933 189.366 36.098L189.432 36.956ZM190.59 35.856H191.844L190.612 38.166H189.952L190.59 35.856ZM195.641 31.456H196.576V32.259C196.73 32.0023 196.972 31.7897 197.302 31.621C197.64 31.4523 198.006 31.368 198.402 31.368C198.96 31.368 199.436 31.4927 199.832 31.742C200.228 31.984 200.529 32.3213 200.734 32.754C200.947 33.1867 201.053 33.678 201.053 34.228C201.053 34.778 200.947 35.2693 200.734 35.702C200.522 36.1347 200.214 36.4757 199.81 36.725C199.414 36.967 198.938 37.088 198.38 37.088C198.028 37.088 197.687 37.011 197.357 36.857C197.027 36.6957 196.767 36.4867 196.576 36.23V39.002H195.641V31.456ZM196.499 34.228C196.499 34.8367 196.661 35.328 196.983 35.702C197.313 36.0687 197.75 36.252 198.292 36.252C198.842 36.252 199.282 36.0687 199.612 35.702C199.942 35.328 200.107 34.8367 200.107 34.228C200.107 33.6193 199.942 33.1317 199.612 32.765C199.282 32.391 198.842 32.204 198.292 32.204C197.75 32.204 197.313 32.391 196.983 32.765C196.661 33.1317 196.499 33.6193 196.499 34.228ZM205.495 33.392C205.495 33.0107 205.37 32.71 205.121 32.49C204.879 32.2627 204.553 32.149 204.142 32.149C203.761 32.149 203.445 32.2553 203.196 32.468C202.947 32.6807 202.804 32.974 202.767 33.348L201.898 33.183C201.979 32.633 202.224 32.193 202.635 31.863C203.053 31.533 203.555 31.368 204.142 31.368C204.824 31.368 205.374 31.555 205.792 31.929C206.21 32.303 206.419 32.809 206.419 33.447V37H205.495V36.054C205.334 36.3693 205.084 36.6223 204.747 36.813C204.417 36.9963 204.05 37.088 203.647 37.088C203.097 37.088 202.646 36.9377 202.294 36.637C201.949 36.329 201.777 35.933 201.777 35.449C201.777 34.921 201.993 34.5067 202.426 34.206C202.866 33.9053 203.53 33.711 204.417 33.623L205.495 33.502V33.392ZM202.712 35.438C202.712 35.6947 202.811 35.9073 203.009 36.076C203.214 36.2373 203.475 36.318 203.79 36.318C204.325 36.318 204.743 36.153 205.044 35.823C205.345 35.493 205.495 35.0493 205.495 34.492V34.228L204.417 34.349C203.86 34.4077 203.434 34.5323 203.141 34.723C202.855 34.9063 202.712 35.1447 202.712 35.438ZM211.064 32.369C210.859 32.281 210.621 32.237 210.349 32.237C209.88 32.237 209.495 32.4643 209.194 32.919C208.901 33.3663 208.754 34.0227 208.754 34.888V37H207.819V31.456H208.754V32.578C208.916 32.226 209.158 31.9363 209.48 31.709C209.803 31.4817 210.137 31.368 210.481 31.368C210.723 31.368 210.936 31.401 211.119 31.467L211.064 32.369ZM214.083 37.088C213.541 37.088 213.06 36.9707 212.642 36.736C212.224 36.494 211.902 36.1567 211.674 35.724C211.447 35.2913 211.333 34.7927 211.333 34.228C211.333 33.6633 211.447 33.1647 211.674 32.732C211.902 32.2993 212.224 31.9657 212.642 31.731C213.06 31.489 213.541 31.368 214.083 31.368C214.729 31.368 215.268 31.533 215.7 31.863C216.14 32.1857 216.412 32.622 216.514 33.172L215.59 33.359C215.532 33.0217 215.367 32.7467 215.095 32.534C214.824 32.314 214.494 32.204 214.105 32.204C213.563 32.204 213.126 32.391 212.796 32.765C212.474 33.1317 212.312 33.6193 212.312 34.228C212.312 34.8367 212.474 35.328 212.796 35.702C213.126 36.0687 213.563 36.252 214.105 36.252C214.501 36.252 214.831 36.1493 215.095 35.944C215.367 35.7387 215.539 35.4527 215.612 35.086L216.525 35.273C216.408 35.845 216.129 36.2923 215.689 36.615C215.257 36.9303 214.721 37.088 214.083 37.088ZM217.143 34.228C217.143 33.7 217.249 33.2197 217.462 32.787C217.682 32.347 217.994 32.0023 218.397 31.753C218.808 31.4963 219.284 31.368 219.827 31.368C220.355 31.368 220.821 31.4853 221.224 31.72C221.627 31.9473 221.935 32.2627 222.148 32.666C222.368 33.062 222.478 33.4983 222.478 33.975C222.478 34.129 222.471 34.2647 222.456 34.382H218.078C218.107 34.954 218.283 35.4123 218.606 35.757C218.929 36.0943 219.35 36.263 219.871 36.263C220.289 36.263 220.641 36.1677 220.927 35.977C221.213 35.7863 221.396 35.5187 221.477 35.174L222.357 35.383C222.218 35.9183 221.928 36.3363 221.488 36.637C221.048 36.9377 220.509 37.088 219.871 37.088C219.328 37.088 218.848 36.9633 218.43 36.714C218.019 36.4573 217.7 36.1127 217.473 35.68C217.253 35.24 217.143 34.756 217.143 34.228ZM221.488 33.623C221.444 33.183 221.275 32.8273 220.982 32.556C220.689 32.2847 220.304 32.149 219.827 32.149C219.394 32.149 219.028 32.281 218.727 32.545C218.426 32.8017 218.228 33.161 218.133 33.623H221.488ZM230.253 39.002V36.23C230.062 36.4867 229.802 36.6957 229.472 36.857C229.142 37.011 228.801 37.088 228.449 37.088C227.892 37.088 227.411 36.967 227.008 36.725C226.612 36.4757 226.308 36.1347 226.095 35.702C225.882 35.2693 225.776 34.778 225.776 34.228C225.776 33.678 225.879 33.1867 226.084 32.754C226.297 32.3213 226.601 31.984 226.997 31.742C227.393 31.4927 227.87 31.368 228.427 31.368C228.823 31.368 229.186 31.4523 229.516 31.621C229.853 31.7897 230.099 32.0023 230.253 32.259V31.456H231.188V39.002H230.253ZM226.722 34.228C226.722 34.8367 226.887 35.328 227.217 35.702C227.547 36.0687 227.987 36.252 228.537 36.252C229.08 36.252 229.512 36.0687 229.835 35.702C230.165 35.328 230.33 34.8367 230.33 34.228C230.33 33.6193 230.165 33.1317 229.835 32.765C229.512 32.391 229.08 32.204 228.537 32.204C227.987 32.204 227.547 32.391 227.217 32.765C226.887 33.1317 226.722 33.6193 226.722 34.228ZM237.4 37H236.465V35.955C236.267 36.2997 236.003 36.5747 235.673 36.78C235.343 36.9853 234.972 37.088 234.562 37.088C233.982 37.088 233.506 36.9083 233.132 36.549C232.765 36.1897 232.582 35.7167 232.582 35.13V31.456H233.517V34.954C233.517 35.3353 233.63 35.647 233.858 35.889C234.085 36.1237 234.389 36.241 234.771 36.241C235.291 36.241 235.702 36.032 236.003 35.614C236.311 35.1887 236.465 34.613 236.465 33.887V31.456H237.4V37ZM238.48 34.228C238.48 33.7 238.587 33.2197 238.799 32.787C239.019 32.347 239.331 32.0023 239.734 31.753C240.145 31.4963 240.622 31.368 241.164 31.368C241.692 31.368 242.158 31.4853 242.561 31.72C242.965 31.9473 243.273 32.2627 243.485 32.666C243.705 33.062 243.815 33.4983 243.815 33.975C243.815 34.129 243.808 34.2647 243.793 34.382H239.415C239.445 34.954 239.621 35.4123 239.943 35.757C240.266 36.0943 240.688 36.263 241.208 36.263C241.626 36.263 241.978 36.1677 242.264 35.977C242.55 35.7863 242.734 35.5187 242.814 35.174L243.694 35.383C243.555 35.9183 243.265 36.3363 242.825 36.637C242.385 36.9377 241.846 37.088 241.208 37.088C240.666 37.088 240.185 36.9633 239.767 36.714C239.357 36.4573 239.038 36.1127 238.81 35.68C238.59 35.24 238.48 34.756 238.48 34.228ZM242.825 33.623C242.781 33.183 242.613 32.8273 242.319 32.556C242.026 32.2847 241.641 32.149 241.164 32.149C240.732 32.149 240.365 32.281 240.064 32.545C239.764 32.8017 239.566 33.161 239.47 33.623H242.825ZM250.381 36.956C250.139 37.044 249.849 37.088 249.512 37.088C249.013 37.088 248.613 36.945 248.313 36.659C248.019 36.3657 247.873 35.9257 247.873 35.339V32.281H246.839V31.456H247.873V29.773H248.808V31.456H250.293V32.281H248.808V35.372C248.808 35.658 248.881 35.8743 249.028 36.021C249.174 36.1677 249.372 36.241 249.622 36.241C249.893 36.241 250.124 36.1933 250.315 36.098L250.381 36.956ZM251.281 29.212H252.392L252.172 31.39H251.49L251.281 29.212ZM252.878 34.228C252.878 33.7 252.985 33.2197 253.197 32.787C253.417 32.347 253.729 32.0023 254.132 31.753C254.543 31.4963 255.02 31.368 255.562 31.368C256.09 31.368 256.556 31.4853 256.959 31.72C257.363 31.9473 257.671 32.2627 257.883 32.666C258.103 33.062 258.213 33.4983 258.213 33.975C258.213 34.129 258.206 34.2647 258.191 34.382H253.813C253.843 34.954 254.019 35.4123 254.341 35.757C254.664 36.0943 255.086 36.263 255.606 36.263C256.024 36.263 256.376 36.1677 256.662 35.977C256.948 35.7863 257.132 35.5187 257.212 35.174L258.092 35.383C257.953 35.9183 257.663 36.3363 257.223 36.637C256.783 36.9377 256.244 37.088 255.606 37.088C255.064 37.088 254.583 36.9633 254.165 36.714C253.755 36.4573 253.436 36.1127 253.208 35.68C252.988 35.24 252.878 34.756 252.878 34.228ZM257.223 33.623C257.179 33.183 257.011 32.8273 256.717 32.556C256.424 32.2847 256.039 32.149 255.562 32.149C255.13 32.149 254.763 32.281 254.462 32.545C254.162 32.8017 253.964 33.161 253.868 33.623H257.223ZM261.113 37.088C260.497 37.088 259.991 36.9303 259.595 36.615C259.207 36.2997 258.943 35.9183 258.803 35.471L259.606 35.119C259.856 35.9037 260.358 36.296 261.113 36.296C261.443 36.296 261.711 36.2153 261.916 36.054C262.129 35.8853 262.235 35.6837 262.235 35.449C262.235 35.251 262.173 35.0897 262.048 34.965C261.931 34.8403 261.784 34.745 261.608 34.679C261.432 34.613 261.187 34.5397 260.871 34.459C260.475 34.3563 260.156 34.2573 259.914 34.162C259.68 34.0593 259.474 33.9053 259.298 33.7C259.13 33.4873 259.045 33.2013 259.045 32.842C259.045 32.402 259.221 32.0463 259.573 31.775C259.925 31.5037 260.398 31.368 260.992 31.368C261.484 31.368 261.92 31.4963 262.301 31.753C262.69 32.0023 262.939 32.3287 263.049 32.732L262.268 33.073C262.195 32.7943 262.034 32.5707 261.784 32.402C261.542 32.226 261.271 32.138 260.97 32.138C260.655 32.138 260.406 32.2003 260.222 32.325C260.046 32.4423 259.958 32.611 259.958 32.831C259.958 33.051 260.057 33.216 260.255 33.326C260.453 33.4287 260.758 33.5277 261.168 33.623C261.579 33.7257 261.916 33.832 262.18 33.942C262.444 34.0447 262.672 34.217 262.862 34.459C263.053 34.6937 263.148 35.0163 263.148 35.427C263.148 35.9183 262.961 36.318 262.587 36.626C262.213 36.934 261.722 37.088 261.113 37.088ZM266.749 31.456H267.684V32.501C267.83 32.1563 268.043 31.8813 268.322 31.676C268.608 31.4707 268.952 31.368 269.356 31.368C269.81 31.368 270.199 31.4707 270.522 31.676C270.852 31.8813 271.064 32.1673 271.16 32.534C271.314 32.1893 271.548 31.9107 271.864 31.698C272.186 31.478 272.549 31.368 272.953 31.368C273.547 31.368 274.016 31.5403 274.361 31.885C274.713 32.2297 274.889 32.6953 274.889 33.282V37H273.954V33.469C273.954 33.0803 273.847 32.7723 273.635 32.545C273.422 32.3103 273.125 32.193 272.744 32.193C272.282 32.193 271.922 32.38 271.666 32.754C271.409 33.128 271.281 33.6157 271.281 34.217V37H270.346V33.469C270.346 33.0803 270.239 32.7723 270.027 32.545C269.821 32.3103 269.528 32.193 269.147 32.193C268.685 32.193 268.325 32.38 268.069 32.754C267.812 33.128 267.684 33.6157 267.684 34.217V37H266.749V31.456ZM278.783 37.088C278.24 37.088 277.752 36.967 277.32 36.725C276.894 36.4757 276.561 36.1347 276.319 35.702C276.084 35.2693 275.967 34.778 275.967 34.228C275.967 33.678 276.084 33.1867 276.319 32.754C276.561 32.3213 276.894 31.984 277.32 31.742C277.752 31.4927 278.24 31.368 278.783 31.368C279.325 31.368 279.809 31.4927 280.235 31.742C280.667 31.984 281.005 32.3213 281.247 32.754C281.489 33.1867 281.61 33.678 281.61 34.228C281.61 34.778 281.489 35.2693 281.247 35.702C281.005 36.1347 280.667 36.4757 280.235 36.725C279.809 36.967 279.325 37.088 278.783 37.088ZM276.924 34.228C276.924 34.822 277.096 35.3097 277.441 35.691C277.785 36.065 278.233 36.252 278.783 36.252C279.333 36.252 279.78 36.065 280.125 35.691C280.469 35.3097 280.642 34.822 280.642 34.228C280.642 33.634 280.469 33.15 280.125 32.776C279.78 32.3947 279.333 32.204 278.783 32.204C278.233 32.204 277.785 32.3947 277.441 32.776C277.096 33.15 276.924 33.634 276.924 34.228ZM282.686 31.456H283.621V32.501C283.819 32.1563 284.083 31.8813 284.413 31.676C284.743 31.4707 285.114 31.368 285.524 31.368C286.104 31.368 286.577 31.5477 286.943 31.907C287.317 32.2663 287.504 32.7393 287.504 33.326V37H286.569V33.502C286.569 33.1207 286.456 32.8127 286.228 32.578C286.001 32.336 285.697 32.215 285.315 32.215C284.795 32.215 284.38 32.4277 284.072 32.853C283.772 33.271 283.621 33.843 283.621 34.569V37H282.686V31.456ZM293.758 36.857C293.201 36.857 292.724 36.7397 292.328 36.505C291.932 36.2703 291.632 35.9477 291.426 35.537C291.221 35.119 291.118 34.646 291.118 34.118C291.118 33.59 291.221 33.117 291.426 32.699C291.632 32.281 291.929 31.9547 292.317 31.72C292.713 31.4853 293.186 31.368 293.736 31.368C294.103 31.368 294.451 31.4487 294.781 31.61C295.111 31.764 295.361 31.962 295.529 32.204V31.456H296.453V36.736C296.453 37.198 296.343 37.605 296.123 37.957C295.911 38.3163 295.606 38.595 295.21 38.793C294.822 38.991 294.374 39.09 293.868 39.09C293.223 39.09 292.673 38.9323 292.218 38.617C291.764 38.309 291.496 37.9057 291.415 37.407L292.317 37.253C292.347 37.561 292.504 37.8103 292.79 38.001C293.084 38.199 293.443 38.298 293.868 38.298C294.36 38.298 294.759 38.1623 295.067 37.891C295.375 37.6197 295.529 37.2677 295.529 36.835V36.065C295.405 36.2997 295.177 36.4903 294.847 36.637C294.517 36.7837 294.154 36.857 293.758 36.857ZM292.075 34.118C292.075 34.6973 292.237 35.1593 292.559 35.504C292.882 35.8487 293.311 36.021 293.846 36.021C294.382 36.021 294.807 35.8487 295.122 35.504C295.445 35.1593 295.606 34.6973 295.606 34.118C295.606 33.5387 295.445 33.0767 295.122 32.732C294.807 32.38 294.382 32.204 293.846 32.204C293.304 32.204 292.871 32.38 292.548 32.732C292.233 33.0767 292.075 33.5387 292.075 34.118ZM301.27 33.392C301.27 33.0107 301.145 32.71 300.896 32.49C300.654 32.2627 300.327 32.149 299.917 32.149C299.535 32.149 299.22 32.2553 298.971 32.468C298.721 32.6807 298.578 32.974 298.542 33.348L297.673 33.183C297.753 32.633 297.999 32.193 298.41 31.863C298.828 31.533 299.33 31.368 299.917 31.368C300.599 31.368 301.149 31.555 301.567 31.929C301.985 32.303 302.194 32.809 302.194 33.447V37H301.27V36.054C301.108 36.3693 300.859 36.6223 300.522 36.813C300.192 36.9963 299.825 37.088 299.422 37.088C298.872 37.088 298.421 36.9377 298.069 36.637C297.724 36.329 297.552 35.933 297.552 35.449C297.552 34.921 297.768 34.5067 298.201 34.206C298.641 33.9053 299.304 33.711 300.192 33.623L301.27 33.502V33.392ZM298.487 35.438C298.487 35.6947 298.586 35.9073 298.784 36.076C298.989 36.2373 299.249 36.318 299.565 36.318C300.1 36.318 300.518 36.153 300.819 35.823C301.119 35.493 301.27 35.0493 301.27 34.492V34.228L300.192 34.349C299.634 34.4077 299.209 34.5323 298.916 34.723C298.63 34.9063 298.487 35.1447 298.487 35.438ZM306.839 32.369C306.634 32.281 306.395 32.237 306.124 32.237C305.655 32.237 305.27 32.4643 304.969 32.919C304.676 33.3663 304.529 34.0227 304.529 34.888V37H303.594V31.456H304.529V32.578C304.69 32.226 304.932 31.9363 305.255 31.709C305.578 31.4817 305.911 31.368 306.256 31.368C306.498 31.368 306.711 31.401 306.894 31.467L306.839 32.369ZM309.405 37.088C308.789 37.088 308.283 36.9303 307.887 36.615C307.498 36.2997 307.234 35.9183 307.095 35.471L307.898 35.119C308.147 35.9037 308.649 36.296 309.405 36.296C309.735 36.296 310.002 36.2153 310.208 36.054C310.42 35.8853 310.527 35.6837 310.527 35.449C310.527 35.251 310.464 35.0897 310.34 34.965C310.222 34.8403 310.076 34.745 309.9 34.679C309.724 34.613 309.478 34.5397 309.163 34.459C308.767 34.3563 308.448 34.2573 308.206 34.162C307.971 34.0593 307.766 33.9053 307.59 33.7C307.421 33.4873 307.337 33.2013 307.337 32.842C307.337 32.402 307.513 32.0463 307.865 31.775C308.217 31.5037 308.69 31.368 309.284 31.368C309.775 31.368 310.211 31.4963 310.593 31.753C310.981 32.0023 311.231 32.3287 311.341 32.732L310.56 33.073C310.486 32.7943 310.325 32.5707 310.076 32.402C309.834 32.226 309.562 32.138 309.262 32.138C308.946 32.138 308.697 32.2003 308.514 32.325C308.338 32.4423 308.25 32.611 308.25 32.831C308.25 33.051 308.349 33.216 308.547 33.326C308.745 33.4287 309.049 33.5277 309.46 33.623C309.87 33.7257 310.208 33.832 310.472 33.942C310.736 34.0447 310.963 34.217 311.154 34.459C311.344 34.6937 311.44 35.0163 311.44 35.427C311.44 35.9183 311.253 36.318 310.879 36.626C310.505 36.934 310.013 37.088 309.405 37.088ZM52 50.77H63V39.77H52V50.77ZM62.88 50.77H73.88V39.77H62.88V50.77ZM75.641 48.856V50H74.475V48.856H75.641Z" fill="#B4BECB"/>
</g>
<mask id="path-5-inside-1_1_386" fill="white">
<path fillRule="evenodd" clipRule="evenodd" d="M20 87C25.5228 87 30 82.5228 30 77C30 71.4772 25.5228 67 20 67C14.4772 67 10 71.4772 10 77C10 79.7911 11.1435 82.3152 12.9876 84.1292C11.2687 84.5776 10 86.1406 10 88C10 90.2091 11.7909 92 14 92C16.2091 92 18 90.2091 18 88C18 87.5664 17.931 87.149 17.8034 86.758C18.5103 86.9164 19.2454 87 20 87Z"/>
</mask>
<path fillRule="evenodd" clipRule="evenodd" d="M20 87C25.5228 87 30 82.5228 30 77C30 71.4772 25.5228 67 20 67C14.4772 67 10 71.4772 10 77C10 79.7911 11.1435 82.3152 12.9876 84.1292C11.2687 84.5776 10 86.1406 10 88C10 90.2091 11.7909 92 14 92C16.2091 92 18 90.2091 18 88C18 87.5664 17.931 87.149 17.8034 86.758C18.5103 86.9164 19.2454 87 20 87Z" fill="#060809"/>
<path d="M12.9876 84.1292L13.24 85.0969L14.9451 84.6521L13.6889 83.4163L12.9876 84.1292ZM17.8034 86.758L18.0221 85.7822L16.3077 85.3979L16.8528 87.0682L17.8034 86.758ZM29 77C29 81.9706 24.9706 86 20 86V88C26.0751 88 31 83.0751 31 77H29ZM20 68C24.9706 68 29 72.0294 29 77H31C31 70.9249 26.0751 66 20 66V68ZM11 77C11 72.0294 15.0294 68 20 68V66C13.9249 66 9 70.9249 9 77H11ZM13.6889 83.4163C12.028 81.7826 11 79.5122 11 77H9C9 80.07 10.259 82.8478 12.2863 84.8421L13.6889 83.4163ZM11 88C11 86.6069 11.9505 85.4332 13.24 85.0969L12.7352 83.1616C10.5868 83.722 9 85.6744 9 88H11ZM14 91C12.3431 91 11 89.6569 11 88H9C9 90.7614 11.2386 93 14 93V91ZM17 88C17 89.6569 15.6569 91 14 91V93C16.7614 93 19 90.7614 19 88H17ZM16.8528 87.0682C16.9481 87.3603 17 87.6731 17 88H19C19 87.4598 18.914 86.9377 18.7541 86.4478L16.8528 87.0682ZM20 86C19.3194 86 18.6576 85.9246 18.0221 85.7822L17.5847 87.7338C18.3629 87.9082 19.1713 88 20 88V86Z" fill="#FFC41B" mask="url(#path-5-inside-1_1_386)"/>
<defs>
<filter id="filter0_d_1_386" x="0" y="0" width="352" height="75" filterUnits="userSpaceOnUse" color-interpolation-filters="sRGB">
<feFlood flood-opacity="0" result="BackgroundImageFix"/>
<feColorMatrix in="SourceAlpha" type="matrix" values="0 0 0 0 0 0 0 0 0 0 0 0 0 0 0 0 0 0 127 0" result="hardAlpha"/>
<feOffset dy="4"/>
<feGaussianBlur stdDeviation="2"/>
<feComposite in2="hardAlpha" operator="out"/>
<feColorMatrix type="matrix" values="0 0 0 0 0 0 0 0 0 0 0 0 0 0 0 0 0 0 0.25 0"/>
<feBlend mode="normal" in2="BackgroundImageFix" result="effect1_dropShadow_1_386"/>
<feBlend mode="normal" in="SourceGraphic" in2="effect1_dropShadow_1_386" result="shape"/>
</filter>
</defs>
</svg>
