<svg width="288" height="55" viewBox="0 0 288 55" fill="none" xmlns="http://www.w3.org/2000/svg">
<rect x="0.418605" y="0.418605" width="287.163" height="54.1628" rx="19.8114" fill="#060809"/>
<rect x="0.418605" y="0.418605" width="287.163" height="54.1628" rx="19.8114" stroke="#FA4354" stroke-width="0.837209"/>
<path opacity="0.12" d="M14.5348 26.5232C14.5348 24.1788 14.5348 23.0066 14.991 22.1112C15.3924 21.3235 16.0328 20.6831 16.8204 20.2818C17.7159 19.8256 18.8881 19.8256 21.2325 19.8256H23.186C25.5304 19.8256 26.7026 19.8256 27.598 20.2818C28.3857 20.6831 29.026 21.3235 29.4274 22.1112C29.8836 23.0066 29.8836 24.1788 29.8836 26.5232V33.0031C29.8836 33.6286 29.8836 33.9413 29.8105 34.1462C29.6009 34.7331 28.9926 35.0775 28.3815 34.9553C28.1682 34.9126 27.9 34.7517 27.3637 34.4299C27.0432 34.2376 26.883 34.1414 26.7176 34.061C26.2585 33.8378 25.7625 33.7004 25.254 33.6556C25.0708 33.6395 24.884 33.6395 24.5102 33.6395H21.2325C18.8881 33.6395 17.7159 33.6395 16.8204 33.1833C16.0328 32.7819 15.3924 32.1415 14.991 31.3539C14.5348 30.4584 14.5348 29.2862 14.5348 26.9418V26.5232Z" fill="#FA4354"/>
<path fill-rule="evenodd" clip-rule="evenodd" d="M21.2043 19.1976L21.2324 19.1976H23.1859L23.214 19.1976C24.3624 19.1976 25.2627 19.1976 25.9864 19.2567C26.7233 19.317 27.332 19.4416 27.883 19.7223C28.7888 20.1839 29.5252 20.9203 29.9868 21.8261C30.2675 22.3771 30.3921 22.9858 30.4523 23.7227C30.5115 24.4463 30.5115 25.3467 30.5114 26.4951V26.5232V33.0031V33.0196C30.5115 33.3183 30.5115 33.5661 30.5015 33.7639C30.4916 33.962 30.47 34.166 30.4017 34.3573C30.0873 35.2377 29.1749 35.7543 28.2583 35.5709C28.0591 35.5311 27.873 35.4446 27.698 35.3512C27.5233 35.2579 27.3108 35.1304 27.0546 34.9767L27.0546 34.9767L27.0406 34.9683C26.711 34.7705 26.5778 34.6913 26.4429 34.6257C26.0527 34.4359 25.6311 34.3192 25.1989 34.2811C25.0495 34.268 24.8945 34.2674 24.5101 34.2674H21.2324H21.2043C20.0559 34.2674 19.1555 34.2674 18.4319 34.2083C17.695 34.1481 17.0863 34.0235 16.5353 33.7427C15.6295 33.2812 14.893 32.5447 14.4315 31.6389C14.1507 31.0879 14.0261 30.4792 13.9659 29.7423C13.9068 29.0187 13.9068 28.1183 13.9068 26.9699V26.9699L13.9068 26.9418V26.5232L13.9068 26.4951V26.4951C13.9068 25.3467 13.9068 24.4463 13.9659 23.7227C14.0261 22.9858 14.1507 22.3771 14.4315 21.8261C14.893 20.9203 15.6295 20.1839 16.5353 19.7223C17.0863 19.4416 17.695 19.317 18.4319 19.2567C19.1555 19.1976 20.0559 19.1976 21.2043 19.1976H21.2043ZM18.5341 20.5084C17.8749 20.5623 17.4498 20.6658 17.1054 20.8413C16.4359 21.1824 15.8916 21.7267 15.5504 22.3962C15.3749 22.7407 15.2714 23.1658 15.2176 23.825C15.1631 24.4915 15.1626 25.3406 15.1626 26.5232V26.9418C15.1626 28.1244 15.1631 28.9735 15.2176 29.6401C15.2714 30.2993 15.3749 30.7244 15.5504 31.0688C15.8916 31.7383 16.4359 32.2826 17.1054 32.6238C17.4498 32.7993 17.8749 32.9028 18.5341 32.9566C19.2007 33.0111 20.0498 33.0116 21.2324 33.0116H24.5101H24.54H24.54H24.5401C24.8854 33.0116 25.0981 33.0116 25.309 33.0301C25.8938 33.0816 26.4642 33.2396 26.9921 33.4963C27.1825 33.5889 27.3649 33.6983 27.661 33.876L27.661 33.876L27.661 33.876L27.6867 33.8914C27.9605 34.0558 28.1458 34.1667 28.2893 34.2433C28.4358 34.3215 28.4905 34.3367 28.5046 34.3395C28.8101 34.4006 29.1143 34.2284 29.2191 33.935C29.2239 33.9214 29.2389 33.8667 29.2473 33.7009C29.2554 33.5384 29.2556 33.3225 29.2556 33.0031V26.5232C29.2556 25.3407 29.2551 24.4915 29.2007 23.825C29.1468 23.1658 29.0433 22.7407 28.8678 22.3962C28.5267 21.7267 27.9824 21.1824 27.3129 20.8413C26.9684 20.6658 26.5433 20.5623 25.8841 20.5084C25.2176 20.4539 24.3684 20.4534 23.1859 20.4534H21.2324C20.0498 20.4534 19.2007 20.4539 18.5341 20.5084ZM17.7441 24.4302C17.7441 24.0834 18.0253 23.8023 18.3721 23.8023H24.5116C24.8584 23.8023 25.1395 24.0834 25.1395 24.4302C25.1395 24.777 24.8584 25.0581 24.5116 25.0581H18.3721C18.0253 25.0581 17.7441 24.777 17.7441 24.4302ZM18.3721 26.872C18.0253 26.872 17.7441 27.1531 17.7441 27.4999C17.7441 27.8467 18.0253 28.1278 18.3721 28.1278H21.4418C21.7886 28.1278 22.0697 27.8467 22.0697 27.4999C22.0697 27.1531 21.7886 26.872 21.4418 26.872H18.3721Z" fill="#FA4354"/>
<path d="M44.1353 19.0737C43.724 19.0737 43.3433 18.9908 42.9934 18.825C42.6496 18.6593 42.361 18.426 42.1277 18.1251C41.9005 17.8243 41.7532 17.4805 41.6856 17.0937L42.4776 16.8358C42.539 17.284 42.7263 17.6462 43.0394 17.9225C43.3525 18.1927 43.724 18.3277 44.1537 18.3277C44.5958 18.3277 44.9488 18.2326 45.2128 18.0422C45.4768 17.8458 45.6088 17.5879 45.6088 17.2687C45.6088 17.0169 45.5351 16.8143 45.3878 16.6608C45.2466 16.5012 45.0685 16.3784 44.8536 16.2925C44.6388 16.2004 44.3441 16.0991 43.9696 15.9886C43.5214 15.8535 43.1653 15.7276 42.9013 15.611C42.6373 15.4943 42.4101 15.3193 42.2198 15.086C42.0356 14.8527 41.9435 14.5458 41.9435 14.1651C41.9435 13.8336 42.0356 13.542 42.2198 13.2902C42.404 13.0324 42.6618 12.8328 42.9934 12.6916C43.3249 12.5504 43.6994 12.4798 44.1169 12.4798C44.7063 12.4798 45.2097 12.6272 45.6272 12.9219C46.0447 13.2104 46.2934 13.5941 46.3732 14.073L45.6088 14.3677C45.5413 14.0178 45.3755 13.7415 45.1115 13.5389C44.8536 13.3301 44.5221 13.2258 44.1169 13.2258C43.7056 13.2258 43.3802 13.3117 43.1407 13.4836C42.9074 13.6494 42.7908 13.8766 42.7908 14.1651C42.7908 14.3616 42.8522 14.5243 42.975 14.6532C43.1039 14.776 43.2635 14.8742 43.4538 14.9479C43.6503 15.0216 43.9174 15.1045 44.255 15.1966C44.7216 15.3255 45.1023 15.4544 45.397 15.5833C45.6917 15.7061 45.9434 15.9026 46.1522 16.1727C46.367 16.4429 46.4745 16.8051 46.4745 17.2594C46.4745 17.6217 46.3763 17.9409 46.1798 18.2172C45.9895 18.4873 45.7163 18.6992 45.3602 18.8527C45.0102 19 44.6019 19.0737 44.1353 19.0737ZM50.2137 15.9793C50.2137 15.6601 50.1094 15.4084 49.9006 15.2242C49.698 15.0339 49.4248 14.9387 49.081 14.9387C48.7617 14.9387 48.4977 15.0277 48.289 15.2058C48.0802 15.3838 47.9605 15.6294 47.9298 15.9425L47.2023 15.8044C47.2698 15.3439 47.4755 14.9755 47.8193 14.6993C48.1693 14.423 48.5898 14.2848 49.081 14.2848C49.652 14.2848 50.1124 14.4414 50.4624 14.7545C50.8123 15.0676 50.9873 15.4913 50.9873 16.0254V19H50.2137V18.208C50.0787 18.472 49.8699 18.6838 49.5875 18.8434C49.3112 18.9969 49.0042 19.0737 48.6666 19.0737C48.2061 19.0737 47.8285 18.9478 47.5338 18.6961C47.2453 18.4382 47.101 18.1067 47.101 17.7015C47.101 17.2594 47.2821 16.9126 47.6443 16.6608C48.0127 16.4091 48.5683 16.2464 49.3112 16.1727L50.2137 16.0714V15.9793ZM47.8838 17.6923C47.8838 17.9072 47.9667 18.0852 48.1324 18.2264C48.3043 18.3615 48.5223 18.429 48.7863 18.429C49.2345 18.429 49.5844 18.2909 49.8361 18.0146C50.0879 17.7383 50.2137 17.3669 50.2137 16.9003V16.6793L49.3112 16.7806C48.8446 16.8297 48.4885 16.934 48.2429 17.0937C48.0035 17.2472 47.8838 17.4467 47.8838 17.6923ZM52.1596 12.4798H52.9424V19H52.1596V12.4798ZM58.1433 19H57.3605V18.1251C57.1948 18.4137 56.9737 18.6439 56.6975 18.8158C56.4212 18.9877 56.1111 19.0737 55.7673 19.0737C55.2823 19.0737 54.8832 18.9233 54.5701 18.6224C54.2631 18.3216 54.1096 17.9256 54.1096 17.4344V14.3585H54.8924V17.2871C54.8924 17.6063 54.9876 17.8673 55.1779 18.0699C55.3682 18.2663 55.623 18.3646 55.9423 18.3646C56.3782 18.3646 56.722 18.1896 56.9737 17.8396C57.2316 17.4835 57.3605 17.0016 57.3605 16.3938V14.3585H58.1433V19ZM61.7834 18.9632C61.5808 19.0368 61.3383 19.0737 61.0559 19.0737C60.6384 19.0737 60.3038 18.954 60.0521 18.7145C59.8065 18.4689 59.6837 18.1006 59.6837 17.6094V15.0492H58.818V14.3585H59.6837V12.9495H60.4665V14.3585H61.7097V15.0492H60.4665V17.637C60.4665 17.8765 60.5279 18.0576 60.6507 18.1804C60.7735 18.3032 60.9392 18.3646 61.148 18.3646C61.3751 18.3646 61.5685 18.3247 61.7282 18.2448L61.7834 18.9632ZM64.3121 18.2356C64.4594 18.2847 64.6191 18.3093 64.791 18.3093C65.1102 18.3093 65.3435 18.2233 65.4909 18.0514C65.6382 17.8795 65.7119 17.5879 65.7119 17.1766V12.5535H66.5315V17.1489C66.5315 17.7874 66.3842 18.2663 66.0895 18.5856C65.7948 18.8987 65.3927 19.0553 64.8831 19.0553C64.6989 19.0553 64.5086 19.0307 64.3121 18.9816V18.2356ZM67.4525 16.6793C67.4525 16.2372 67.5415 15.8351 67.7196 15.4728C67.9038 15.1045 68.1647 14.8159 68.5024 14.6072C68.8462 14.3923 69.2453 14.2848 69.6996 14.2848C70.1416 14.2848 70.5315 14.3831 70.8692 14.5795C71.2068 14.7699 71.4647 15.0339 71.6427 15.3715C71.8269 15.7031 71.919 16.0684 71.919 16.4674C71.919 16.5964 71.9129 16.71 71.9006 16.8082H68.2353C68.2599 17.2871 68.4072 17.6708 68.6774 17.9593C68.9475 18.2418 69.3005 18.383 69.7364 18.383C70.0864 18.383 70.3811 18.3032 70.6205 18.1435C70.86 17.9839 71.0134 17.7598 71.081 17.4713L71.8177 17.6462C71.7011 18.0944 71.4586 18.4444 71.0902 18.6961C70.7218 18.9478 70.2706 19.0737 69.7364 19.0737C69.2821 19.0737 68.88 18.9693 68.53 18.7606C68.1862 18.5457 67.9191 18.2571 67.7288 17.8949C67.5446 17.5265 67.4525 17.1213 67.4525 16.6793ZM71.0902 16.1727C71.0534 15.8044 70.9121 15.5066 70.6666 15.2794C70.421 15.0523 70.0987 14.9387 69.6996 14.9387C69.3374 14.9387 69.0304 15.0492 68.7787 15.2702C68.5269 15.4851 68.3612 15.786 68.2814 16.1727H71.0902ZM74.3469 19.0737C73.8312 19.0737 73.4076 18.9417 73.0761 18.6777C72.7507 18.4137 72.5296 18.0944 72.413 17.7199L73.0853 17.4252C73.294 18.0821 73.7146 18.4106 74.3469 18.4106C74.6232 18.4106 74.8473 18.3431 75.0192 18.208C75.1973 18.0668 75.2863 17.898 75.2863 17.7015C75.2863 17.5357 75.2341 17.4007 75.1297 17.2963C75.0315 17.1919 74.9087 17.1121 74.7614 17.0568C74.614 17.0016 74.4083 16.9402 74.1443 16.8727C73.8128 16.7867 73.5457 16.7038 73.3431 16.624C73.1467 16.538 72.9748 16.4091 72.8274 16.2372C72.6862 16.0592 72.6156 15.8197 72.6156 15.5189C72.6156 15.1505 72.7629 14.8527 73.0576 14.6256C73.3523 14.3984 73.7483 14.2848 74.2456 14.2848C74.657 14.2848 75.0223 14.3923 75.3416 14.6072C75.6669 14.8159 75.8757 15.0891 75.9678 15.4268L75.3139 15.7123C75.2525 15.479 75.1175 15.2917 74.9087 15.1505C74.7061 15.0032 74.4789 14.9295 74.2272 14.9295C73.9632 14.9295 73.7545 14.9817 73.601 15.086C73.4536 15.1843 73.38 15.3255 73.38 15.5097C73.38 15.6939 73.4629 15.832 73.6286 15.9241C73.7944 16.01 74.0492 16.0929 74.393 16.1727C74.7368 16.2587 75.0192 16.3477 75.2403 16.4398C75.4613 16.5258 75.6516 16.67 75.8112 16.8727C75.9709 17.0691 76.0507 17.3393 76.0507 17.6831C76.0507 18.0944 75.8941 18.429 75.581 18.6869C75.2679 18.9447 74.8565 19.0737 74.3469 19.0737ZM78.5094 19.0737C77.9937 19.0737 77.57 18.9417 77.2385 18.6777C76.9131 18.4137 76.6921 18.0944 76.5754 17.7199L77.2477 17.4252C77.4565 18.0821 77.877 18.4106 78.5094 18.4106C78.7857 18.4106 79.0098 18.3431 79.1817 18.208C79.3597 18.0668 79.4487 17.898 79.4487 17.7015C79.4487 17.5357 79.3965 17.4007 79.2922 17.2963C79.1939 17.1919 79.0712 17.1121 78.9238 17.0568C78.7765 17.0016 78.5708 16.9402 78.3068 16.8727C77.9752 16.7867 77.7082 16.7038 77.5056 16.624C77.3091 16.538 77.1372 16.4091 76.9898 16.2372C76.8486 16.0592 76.778 15.8197 76.778 15.5189C76.778 15.1505 76.9254 14.8527 77.2201 14.6256C77.5148 14.3984 77.9108 14.2848 78.4081 14.2848C78.8194 14.2848 79.1847 14.3923 79.504 14.6072C79.8294 14.8159 80.0381 15.0891 80.1302 15.4268L79.4764 15.7123C79.415 15.479 79.2799 15.2917 79.0712 15.1505C78.8685 15.0032 78.6414 14.9295 78.3897 14.9295C78.1257 14.9295 77.9169 14.9817 77.7634 15.086C77.6161 15.1843 77.5424 15.3255 77.5424 15.5097C77.5424 15.6939 77.6253 15.832 77.7911 15.9241C77.9568 16.01 78.2116 16.0929 78.5554 16.1727C78.8992 16.2587 79.1817 16.3477 79.4027 16.4398C79.6237 16.5258 79.814 16.67 79.9737 16.8727C80.1333 17.0691 80.2131 17.3393 80.2131 17.6831C80.2131 18.0944 80.0565 18.429 79.7434 18.6869C79.4303 18.9447 79.019 19.0737 78.5094 19.0737ZM81.1062 14.3585H81.889V19H81.1062V14.3585ZM81.9535 12.4798V13.4744H81.051V12.4798H81.9535ZM85.0915 19.0737C84.6372 19.0737 84.2351 18.9754 83.8851 18.779C83.5352 18.5764 83.265 18.294 83.0747 17.9317C82.8844 17.5695 82.7892 17.152 82.7892 16.6793C82.7892 16.2065 82.8844 15.789 83.0747 15.4268C83.265 15.0646 83.5352 14.7852 83.8851 14.5887C84.2351 14.3861 84.6372 14.2848 85.0915 14.2848C85.6318 14.2848 86.0831 14.423 86.4453 14.6993C86.8137 14.9694 87.0408 15.3347 87.1268 15.7952L86.3532 15.9517C86.3041 15.6693 86.166 15.4391 85.9388 15.261C85.7116 15.0768 85.4353 14.9847 85.11 14.9847C84.6556 14.9847 84.2903 15.1413 84.014 15.4544C83.7439 15.7614 83.6088 16.1697 83.6088 16.6793C83.6088 17.1888 83.7439 17.6002 84.014 17.9133C84.2903 18.2203 84.6556 18.3738 85.11 18.3738C85.4415 18.3738 85.7178 18.2878 85.9388 18.1159C86.166 17.944 86.3102 17.7046 86.3716 17.3976L87.136 17.5541C87.0378 18.033 86.8045 18.4075 86.4361 18.6777C86.0739 18.9417 85.6257 19.0737 85.0915 19.0737ZM90.8742 15.9793C90.8742 15.6601 90.7699 15.4084 90.5611 15.2242C90.3585 15.0339 90.0853 14.9387 89.7415 14.9387C89.4222 14.9387 89.1582 15.0277 88.9495 15.2058C88.7407 15.3838 88.621 15.6294 88.5903 15.9425L87.8628 15.8044C87.9303 15.3439 88.136 14.9755 88.4798 14.6993C88.8298 14.423 89.2503 14.2848 89.7415 14.2848C90.3125 14.2848 90.7729 14.4414 91.1229 14.7545C91.4728 15.0676 91.6478 15.4913 91.6478 16.0254V19H90.8742V18.208C90.7392 18.472 90.5304 18.6838 90.248 18.8434C89.9717 18.9969 89.6647 19.0737 89.3271 19.0737C88.8666 19.0737 88.489 18.9478 88.1943 18.6961C87.9058 18.4382 87.7615 18.1067 87.7615 17.7015C87.7615 17.2594 87.9426 16.9126 88.3048 16.6608C88.6732 16.4091 89.2288 16.2464 89.9717 16.1727L90.8742 16.0714V15.9793ZM88.5443 17.6923C88.5443 17.9072 88.6272 18.0852 88.7929 18.2264C88.9648 18.3615 89.1828 18.429 89.4468 18.429C89.895 18.429 90.2449 18.2909 90.4966 18.0146C90.7484 17.7383 90.8742 17.3669 90.8742 16.9003V16.6793L89.9717 16.7806C89.5051 16.8297 89.149 16.934 88.9034 17.0937C88.664 17.2472 88.5443 17.4467 88.5443 17.6923ZM92.9767 18.0422H94.0265L92.9951 19.9762H92.4425L92.9767 18.0422ZM97.2058 14.3585H97.9886V15.2334C98.1114 14.9448 98.2895 14.7146 98.5228 14.5427C98.7622 14.3708 99.0508 14.2848 99.3884 14.2848C99.7691 14.2848 100.094 14.3708 100.365 14.5427C100.641 14.7146 100.819 14.954 100.899 15.261C101.028 14.9725 101.224 14.7392 101.488 14.5611C101.758 14.3769 102.062 14.2848 102.4 14.2848C102.897 14.2848 103.29 14.4291 103.579 14.7177C103.873 15.0062 104.021 15.3961 104.021 15.8873V19H103.238V16.0438C103.238 15.7184 103.149 15.4606 102.971 15.2702C102.793 15.0738 102.544 14.9755 102.225 14.9755C101.838 14.9755 101.537 15.1321 101.322 15.4452C101.108 15.7583 101 16.1666 101 16.67V19H100.217V16.0438C100.217 15.7184 100.128 15.4606 99.9502 15.2702C99.7783 15.0738 99.5327 14.9755 99.2135 14.9755C98.8267 14.9755 98.5258 15.1321 98.311 15.4452C98.0961 15.7583 97.9886 16.1666 97.9886 16.67V19H97.2058V14.3585ZM107.281 19.0737C106.827 19.0737 106.418 18.9724 106.056 18.7698C105.7 18.561 105.421 18.2755 105.218 17.9133C105.022 17.5511 104.923 17.1397 104.923 16.6793C104.923 16.2188 105.022 15.8074 105.218 15.4452C105.421 15.083 105.7 14.8006 106.056 14.598C106.418 14.3892 106.827 14.2848 107.281 14.2848C107.735 14.2848 108.141 14.3892 108.497 14.598C108.859 14.8006 109.141 15.083 109.344 15.4452C109.546 15.8074 109.648 16.2188 109.648 16.6793C109.648 17.1397 109.546 17.5511 109.344 17.9133C109.141 18.2755 108.859 18.561 108.497 18.7698C108.141 18.9724 107.735 19.0737 107.281 19.0737ZM105.725 16.6793C105.725 17.1766 105.869 17.5848 106.157 17.9041C106.446 18.2172 106.821 18.3738 107.281 18.3738C107.741 18.3738 108.116 18.2172 108.405 17.9041C108.693 17.5848 108.837 17.1766 108.837 16.6793C108.837 16.182 108.693 15.7767 108.405 15.4636C108.116 15.1444 107.741 14.9847 107.281 14.9847C106.821 14.9847 106.446 15.1444 106.157 15.4636C105.869 15.7767 105.725 16.182 105.725 16.6793ZM110.549 14.3585H111.332V15.2334C111.498 14.9448 111.719 14.7146 111.995 14.5427C112.271 14.3708 112.581 14.2848 112.925 14.2848C113.41 14.2848 113.806 14.4353 114.113 14.7361C114.426 15.0369 114.583 15.4329 114.583 15.9241V19H113.8V16.0714C113.8 15.7522 113.705 15.4943 113.514 15.2979C113.324 15.0953 113.069 14.994 112.75 14.994C112.314 14.994 111.967 15.172 111.709 15.5281C111.458 15.878 111.332 16.3569 111.332 16.9647V19H110.549V14.3585ZM120.74 15.9793C120.74 15.6601 120.635 15.4084 120.427 15.2242C120.224 15.0339 119.951 14.9387 119.607 14.9387C119.288 14.9387 119.024 15.0277 118.815 15.2058C118.606 15.3838 118.487 15.6294 118.456 15.9425L117.728 15.8044C117.796 15.3439 118.002 14.9755 118.345 14.6993C118.695 14.423 119.116 14.2848 119.607 14.2848C120.178 14.2848 120.638 14.4414 120.988 14.7545C121.338 15.0676 121.513 15.4913 121.513 16.0254V19H120.74V18.208C120.605 18.472 120.396 18.6838 120.114 18.8434C119.837 18.9969 119.53 19.0737 119.193 19.0737C118.732 19.0737 118.355 18.9478 118.06 18.6961C117.771 18.4382 117.627 18.1067 117.627 17.7015C117.627 17.2594 117.808 16.9126 118.17 16.6608C118.539 16.4091 119.094 16.2464 119.837 16.1727L120.74 16.0714V15.9793ZM118.41 17.6923C118.41 17.9072 118.493 18.0852 118.658 18.2264C118.83 18.3615 119.048 18.429 119.312 18.429C119.76 18.429 120.11 18.2909 120.362 18.0146C120.614 17.7383 120.74 17.3669 120.74 16.9003V16.6793L119.837 16.7806C119.371 16.8297 119.015 16.934 118.769 17.0937C118.53 17.2472 118.41 17.4467 118.41 17.6923ZM122.686 12.4798H123.468V19H122.686V12.4798ZM126.929 19.0737C126.591 19.0737 126.281 19.0031 125.999 18.8619C125.716 18.7207 125.523 18.5426 125.418 18.3277V19H124.636V12.4798H125.418V15.0216C125.566 14.8006 125.778 14.6225 126.054 14.4874C126.336 14.3524 126.631 14.2848 126.938 14.2848C127.405 14.2848 127.804 14.3892 128.135 14.598C128.473 14.8006 128.728 15.083 128.9 15.4452C129.078 15.8074 129.167 16.2188 129.167 16.6793C129.167 17.1397 129.078 17.5511 128.9 17.9133C128.728 18.2755 128.473 18.561 128.135 18.7698C127.798 18.9724 127.395 19.0737 126.929 19.0737ZM125.345 16.6793C125.345 17.1888 125.483 17.6002 125.759 17.9133C126.035 18.2203 126.401 18.3738 126.855 18.3738C127.309 18.3738 127.675 18.2203 127.951 17.9133C128.227 17.6002 128.365 17.1888 128.365 16.6793C128.365 16.1697 128.227 15.7614 127.951 15.4544C127.675 15.1413 127.309 14.9847 126.855 14.9847C126.401 14.9847 126.035 15.1413 125.759 15.4544C125.483 15.7614 125.345 16.1697 125.345 16.6793ZM134.1 19H133.317V18.1251C133.151 18.4137 132.93 18.6439 132.654 18.8158C132.378 18.9877 132.068 19.0737 131.724 19.0737C131.239 19.0737 130.84 18.9233 130.527 18.6224C130.22 18.3216 130.066 17.9256 130.066 17.4344V14.3585H130.849V17.2871C130.849 17.6063 130.944 17.8673 131.134 18.0699C131.325 18.2663 131.58 18.3646 131.899 18.3646C132.335 18.3646 132.679 18.1896 132.93 17.8396C133.188 17.4835 133.317 17.0016 133.317 16.3938V14.3585H134.1V19ZM135.272 14.3585H136.055V15.2334C136.177 14.9448 136.355 14.7146 136.589 14.5427C136.828 14.3708 137.117 14.2848 137.454 14.2848C137.835 14.2848 138.16 14.3708 138.431 14.5427C138.707 14.7146 138.885 14.954 138.965 15.261C139.094 14.9725 139.29 14.7392 139.554 14.5611C139.824 14.3769 140.128 14.2848 140.466 14.2848C140.963 14.2848 141.356 14.4291 141.645 14.7177C141.939 15.0062 142.087 15.3961 142.087 15.8873V19H141.304V16.0438C141.304 15.7184 141.215 15.4606 141.037 15.2702C140.859 15.0738 140.61 14.9755 140.291 14.9755C139.904 14.9755 139.603 15.1321 139.388 15.4452C139.174 15.7583 139.066 16.1666 139.066 16.67V19H138.283V16.0438C138.283 15.7184 138.194 15.4606 138.016 15.2702C137.844 15.0738 137.599 14.9755 137.279 14.9755C136.893 14.9755 136.592 15.1321 136.377 15.4452C136.162 15.7583 136.055 16.1666 136.055 16.67V19H135.272V14.3585ZM145.166 12.4798H146.096L145.912 14.3033H145.341L145.166 12.4798ZM146.621 12.4798H147.551L147.367 14.3033H146.796L146.621 12.4798ZM151.351 19.0737C150.799 19.0737 150.286 18.9478 149.813 18.6961C149.341 18.4444 148.96 18.0729 148.671 17.5818C148.389 17.0845 148.248 16.4828 148.248 15.7767C148.248 15.0707 148.392 14.4721 148.681 13.9809C148.969 13.4836 149.35 13.1091 149.823 12.8574C150.301 12.6057 150.817 12.4798 151.37 12.4798C152.088 12.4798 152.693 12.664 153.184 13.0324C153.681 13.4007 153.994 13.895 154.123 14.5151L153.294 14.69C153.202 14.2357 152.984 13.8796 152.641 13.6218C152.303 13.3578 151.879 13.2258 151.37 13.2258C150.928 13.2258 150.538 13.3271 150.2 13.5297C149.862 13.7261 149.595 14.0178 149.399 14.4046C149.209 14.7852 149.113 15.2426 149.113 15.7767C149.113 16.3109 149.209 16.7683 149.399 17.1489C149.589 17.5296 149.853 17.8212 150.191 18.0238C150.535 18.2203 150.925 18.3185 151.36 18.3185C151.753 18.3185 152.1 18.2387 152.401 18.0791C152.702 17.9194 152.935 17.6953 153.101 17.4068C153.267 17.1121 153.353 16.7775 153.359 16.403H151.112V15.6754H154.151V19H153.387V18.0054C153.239 18.3308 152.978 18.5917 152.604 18.7882C152.229 18.9785 151.812 19.0737 151.351 19.0737ZM155.24 12.4798H156.023V19H155.24V12.4798ZM160.054 15.9793C160.054 15.6601 159.95 15.4084 159.741 15.2242C159.539 15.0339 159.265 14.9387 158.922 14.9387C158.602 14.9387 158.338 15.0277 158.13 15.2058C157.921 15.3838 157.801 15.6294 157.77 15.9425L157.043 15.8044C157.11 15.3439 157.316 14.9755 157.66 14.6993C158.01 14.423 158.43 14.2848 158.922 14.2848C159.493 14.2848 159.953 14.4414 160.303 14.7545C160.653 15.0676 160.828 15.4913 160.828 16.0254V19H160.054V18.208C159.919 18.472 159.71 18.6838 159.428 18.8434C159.152 18.9969 158.845 19.0737 158.507 19.0737C158.047 19.0737 157.669 18.9478 157.374 18.6961C157.086 18.4382 156.942 18.1067 156.942 17.7015C156.942 17.2594 157.123 16.9126 157.485 16.6608C157.853 16.4091 158.409 16.2464 159.152 16.1727L160.054 16.0714V15.9793ZM157.724 17.6923C157.724 17.9072 157.807 18.0852 157.973 18.2264C158.145 18.3615 158.363 18.429 158.627 18.429C159.075 18.429 159.425 18.2909 159.677 18.0146C159.928 17.7383 160.054 17.3669 160.054 16.9003V16.6793L159.152 16.7806C158.685 16.8297 158.329 16.934 158.084 17.0937C157.844 17.2472 157.724 17.4467 157.724 17.6923ZM163.971 19.0737C163.504 19.0737 163.102 18.9724 162.765 18.7698C162.427 18.561 162.169 18.2755 161.991 17.9133C161.819 17.5511 161.733 17.1397 161.733 16.6793C161.733 16.2188 161.819 15.8074 161.991 15.4452C162.169 15.083 162.424 14.8006 162.755 14.598C163.093 14.3892 163.495 14.2848 163.962 14.2848C164.269 14.2848 164.56 14.3524 164.837 14.4874C165.119 14.6225 165.334 14.8006 165.481 15.0216V12.4798H166.264V19H165.481V18.3277C165.377 18.5426 165.184 18.7207 164.901 18.8619C164.619 19.0031 164.309 19.0737 163.971 19.0737ZM162.534 16.6793C162.534 17.1888 162.672 17.6002 162.949 17.9133C163.225 18.2203 163.59 18.3738 164.045 18.3738C164.499 18.3738 164.864 18.2203 165.141 17.9133C165.417 17.6002 165.555 17.1888 165.555 16.6793C165.555 16.1697 165.417 15.7614 165.141 15.4544C164.864 15.1413 164.499 14.9847 164.045 14.9847C163.59 14.9847 163.225 15.1413 162.949 15.4544C162.672 15.7614 162.534 16.1697 162.534 16.6793ZM167.431 14.3585H168.213V19H167.431V14.3585ZM168.278 12.4798V13.4744H167.375V12.4798H168.278ZM172.245 15.9793C172.245 15.6601 172.14 15.4084 171.932 15.2242C171.729 15.0339 171.456 14.9387 171.112 14.9387C170.793 14.9387 170.529 15.0277 170.32 15.2058C170.111 15.3838 169.992 15.6294 169.961 15.9425L169.233 15.8044C169.301 15.3439 169.507 14.9755 169.85 14.6993C170.2 14.423 170.621 14.2848 171.112 14.2848C171.683 14.2848 172.144 14.4414 172.493 14.7545C172.843 15.0676 173.018 15.4913 173.018 16.0254V19H172.245V18.208C172.11 18.472 171.901 18.6838 171.619 18.8434C171.342 18.9969 171.035 19.0737 170.698 19.0737C170.237 19.0737 169.86 18.9478 169.565 18.6961C169.276 18.4382 169.132 18.1067 169.132 17.7015C169.132 17.2594 169.313 16.9126 169.675 16.6608C170.044 16.4091 170.599 16.2464 171.342 16.1727L172.245 16.0714V15.9793ZM169.915 17.6923C169.915 17.9072 169.998 18.0852 170.164 18.2264C170.335 18.3615 170.553 18.429 170.817 18.429C171.266 18.429 171.616 18.2909 171.867 18.0146C172.119 17.7383 172.245 17.3669 172.245 16.9003V16.6793L171.342 16.7806C170.876 16.8297 170.52 16.934 170.274 17.0937C170.035 17.2472 169.915 17.4467 169.915 17.6923ZM176.632 18.9632C176.429 19.0368 176.187 19.0737 175.904 19.0737C175.487 19.0737 175.152 18.954 174.9 18.7145C174.655 18.4689 174.532 18.1006 174.532 17.6094V15.0492H173.666V14.3585H174.532V12.9495H175.315V14.3585H176.558V15.0492H175.315V17.637C175.315 17.8765 175.376 18.0576 175.499 18.1804C175.622 18.3032 175.788 18.3646 175.996 18.3646C176.224 18.3646 176.417 18.3247 176.577 18.2448L176.632 18.9632ZM179.418 19.0737C178.964 19.0737 178.556 18.9724 178.194 18.7698C177.837 18.561 177.558 18.2755 177.355 17.9133C177.159 17.5511 177.061 17.1397 177.061 16.6793C177.061 16.2188 177.159 15.8074 177.355 15.4452C177.558 15.083 177.837 14.8006 178.194 14.598C178.556 14.3892 178.964 14.2848 179.418 14.2848C179.873 14.2848 180.278 14.3892 180.634 14.598C180.996 14.8006 181.279 15.083 181.481 15.4452C181.684 15.8074 181.785 16.2188 181.785 16.6793C181.785 17.1397 181.684 17.5511 181.481 17.9133C181.279 18.2755 180.996 18.561 180.634 18.7698C180.278 18.9724 179.873 19.0737 179.418 19.0737ZM177.862 16.6793C177.862 17.1766 178.006 17.5848 178.295 17.9041C178.583 18.2172 178.958 18.3738 179.418 18.3738C179.879 18.3738 180.253 18.2172 180.542 17.9041C180.83 17.5848 180.975 17.1766 180.975 16.6793C180.975 16.182 180.83 15.7767 180.542 15.4636C180.253 15.1444 179.879 14.9847 179.418 14.9847C178.958 14.9847 178.583 15.1444 178.295 15.4636C178.006 15.7767 177.862 16.182 177.862 16.6793ZM185.403 15.1229C185.231 15.0492 185.032 15.0124 184.805 15.0124C184.412 15.0124 184.089 15.2027 183.838 15.5833C183.592 15.9579 183.469 16.5073 183.469 17.2318V19H182.686V14.3585H183.469V15.2979C183.604 15.0032 183.807 14.7607 184.077 14.5703C184.347 14.38 184.627 14.2848 184.915 14.2848C185.118 14.2848 185.296 14.3125 185.449 14.3677L185.403 15.1229ZM185.9 12.4798H186.83L186.646 14.3033H186.075L185.9 12.4798ZM187.355 12.4798H188.285L188.101 14.3033H187.53L187.355 12.4798ZM191.093 16.6793C191.093 16.2372 191.182 15.8351 191.361 15.4728C191.545 15.1045 191.806 14.8159 192.143 14.6072C192.487 14.3923 192.886 14.2848 193.341 14.2848C193.783 14.2848 194.172 14.3831 194.51 14.5795C194.848 14.7699 195.106 15.0339 195.284 15.3715C195.468 15.7031 195.56 16.0684 195.56 16.4674C195.56 16.5964 195.554 16.71 195.542 16.8082H191.876C191.901 17.2871 192.048 17.6708 192.318 17.9593C192.588 18.2418 192.941 18.383 193.377 18.383C193.727 18.383 194.022 18.3032 194.261 18.1435C194.501 17.9839 194.654 17.7598 194.722 17.4713L195.459 17.6462C195.342 18.0944 195.099 18.4444 194.731 18.6961C194.363 18.9478 193.911 19.0737 193.377 19.0737C192.923 19.0737 192.521 18.9693 192.171 18.7606C191.827 18.5457 191.56 18.2571 191.37 17.8949C191.186 17.5265 191.093 17.1213 191.093 16.6793ZM194.731 16.1727C194.694 15.8044 194.553 15.5066 194.307 15.2794C194.062 15.0523 193.74 14.9387 193.341 14.9387C192.978 14.9387 192.671 15.0492 192.42 15.2702C192.168 15.4851 192.002 15.786 191.922 16.1727H194.731ZM197.988 19.0737C197.472 19.0737 197.049 18.9417 196.717 18.6777C196.392 18.4137 196.171 18.0944 196.054 17.7199L196.726 17.4252C196.935 18.0821 197.356 18.4106 197.988 18.4106C198.264 18.4106 198.488 18.3431 198.66 18.208C198.838 18.0668 198.927 17.898 198.927 17.7015C198.927 17.5357 198.875 17.4007 198.771 17.2963C198.672 17.1919 198.55 17.1121 198.402 17.0568C198.255 17.0016 198.049 16.9402 197.785 16.8727C197.454 16.7867 197.187 16.7038 196.984 16.624C196.788 16.538 196.616 16.4091 196.468 16.2372C196.327 16.0592 196.257 15.8197 196.257 15.5189C196.257 15.1505 196.404 14.8527 196.699 14.6256C196.993 14.3984 197.389 14.2848 197.887 14.2848C198.298 14.2848 198.663 14.3923 198.982 14.6072C199.308 14.8159 199.517 15.0891 199.609 15.4268L198.955 15.7123C198.893 15.479 198.758 15.2917 198.55 15.1505C198.347 15.0032 198.12 14.9295 197.868 14.9295C197.604 14.9295 197.395 14.9817 197.242 15.086C197.095 15.1843 197.021 15.3255 197.021 15.5097C197.021 15.6939 197.104 15.832 197.27 15.9241C197.435 16.01 197.69 16.0929 198.034 16.1727C198.378 16.2587 198.66 16.3477 198.881 16.4398C199.102 16.5258 199.293 16.67 199.452 16.8727C199.612 17.0691 199.692 17.3393 199.692 17.6831C199.692 18.0944 199.535 18.429 199.222 18.6869C198.909 18.9447 198.497 19.0737 197.988 19.0737ZM202.99 18.9632C202.787 19.0368 202.545 19.0737 202.262 19.0737C201.845 19.0737 201.51 18.954 201.259 18.7145C201.013 18.4689 200.89 18.1006 200.89 17.6094V15.0492H200.024V14.3585H200.89V12.9495H201.673V14.3585H202.916V15.0492H201.673V17.637C201.673 17.8765 201.734 18.0576 201.857 18.1804C201.98 18.3032 202.146 18.3646 202.354 18.3646C202.582 18.3646 202.775 18.3247 202.935 18.2448L202.99 18.9632ZM205.924 14.3585H206.707V15.2334C206.829 14.9448 207.007 14.7146 207.241 14.5427C207.48 14.3708 207.769 14.2848 208.106 14.2848C208.487 14.2848 208.812 14.3708 209.083 14.5427C209.359 14.7146 209.537 14.954 209.617 15.261C209.746 14.9725 209.942 14.7392 210.206 14.5611C210.476 14.3769 210.78 14.2848 211.118 14.2848C211.615 14.2848 212.008 14.4291 212.297 14.7177C212.591 15.0062 212.739 15.3961 212.739 15.8873V19H211.956V16.0438C211.956 15.7184 211.867 15.4606 211.689 15.2702C211.511 15.0738 211.262 14.9755 210.943 14.9755C210.556 14.9755 210.255 15.1321 210.04 15.4452C209.825 15.7583 209.718 16.1666 209.718 16.67V19H208.935V16.0438C208.935 15.7184 208.846 15.4606 208.668 15.2702C208.496 15.0738 208.251 14.9755 207.931 14.9755C207.545 14.9755 207.244 15.1321 207.029 15.4452C206.814 15.7583 206.707 16.1666 206.707 16.67V19H205.924V14.3585ZM216.773 15.9793C216.773 15.6601 216.668 15.4084 216.459 15.2242C216.257 15.0339 215.984 14.9387 215.64 14.9387C215.321 14.9387 215.057 15.0277 214.848 15.2058C214.639 15.3838 214.519 15.6294 214.489 15.9425L213.761 15.8044C213.829 15.3439 214.034 14.9755 214.378 14.6993C214.728 14.423 215.149 14.2848 215.64 14.2848C216.211 14.2848 216.671 14.4414 217.021 14.7545C217.371 15.0676 217.546 15.4913 217.546 16.0254V19H216.773V18.208C216.637 18.472 216.429 18.6838 216.146 18.8434C215.87 18.9969 215.563 19.0737 215.225 19.0737C214.765 19.0737 214.387 18.9478 214.093 18.6961C213.804 18.4382 213.66 18.1067 213.66 17.7015C213.66 17.2594 213.841 16.9126 214.203 16.6608C214.571 16.4091 215.127 16.2464 215.87 16.1727L216.773 16.0714V15.9793ZM214.443 17.6923C214.443 17.9072 214.525 18.0852 214.691 18.2264C214.863 18.3615 215.081 18.429 215.345 18.429C215.793 18.429 216.143 18.2909 216.395 18.0146C216.647 17.7383 216.773 17.3669 216.773 16.9003V16.6793L215.87 16.7806C215.403 16.8297 215.047 16.934 214.802 17.0937C214.562 17.2472 214.443 17.4467 214.443 17.6923ZM218.718 14.3585H219.501V19H218.718V14.3585ZM219.566 12.4798V13.4744H218.663V12.4798H219.566ZM220.668 14.3585H221.451V15.2334C221.617 14.9448 221.838 14.7146 222.114 14.5427C222.391 14.3708 222.701 14.2848 223.044 14.2848C223.529 14.2848 223.925 14.4353 224.232 14.7361C224.546 15.0369 224.702 15.4329 224.702 15.9241V19H223.919V16.0714C223.919 15.7522 223.824 15.4943 223.634 15.2979C223.444 15.0953 223.189 14.994 222.869 14.994C222.434 14.994 222.087 15.172 221.829 15.5281C221.577 15.878 221.451 16.3569 221.451 16.9647V19H220.668V14.3585ZM228.171 18.9632C227.969 19.0368 227.726 19.0737 227.444 19.0737C227.026 19.0737 226.692 18.954 226.44 18.7145C226.194 18.4689 226.072 18.1006 226.072 17.6094V15.0492H225.206V14.3585H226.072V12.9495H226.854V14.3585H228.098V15.0492H226.854V17.637C226.854 17.8765 226.916 18.0576 227.039 18.1804C227.161 18.3032 227.327 18.3646 227.536 18.3646C227.763 18.3646 227.956 18.3247 228.116 18.2448L228.171 18.9632ZM228.6 16.6793C228.6 16.2372 228.689 15.8351 228.867 15.4728C229.052 15.1045 229.313 14.8159 229.65 14.6072C229.994 14.3923 230.393 14.2848 230.847 14.2848C231.289 14.2848 231.679 14.3831 232.017 14.5795C232.355 14.7699 232.613 15.0339 232.791 15.3715C232.975 15.7031 233.067 16.0684 233.067 16.4674C233.067 16.5964 233.061 16.71 233.048 16.8082H229.383C229.408 17.2871 229.555 17.6708 229.825 17.9593C230.095 18.2418 230.448 18.383 230.884 18.383C231.234 18.383 231.529 18.3032 231.768 18.1435C232.008 17.9839 232.161 17.7598 232.229 17.4713L232.966 17.6462C232.849 18.0944 232.606 18.4444 232.238 18.6961C231.87 18.9478 231.418 19.0737 230.884 19.0737C230.43 19.0737 230.028 18.9693 229.678 18.7606C229.334 18.5457 229.067 18.2571 228.877 17.8949C228.692 17.5265 228.6 17.1213 228.6 16.6793ZM232.238 16.1727C232.201 15.8044 232.06 15.5066 231.814 15.2794C231.569 15.0523 231.246 14.9387 230.847 14.9387C230.485 14.9387 230.178 15.0492 229.926 15.2702C229.675 15.4851 229.509 15.786 229.429 16.1727H232.238ZM233.974 14.3585H234.757V15.2334C234.923 14.9448 235.144 14.7146 235.42 14.5427C235.696 14.3708 236.006 14.2848 236.35 14.2848C236.835 14.2848 237.231 14.4353 237.538 14.7361C237.851 15.0369 238.008 15.4329 238.008 15.9241V19H237.225V16.0714C237.225 15.7522 237.13 15.4943 236.94 15.2979C236.749 15.0953 236.494 14.994 236.175 14.994C235.739 14.994 235.392 15.172 235.135 15.5281C234.883 15.878 234.757 16.3569 234.757 16.9647V19H233.974V14.3585ZM242.044 15.9793C242.044 15.6601 241.94 15.4084 241.731 15.2242C241.528 15.0339 241.255 14.9387 240.911 14.9387C240.592 14.9387 240.328 15.0277 240.119 15.2058C239.91 15.3838 239.791 15.6294 239.76 15.9425L239.032 15.8044C239.1 15.3439 239.306 14.9755 239.649 14.6993C239.999 14.423 240.42 14.2848 240.911 14.2848C241.482 14.2848 241.943 14.4414 242.293 14.7545C242.643 15.0676 242.817 15.4913 242.817 16.0254V19H242.044V18.208C241.909 18.472 241.7 18.6838 241.418 18.8434C241.141 18.9969 240.834 19.0737 240.497 19.0737C240.036 19.0737 239.659 18.9478 239.364 18.6961C239.075 18.4382 238.931 18.1067 238.931 17.7015C238.931 17.2594 239.112 16.9126 239.475 16.6608C239.843 16.4091 240.399 16.2464 241.141 16.1727L242.044 16.0714V15.9793ZM239.714 17.6923C239.714 17.9072 239.797 18.0852 239.963 18.2264C240.135 18.3615 240.352 18.429 240.616 18.429C241.065 18.429 241.415 18.2909 241.666 18.0146C241.918 17.7383 242.044 17.3669 242.044 16.9003V16.6793L241.141 16.7806C240.675 16.8297 240.319 16.934 240.073 17.0937C239.834 17.2472 239.714 17.4467 239.714 17.6923ZM243.99 14.3585H244.773V15.2334C244.938 14.9448 245.159 14.7146 245.436 14.5427C245.712 14.3708 246.022 14.2848 246.366 14.2848C246.851 14.2848 247.247 14.4353 247.554 14.7361C247.867 15.0369 248.023 15.4329 248.023 15.9241V19H247.241V16.0714C247.241 15.7522 247.146 15.4943 246.955 15.2979C246.765 15.0953 246.51 14.994 246.191 14.994C245.755 14.994 245.408 15.172 245.15 15.5281C244.898 15.878 244.773 16.3569 244.773 16.9647V19H243.99V14.3585ZM251.493 18.9632C251.29 19.0368 251.048 19.0737 250.765 19.0737C250.348 19.0737 250.013 18.954 249.761 18.7145C249.516 18.4689 249.393 18.1006 249.393 17.6094V15.0492H248.527V14.3585H249.393V12.9495H250.176V14.3585H251.419V15.0492H250.176V17.637C250.176 17.8765 250.237 18.0576 250.36 18.1804C250.483 18.3032 250.648 18.3646 250.857 18.3646C251.084 18.3646 251.278 18.3247 251.437 18.2448L251.493 18.9632ZM44.0248 30.0737C43.5582 30.0737 43.1561 29.9724 42.8184 29.7698C42.4807 29.561 42.2229 29.2755 42.0448 28.9133C41.8729 28.5511 41.787 28.1397 41.787 27.6793C41.787 27.2188 41.8729 26.8074 42.0448 26.4452C42.2229 26.083 42.4776 25.8006 42.8092 25.598C43.1469 25.3892 43.549 25.2848 44.0156 25.2848C44.3226 25.2848 44.6142 25.3524 44.8905 25.4874C45.1729 25.6225 45.3878 25.8006 45.5351 26.0216V23.4798H46.3179V30H45.5351V29.3277C45.4308 29.5426 45.2374 29.7207 44.955 29.8619C44.6725 30.0031 44.3625 30.0737 44.0248 30.0737ZM42.5882 27.6793C42.5882 28.1888 42.7263 28.6002 43.0026 28.9133C43.2789 29.2203 43.6442 29.3738 44.0985 29.3738C44.5528 29.3738 44.9181 29.2203 45.1944 28.9133C45.4707 28.6002 45.6088 28.1888 45.6088 27.6793C45.6088 27.1697 45.4707 26.7614 45.1944 26.4544C44.9181 26.1413 44.5528 25.9847 44.0985 25.9847C43.6442 25.9847 43.2789 26.1413 43.0026 26.4544C42.7263 26.7614 42.5882 27.1697 42.5882 27.6793ZM47.4845 25.3585H48.2673V30H47.4845V25.3585ZM48.3318 23.4798V24.4744H47.4293V23.4798H48.3318ZM51.0002 30.0737C50.4844 30.0737 50.0608 29.9417 49.7293 29.6777C49.4039 29.4137 49.1829 29.0944 49.0662 28.7199L49.7385 28.4252C49.9472 29.0821 50.3678 29.4106 51.0002 29.4106C51.2764 29.4106 51.5005 29.3431 51.6724 29.208C51.8505 29.0668 51.9395 28.898 51.9395 28.7015C51.9395 28.5357 51.8873 28.4007 51.7829 28.2963C51.6847 28.1919 51.5619 28.1121 51.4146 28.0568C51.2672 28.0016 51.0616 27.9402 50.7976 27.8727C50.466 27.7867 50.1989 27.7038 49.9963 27.624C49.7999 27.538 49.628 27.4091 49.4806 27.2372C49.3394 27.0592 49.2688 26.8197 49.2688 26.5189C49.2688 26.1505 49.4162 25.8527 49.7109 25.6256C50.0056 25.3984 50.4016 25.2848 50.8989 25.2848C51.3102 25.2848 51.6755 25.3923 51.9948 25.6072C52.3202 25.8159 52.5289 26.0891 52.621 26.4268L51.9671 26.7123C51.9057 26.479 51.7707 26.2917 51.5619 26.1505C51.3593 26.0032 51.1322 25.9295 50.8804 25.9295C50.6164 25.9295 50.4077 25.9817 50.2542 26.086C50.1069 26.1843 50.0332 26.3255 50.0332 26.5097C50.0332 26.6939 50.1161 26.832 50.2818 26.9241C50.4476 27.01 50.7024 27.0929 51.0462 27.1727C51.39 27.2587 51.6724 27.3477 51.8935 27.4398C52.1145 27.5258 52.3048 27.67 52.4644 27.8727C52.6241 28.0691 52.7039 28.3393 52.7039 28.6831C52.7039 29.0944 52.5473 29.429 52.2342 29.6869C51.9211 29.9447 51.5097 30.0737 51.0002 30.0737ZM53.597 25.3585H54.3798V26.0308C54.5087 25.8159 54.7113 25.6379 54.9876 25.4967C55.27 25.3554 55.577 25.2848 55.9085 25.2848C56.3752 25.2848 56.7742 25.3892 57.1058 25.598C57.4373 25.8006 57.689 26.083 57.8609 26.4452C58.039 26.8074 58.128 27.2188 58.128 27.6793C58.128 28.1397 58.039 28.5511 57.8609 28.9133C57.6829 29.2755 57.425 29.561 57.0873 29.7698C56.7558 29.9724 56.3567 30.0737 55.8901 30.0737C55.5954 30.0737 55.3099 30.0092 55.0337 29.8803C54.7574 29.7452 54.5394 29.5702 54.3798 29.3553V31.6761H53.597V25.3585ZM54.3153 27.6793C54.3153 28.1888 54.4504 28.6002 54.7205 28.9133C54.9968 29.2203 55.3621 29.3738 55.8165 29.3738C56.2769 29.3738 56.6453 29.2203 56.9216 28.9133C57.1978 28.6002 57.336 28.1888 57.336 27.6793C57.336 27.1697 57.1978 26.7614 56.9216 26.4544C56.6453 26.1413 56.2769 25.9847 55.8165 25.9847C55.3621 25.9847 54.9968 26.1413 54.7205 26.4544C54.4504 26.7614 54.3153 27.1697 54.3153 27.6793ZM61.118 30.0737C60.6637 30.0737 60.2554 29.9724 59.8932 29.7698C59.5371 29.561 59.2578 29.2755 59.0552 28.9133C58.8587 28.5511 58.7605 28.1397 58.7605 27.6793C58.7605 27.2188 58.8587 26.8074 59.0552 26.4452C59.2578 26.083 59.5371 25.8006 59.8932 25.598C60.2554 25.3892 60.6637 25.2848 61.118 25.2848C61.5724 25.2848 61.9776 25.3892 62.3337 25.598C62.6959 25.8006 62.9783 26.083 63.1809 26.4452C63.3835 26.8074 63.4848 27.2188 63.4848 27.6793C63.4848 28.1397 63.3835 28.5511 63.1809 28.9133C62.9783 29.2755 62.6959 29.561 62.3337 29.7698C61.9776 29.9724 61.5724 30.0737 61.118 30.0737ZM59.5617 27.6793C59.5617 28.1766 59.7059 28.5848 59.9945 28.9041C60.2831 29.2172 60.6576 29.3738 61.118 29.3738C61.5785 29.3738 61.953 29.2172 62.2416 28.9041C62.5301 28.5848 62.6744 28.1766 62.6744 27.6793C62.6744 27.182 62.5301 26.7767 62.2416 26.4636C61.953 26.1444 61.5785 25.9847 61.118 25.9847C60.6576 25.9847 60.2831 26.1444 59.9945 26.4636C59.7059 26.7767 59.5617 27.182 59.5617 27.6793ZM64.3861 25.3585H65.1689V26.2334C65.3346 25.9448 65.5557 25.7146 65.8319 25.5427C66.1082 25.3708 66.4183 25.2848 66.7621 25.2848C67.2471 25.2848 67.6431 25.4353 67.9501 25.7361C68.2632 26.0369 68.4198 26.4329 68.4198 26.9241V30H67.637V27.0714C67.637 26.7522 67.5418 26.4943 67.3515 26.2979C67.1612 26.0953 66.9064 25.994 66.5871 25.994C66.1512 25.994 65.8043 26.172 65.5465 26.5281C65.2947 26.878 65.1689 27.3569 65.1689 27.9647V30H64.3861V25.3585ZM69.5918 25.3585H70.3746V30H69.5918V25.3585ZM70.439 23.4798V24.4744H69.5365V23.4798H70.439ZM73.8349 30.0737C73.4972 30.0737 73.1872 30.0031 72.9048 29.8619C72.6224 29.7207 72.429 29.5426 72.3246 29.3277V30H71.5418V23.4798H72.3246V26.0216C72.4719 25.8006 72.6838 25.6225 72.96 25.4874C73.2425 25.3524 73.5372 25.2848 73.8441 25.2848C74.3107 25.2848 74.7098 25.3892 75.0413 25.598C75.379 25.8006 75.6338 26.083 75.8057 26.4452C75.9838 26.8074 76.0728 27.2188 76.0728 27.6793C76.0728 28.1397 75.9838 28.5511 75.8057 28.9133C75.6338 29.2755 75.379 29.561 75.0413 29.7698C74.7037 29.9724 74.3015 30.0737 73.8349 30.0737ZM72.2509 27.6793C72.2509 28.1888 72.3891 28.6002 72.6653 28.9133C72.9416 29.2203 73.3069 29.3738 73.7612 29.3738C74.2156 29.3738 74.5809 29.2203 74.8572 28.9133C75.1334 28.6002 75.2716 28.1888 75.2716 27.6793C75.2716 27.1697 75.1334 26.7614 74.8572 26.4544C74.5809 26.1413 74.2156 25.9847 73.7612 25.9847C73.3069 25.9847 72.9416 26.1413 72.6653 26.4544C72.3891 26.7614 72.2509 27.1697 72.2509 27.6793ZM76.9723 23.4798H77.7551V30H76.9723V23.4798ZM78.6553 27.6793C78.6553 27.2372 78.7443 26.8351 78.9224 26.4728C79.1066 26.1045 79.3675 25.8159 79.7052 25.6072C80.049 25.3923 80.448 25.2848 80.9024 25.2848C81.3444 25.2848 81.7343 25.3831 82.0719 25.5795C82.4096 25.7699 82.6675 26.0339 82.8455 26.3715C83.0297 26.7031 83.1218 27.0684 83.1218 27.4674C83.1218 27.5964 83.1157 27.71 83.1034 27.8082H79.4381C79.4626 28.2871 79.61 28.6708 79.8801 28.9593C80.1503 29.2418 80.5033 29.383 80.9392 29.383C81.2892 29.383 81.5839 29.3032 81.8233 29.1435C82.0627 28.9839 82.2162 28.7598 82.2838 28.4713L83.0205 28.6462C82.9039 29.0944 82.6613 29.4444 82.293 29.6961C81.9246 29.9478 81.4733 30.0737 80.9392 30.0737C80.4849 30.0737 80.0827 29.9693 79.7328 29.7606C79.389 29.5457 79.1219 29.2571 78.9316 28.8949C78.7474 28.5265 78.6553 28.1213 78.6553 27.6793ZM82.293 27.1727C82.2561 26.8044 82.1149 26.5066 81.8693 26.2794C81.6238 26.0523 81.3014 25.9387 80.9024 25.9387C80.5401 25.9387 80.2332 26.0492 79.9814 26.2702C79.7297 26.4851 79.5639 26.786 79.4841 27.1727H82.293ZM87.7156 30.0737C87.1999 30.0737 86.7763 29.9417 86.4447 29.6777C86.1193 29.4137 85.8983 29.0944 85.7817 28.7199L86.4539 28.4252C86.6627 29.0821 87.0832 29.4106 87.7156 29.4106C87.9919 29.4106 88.216 29.3431 88.3879 29.208C88.5659 29.0668 88.655 28.898 88.655 28.7015C88.655 28.5357 88.6028 28.4007 88.4984 28.2963C88.4002 28.1919 88.2774 28.1121 88.13 28.0568C87.9827 28.0016 87.777 27.9402 87.513 27.8727C87.1815 27.7867 86.9144 27.7038 86.7118 27.624C86.5153 27.538 86.3434 27.4091 86.1961 27.2372C86.0549 27.0592 85.9843 26.8197 85.9843 26.5189C85.9843 26.1505 86.1316 25.8527 86.4263 25.6256C86.721 25.3984 87.117 25.2848 87.6143 25.2848C88.0257 25.2848 88.391 25.3923 88.7102 25.6072C89.0356 25.8159 89.2444 26.0891 89.3364 26.4268L88.6826 26.7123C88.6212 26.479 88.4861 26.2917 88.2774 26.1505C88.0748 26.0032 87.8476 25.9295 87.5959 25.9295C87.3319 25.9295 87.1231 25.9817 86.9697 26.086C86.8223 26.1843 86.7486 26.3255 86.7486 26.5097C86.7486 26.6939 86.8315 26.832 86.9973 26.9241C87.1631 27.01 87.4178 27.0929 87.7617 27.1727C88.1055 27.2587 88.3879 27.3477 88.6089 27.4398C88.8299 27.5258 89.0203 27.67 89.1799 27.8727C89.3395 28.0691 89.4193 28.3393 89.4193 28.6831C89.4193 29.0944 89.2628 29.429 88.9497 29.6869C88.6365 29.9447 88.2252 30.0737 87.7156 30.0737ZM94.3461 30H93.5633V29.1251C93.3976 29.4137 93.1766 29.6439 92.9003 29.8158C92.624 29.9877 92.314 30.0737 91.9701 30.0737C91.4851 30.0737 91.086 29.9233 90.7729 29.6224C90.466 29.3216 90.3125 28.9256 90.3125 28.4344V25.3585H91.0953V28.2871C91.0953 28.6063 91.1904 28.8673 91.3807 29.0699C91.5711 29.2663 91.8259 29.3646 92.1451 29.3646C92.581 29.3646 92.9248 29.1896 93.1766 28.8396C93.4344 28.4835 93.5633 28.0016 93.5633 27.3938V25.3585H94.3461V30ZM98.2349 26.1229C98.063 26.0492 97.8634 26.0124 97.6363 26.0124C97.2433 26.0124 96.921 26.2027 96.6693 26.5833C96.4237 26.9579 96.3009 27.5073 96.3009 28.2318V30H95.5181V25.3585H96.3009V26.2979C96.436 26.0032 96.6386 25.7607 96.9087 25.5703C97.1789 25.38 97.4582 25.2848 97.7468 25.2848C97.9494 25.2848 98.1274 25.3125 98.2809 25.3677L98.2349 26.1229ZM103.532 29.9632C103.33 30.0368 103.087 30.0737 102.805 30.0737C102.387 30.0737 102.052 29.954 101.801 29.7145C101.555 29.4689 101.432 29.1006 101.432 28.6094V26.0492H100.567V25.3585H101.432V23.9495H102.215V25.3585H103.458V26.0492H102.215V28.637C102.215 28.8765 102.277 29.0576 102.399 29.1804C102.522 29.3032 102.688 29.3646 102.897 29.3646C103.124 29.3646 103.317 29.3247 103.477 29.2448L103.532 29.9632ZM106.319 30.0737C105.864 30.0737 105.456 29.9724 105.094 29.7698C104.738 29.561 104.458 29.2755 104.256 28.9133C104.059 28.5511 103.961 28.1397 103.961 27.6793C103.961 27.2188 104.059 26.8074 104.256 26.4452C104.458 26.083 104.738 25.8006 105.094 25.598C105.456 25.3892 105.864 25.2848 106.319 25.2848C106.773 25.2848 107.178 25.3892 107.534 25.598C107.897 25.8006 108.179 26.083 108.382 26.4452C108.584 26.8074 108.685 27.2188 108.685 27.6793C108.685 28.1397 108.584 28.5511 108.382 28.9133C108.179 29.2755 107.897 29.561 107.534 29.7698C107.178 29.9724 106.773 30.0737 106.319 30.0737ZM104.762 27.6793C104.762 28.1766 104.907 28.5848 105.195 28.9041C105.484 29.2172 105.858 29.3738 106.319 29.3738C106.779 29.3738 107.154 29.2172 107.442 28.9041C107.731 28.5848 107.875 28.1766 107.875 27.6793C107.875 27.182 107.731 26.7767 107.442 26.4636C107.154 26.1444 106.779 25.9847 106.319 25.9847C105.858 25.9847 105.484 26.1444 105.195 26.4636C104.907 26.7767 104.762 27.182 104.762 27.6793ZM113.62 30H112.838V29.1251C112.672 29.4137 112.451 29.6439 112.175 29.8158C111.898 29.9877 111.588 30.0737 111.244 30.0737C110.759 30.0737 110.36 29.9233 110.047 29.6224C109.74 29.3216 109.587 28.9256 109.587 28.4344V25.3585H110.37V28.2871C110.37 28.6063 110.465 28.8673 110.655 29.0699C110.845 29.2663 111.1 29.3646 111.419 29.3646C111.855 29.3646 112.199 29.1896 112.451 28.8396C112.709 28.4835 112.838 28.0016 112.838 27.3938V25.3585H113.62V30ZM117.261 29.9632C117.058 30.0368 116.815 30.0737 116.533 30.0737C116.116 30.0737 115.781 29.954 115.529 29.7145C115.284 29.4689 115.161 29.1006 115.161 28.6094V26.0492H114.295V25.3585H115.161V23.9495H115.944V25.3585H117.187V26.0492H115.944V28.637C115.944 28.8765 116.005 29.0576 116.128 29.1804C116.251 29.3032 116.416 29.3646 116.625 29.3646C116.852 29.3646 117.046 29.3247 117.205 29.2448L117.261 29.9632ZM117.69 27.6793C117.69 27.2372 117.779 26.8351 117.957 26.4728C118.141 26.1045 118.402 25.8159 118.739 25.6072C119.083 25.3923 119.482 25.2848 119.937 25.2848C120.379 25.2848 120.769 25.3831 121.106 25.5795C121.444 25.7699 121.702 26.0339 121.88 26.3715C122.064 26.7031 122.156 27.0684 122.156 27.4674C122.156 27.5964 122.15 27.71 122.138 27.8082H118.472C118.497 28.2871 118.644 28.6708 118.914 28.9593C119.185 29.2418 119.538 29.383 119.973 29.383C120.323 29.383 120.618 29.3032 120.858 29.1435C121.097 28.9839 121.25 28.7598 121.318 28.4713L122.055 28.6462C121.938 29.0944 121.696 29.4444 121.327 29.6961C120.959 29.9478 120.508 30.0737 119.973 30.0737C119.519 30.0737 119.117 29.9693 118.767 29.7606C118.423 29.5457 118.156 29.2571 117.966 28.8949C117.782 28.5265 117.69 28.1213 117.69 27.6793ZM121.327 27.1727C121.29 26.8044 121.149 26.5066 120.904 26.2794C120.658 26.0523 120.336 25.9387 119.937 25.9387C119.574 25.9387 119.267 26.0492 119.016 26.2702C118.764 26.4851 118.598 26.786 118.518 27.1727H121.327ZM124.584 30.0737C124.068 30.0737 123.645 29.9417 123.313 29.6777C122.988 29.4137 122.767 29.0944 122.65 28.7199L123.322 28.4252C123.531 29.0821 123.952 29.4106 124.584 29.4106C124.86 29.4106 125.084 29.3431 125.256 29.208C125.434 29.0668 125.523 28.898 125.523 28.7015C125.523 28.5357 125.471 28.4007 125.367 28.2963C125.269 28.1919 125.146 28.1121 124.998 28.0568C124.851 28.0016 124.645 27.9402 124.381 27.8727C124.05 27.7867 123.783 27.7038 123.58 27.624C123.384 27.538 123.212 27.4091 123.064 27.2372C122.923 27.0592 122.853 26.8197 122.853 26.5189C122.853 26.1505 123 25.8527 123.295 25.6256C123.589 25.3984 123.985 25.2848 124.483 25.2848C124.894 25.2848 125.259 25.3923 125.579 25.6072C125.904 25.8159 126.113 26.0891 126.205 26.4268L125.551 26.7123C125.49 26.479 125.354 26.2917 125.146 26.1505C124.943 26.0032 124.716 25.9295 124.464 25.9295C124.2 25.9295 123.991 25.9817 123.838 26.086C123.691 26.1843 123.617 26.3255 123.617 26.5097C123.617 26.6939 123.7 26.832 123.866 26.9241C124.031 27.01 124.286 27.0929 124.63 27.1727C124.974 27.2587 125.256 27.3477 125.477 27.4398C125.698 27.5258 125.889 27.67 126.048 27.8727C126.208 28.0691 126.288 28.3393 126.288 28.6831C126.288 29.0944 126.131 29.429 125.818 29.6869C125.505 29.9447 125.094 30.0737 124.584 30.0737ZM129.302 23.4798H130.085V30H129.302V23.4798ZM130.985 27.6793C130.985 27.2372 131.074 26.8351 131.252 26.4728C131.436 26.1045 131.697 25.8159 132.035 25.6072C132.378 25.3923 132.777 25.2848 133.232 25.2848C133.674 25.2848 134.064 25.3831 134.401 25.5795C134.739 25.7699 134.997 26.0339 135.175 26.3715C135.359 26.7031 135.451 27.0684 135.451 27.4674C135.451 27.5964 135.445 27.71 135.433 27.8082H131.767C131.792 28.2871 131.939 28.6708 132.21 28.9593C132.48 29.2418 132.833 29.383 133.269 29.383C133.619 29.383 133.913 29.3032 134.153 29.1435C134.392 28.9839 134.546 28.7598 134.613 28.4713L135.35 28.6462C135.233 29.0944 134.991 29.4444 134.622 29.6961C134.254 29.9478 133.803 30.0737 133.269 30.0737C132.814 30.0737 132.412 29.9693 132.062 29.7606C131.718 29.5457 131.451 29.2571 131.261 28.8949C131.077 28.5265 130.985 28.1213 130.985 27.6793ZM134.622 27.1727C134.586 26.8044 134.444 26.5066 134.199 26.2794C133.953 26.0523 133.631 25.9387 133.232 25.9387C132.87 25.9387 132.563 26.0492 132.311 26.2702C132.059 26.4851 131.893 26.786 131.814 27.1727H134.622ZM137.879 30.0737C137.363 30.0737 136.94 29.9417 136.608 29.6777C136.283 29.4137 136.062 29.0944 135.945 28.7199L136.617 28.4252C136.826 29.0821 137.247 29.4106 137.879 29.4106C138.155 29.4106 138.38 29.3431 138.551 29.208C138.729 29.0668 138.818 28.898 138.818 28.7015C138.818 28.5357 138.766 28.4007 138.662 28.2963C138.564 28.1919 138.441 28.1121 138.294 28.0568C138.146 28.0016 137.941 27.9402 137.677 27.8727C137.345 27.7867 137.078 27.7038 136.875 27.624C136.679 27.538 136.507 27.4091 136.36 27.2372C136.218 27.0592 136.148 26.8197 136.148 26.5189C136.148 26.1505 136.295 25.8527 136.59 25.6256C136.885 25.3984 137.281 25.2848 137.778 25.2848C138.189 25.2848 138.554 25.3923 138.874 25.6072C139.199 25.8159 139.408 26.0891 139.5 26.4268L138.846 26.7123C138.785 26.479 138.65 26.2917 138.441 26.1505C138.238 26.0032 138.011 25.9295 137.759 25.9295C137.495 25.9295 137.287 25.9817 137.133 26.086C136.986 26.1843 136.912 26.3255 136.912 26.5097C136.912 26.6939 136.995 26.832 137.161 26.9241C137.327 27.01 137.581 27.0929 137.925 27.1727C138.269 27.2587 138.551 27.3477 138.772 27.4398C138.993 27.5258 139.184 27.67 139.343 27.8727C139.503 28.0691 139.583 28.3393 139.583 28.6831C139.583 29.0944 139.426 29.429 139.113 29.6869C138.8 29.9447 138.389 30.0737 137.879 30.0737ZM142.597 25.3585H143.38V26.0308C143.509 25.8159 143.711 25.6379 143.988 25.4967C144.27 25.3554 144.577 25.2848 144.908 25.2848C145.375 25.2848 145.774 25.3892 146.106 25.598C146.437 25.8006 146.689 26.083 146.861 26.4452C147.039 26.8074 147.128 27.2188 147.128 27.6793C147.128 28.1397 147.039 28.5511 146.861 28.9133C146.683 29.2755 146.425 29.561 146.087 29.7698C145.756 29.9724 145.357 30.0737 144.89 30.0737C144.595 30.0737 144.31 30.0092 144.034 29.8803C143.757 29.7452 143.539 29.5702 143.38 29.3553V31.6761H142.597V25.3585ZM143.315 27.6793C143.315 28.1888 143.45 28.6002 143.72 28.9133C143.997 29.2203 144.362 29.3738 144.816 29.3738C145.277 29.3738 145.645 29.2203 145.921 28.9133C146.198 28.6002 146.336 28.1888 146.336 27.6793C146.336 27.1697 146.198 26.7614 145.921 26.4544C145.645 26.1413 145.277 25.9847 144.816 25.9847C144.362 25.9847 143.997 26.1413 143.72 26.4544C143.45 26.7614 143.315 27.1697 143.315 27.6793ZM148.027 23.4798H148.81V30H148.027V23.4798ZM152.842 26.9793C152.842 26.6601 152.737 26.4084 152.528 26.2242C152.326 26.0339 152.053 25.9387 151.709 25.9387C151.39 25.9387 151.126 26.0277 150.917 26.2058C150.708 26.3838 150.588 26.6294 150.558 26.9425L149.83 26.8044C149.898 26.3439 150.103 25.9755 150.447 25.6993C150.797 25.423 151.218 25.2848 151.709 25.2848C152.28 25.2848 152.74 25.4414 153.09 25.7545C153.44 26.0676 153.615 26.4913 153.615 27.0254V30H152.842V29.208C152.706 29.472 152.498 29.6838 152.215 29.8434C151.939 29.9969 151.632 30.0737 151.294 30.0737C150.834 30.0737 150.456 29.9478 150.162 29.6961C149.873 29.4382 149.729 29.1067 149.729 28.7015C149.729 28.2594 149.91 27.9126 150.272 27.6608C150.641 27.4091 151.196 27.2464 151.939 27.1727L152.842 27.0714V26.9793ZM150.512 28.6923C150.512 28.9072 150.594 29.0852 150.76 29.2264C150.932 29.3615 151.15 29.429 151.414 29.429C151.862 29.429 152.212 29.2909 152.464 29.0146C152.716 28.7383 152.842 28.3669 152.842 27.9003V27.6793L151.939 27.7806C151.472 27.8297 151.116 27.934 150.871 28.0937C150.631 28.2472 150.512 28.4467 150.512 28.6923ZM157.229 29.9632C157.026 30.0368 156.783 30.0737 156.501 30.0737C156.084 30.0737 155.749 29.954 155.497 29.7145C155.252 29.4689 155.129 29.1006 155.129 28.6094V26.0492H154.263V25.3585H155.129V23.9495H155.912V25.3585H157.155V26.0492H155.912V28.637C155.912 28.8765 155.973 29.0576 156.096 29.1804C156.219 29.3032 156.384 29.3646 156.593 29.3646C156.82 29.3646 157.014 29.3247 157.173 29.2448L157.229 29.9632ZM157.658 27.6793C157.658 27.2372 157.747 26.8351 157.925 26.4728C158.109 26.1045 158.37 25.8159 158.707 25.6072C159.051 25.3923 159.45 25.2848 159.905 25.2848C160.347 25.2848 160.737 25.3831 161.074 25.5795C161.412 25.7699 161.67 26.0339 161.848 26.3715C162.032 26.7031 162.124 27.0684 162.124 27.4674C162.124 27.5964 162.118 27.71 162.106 27.8082H158.44C158.465 28.2871 158.612 28.6708 158.882 28.9593C159.153 29.2418 159.506 29.383 159.941 29.383C160.291 29.383 160.586 29.3032 160.826 29.1435C161.065 28.9839 161.218 28.7598 161.286 28.4713L162.023 28.6462C161.906 29.0944 161.664 29.4444 161.295 29.6961C160.927 29.9478 160.476 30.0737 159.941 30.0737C159.487 30.0737 159.085 29.9693 158.735 29.7606C158.391 29.5457 158.124 29.2571 157.934 28.8949C157.75 28.5265 157.658 28.1213 157.658 27.6793ZM161.295 27.1727C161.258 26.8044 161.117 26.5066 160.872 26.2794C160.626 26.0523 160.304 25.9387 159.905 25.9387C159.542 25.9387 159.235 26.0492 158.984 26.2702C158.732 26.4851 158.566 26.786 158.486 27.1727H161.295ZM163.366 26.0492H162.574V25.3585H163.366V24.9257C163.366 24.4284 163.492 24.0447 163.743 23.7745C163.995 23.4982 164.327 23.3601 164.738 23.3601C164.984 23.3601 165.192 23.3847 165.364 23.4338L165.327 24.1337C165.168 24.0723 165.005 24.0416 164.839 24.0416C164.631 24.0416 164.462 24.1183 164.333 24.2718C164.21 24.4192 164.149 24.6156 164.149 24.8612V25.3585H165.337V26.0492H164.149V30H163.366V26.0492ZM167.962 30.0737C167.508 30.0737 167.1 29.9724 166.737 29.7698C166.381 29.561 166.102 29.2755 165.899 28.9133C165.703 28.5511 165.605 28.1397 165.605 27.6793C165.605 27.2188 165.703 26.8074 165.899 26.4452C166.102 26.083 166.381 25.8006 166.737 25.598C167.1 25.3892 167.508 25.2848 167.962 25.2848C168.417 25.2848 168.822 25.3892 169.178 25.598C169.54 25.8006 169.823 26.083 170.025 26.4452C170.228 26.8074 170.329 27.2188 170.329 27.6793C170.329 28.1397 170.228 28.5511 170.025 28.9133C169.823 29.2755 169.54 29.561 169.178 29.7698C168.822 29.9724 168.417 30.0737 167.962 30.0737ZM166.406 27.6793C166.406 28.1766 166.55 28.5848 166.839 28.9041C167.127 29.2172 167.502 29.3738 167.962 29.3738C168.423 29.3738 168.797 29.2172 169.086 28.9041C169.374 28.5848 169.519 28.1766 169.519 27.6793C169.519 27.182 169.374 26.7767 169.086 26.4636C168.797 26.1444 168.423 25.9847 167.962 25.9847C167.502 25.9847 167.127 26.1444 166.839 26.4636C166.55 26.7767 166.406 27.182 166.406 27.6793ZM173.947 26.1229C173.775 26.0492 173.576 26.0124 173.348 26.0124C172.956 26.0124 172.633 26.2027 172.381 26.5833C172.136 26.9579 172.013 27.5073 172.013 28.2318V30H171.23V25.3585H172.013V26.2979C172.148 26.0032 172.351 25.7607 172.621 25.5703C172.891 25.38 173.17 25.2848 173.459 25.2848C173.662 25.2848 173.84 25.3125 173.993 25.3677L173.947 26.1229ZM174.655 25.3585H175.438V26.2334C175.561 25.9448 175.739 25.7146 175.972 25.5427C176.212 25.3708 176.5 25.2848 176.838 25.2848C177.219 25.2848 177.544 25.3708 177.814 25.5427C178.09 25.7146 178.268 25.954 178.348 26.261C178.477 25.9725 178.674 25.7392 178.938 25.5611C179.208 25.3769 179.512 25.2848 179.849 25.2848C180.347 25.2848 180.74 25.4291 181.028 25.7177C181.323 26.0062 181.47 26.3961 181.47 26.8873V30H180.687V27.0438C180.687 26.7184 180.598 26.4606 180.42 26.2702C180.242 26.0738 179.994 25.9755 179.674 25.9755C179.288 25.9755 178.987 26.1321 178.772 26.4452C178.557 26.7583 178.45 27.1666 178.45 27.67V30H177.667V27.0438C177.667 26.7184 177.578 26.4606 177.4 26.2702C177.228 26.0738 176.982 25.9755 176.663 25.9755C176.276 25.9755 175.975 26.1321 175.76 26.4452C175.546 26.7583 175.438 27.1666 175.438 27.67V30H174.655V25.3585ZM182.373 27.6793C182.373 27.2372 182.462 26.8351 182.64 26.4728C182.824 26.1045 183.085 25.8159 183.423 25.6072C183.767 25.3923 184.166 25.2848 184.62 25.2848C185.062 25.2848 185.452 25.3831 185.79 25.5795C186.127 25.7699 186.385 26.0339 186.563 26.3715C186.747 26.7031 186.839 27.0684 186.839 27.4674C186.839 27.5964 186.833 27.71 186.821 27.8082H183.156C183.18 28.2871 183.328 28.6708 183.598 28.9593C183.868 29.2418 184.221 29.383 184.657 29.383C185.007 29.383 185.301 29.3032 185.541 29.1435C185.78 28.9839 185.934 28.7598 186.001 28.4713L186.738 28.6462C186.621 29.0944 186.379 29.4444 186.011 29.6961C185.642 29.9478 185.191 30.0737 184.657 30.0737C184.202 30.0737 183.8 29.9693 183.45 29.7606C183.107 29.5457 182.839 29.2571 182.649 28.8949C182.465 28.5265 182.373 28.1213 182.373 27.6793ZM186.011 27.1727C185.974 26.8044 185.832 26.5066 185.587 26.2794C185.341 26.0523 185.019 25.9387 184.62 25.9387C184.258 25.9387 183.951 26.0492 183.699 26.2702C183.447 26.4851 183.282 26.786 183.202 27.1727H186.011ZM189.267 30.0737C188.752 30.0737 188.328 29.9417 187.996 29.6777C187.671 29.4137 187.45 29.0944 187.333 28.7199L188.006 28.4252C188.214 29.0821 188.635 29.4106 189.267 29.4106C189.544 29.4106 189.768 29.3431 189.94 29.208C190.118 29.0668 190.207 28.898 190.207 28.7015C190.207 28.5357 190.154 28.4007 190.05 28.2963C189.952 28.1919 189.829 28.1121 189.682 28.0568C189.534 28.0016 189.329 27.9402 189.065 27.8727C188.733 27.7867 188.466 27.7038 188.263 27.624C188.067 27.538 187.895 27.4091 187.748 27.2372C187.607 27.0592 187.536 26.8197 187.536 26.5189C187.536 26.1505 187.683 25.8527 187.978 25.6256C188.273 25.3984 188.669 25.2848 189.166 25.2848C189.577 25.2848 189.943 25.3923 190.262 25.6072C190.587 25.8159 190.796 26.0891 190.888 26.4268L190.234 26.7123C190.173 26.479 190.038 26.2917 189.829 26.1505C189.626 26.0032 189.399 25.9295 189.148 25.9295C188.884 25.9295 188.675 25.9817 188.521 26.086C188.374 26.1843 188.3 26.3255 188.3 26.5097C188.3 26.6939 188.383 26.832 188.549 26.9241C188.715 27.01 188.97 27.0929 189.313 27.1727C189.657 27.2587 189.94 27.3477 190.161 27.4398C190.382 27.5258 190.572 27.67 190.732 27.8727C190.891 28.0691 190.971 28.3393 190.971 28.6831C190.971 29.0944 190.814 29.429 190.501 29.6869C190.188 29.9447 189.777 30.0737 189.267 30.0737ZM195.956 30.0737C195.489 30.0737 195.087 29.9724 194.749 29.7698C194.412 29.561 194.154 29.2755 193.976 28.9133C193.804 28.5511 193.718 28.1397 193.718 27.6793C193.718 27.2188 193.804 26.8074 193.976 26.4452C194.154 26.083 194.409 25.8006 194.74 25.598C195.078 25.3892 195.48 25.2848 195.947 25.2848C196.254 25.2848 196.545 25.3524 196.822 25.4874C197.104 25.6225 197.319 25.8006 197.466 26.0216V23.4798H198.249V30H197.466V29.3277C197.362 29.5426 197.168 29.7207 196.886 29.8619C196.604 30.0031 196.294 30.0737 195.956 30.0737ZM194.519 27.6793C194.519 28.1888 194.657 28.6002 194.934 28.9133C195.21 29.2203 195.575 29.3738 196.03 29.3738C196.484 29.3738 196.849 29.2203 197.125 28.9133C197.402 28.6002 197.54 28.1888 197.54 27.6793C197.54 27.1697 197.402 26.7614 197.125 26.4544C196.849 26.1413 196.484 25.9847 196.03 25.9847C195.575 25.9847 195.21 26.1413 194.934 26.4544C194.657 26.7614 194.519 27.1697 194.519 27.6793ZM199.149 27.6793C199.149 27.2372 199.238 26.8351 199.416 26.4728C199.6 26.1045 199.861 25.8159 200.198 25.6072C200.542 25.3923 200.941 25.2848 201.396 25.2848C201.838 25.2848 202.227 25.3831 202.565 25.5795C202.903 25.7699 203.161 26.0339 203.339 26.3715C203.523 26.7031 203.615 27.0684 203.615 27.4674C203.615 27.5964 203.609 27.71 203.597 27.8082H199.931C199.956 28.2871 200.103 28.6708 200.373 28.9593C200.643 29.2418 200.997 29.383 201.432 29.383C201.782 29.383 202.077 29.3032 202.317 29.1435C202.556 28.9839 202.709 28.7598 202.777 28.4713L203.514 28.6462C203.397 29.0944 203.155 29.4444 202.786 29.6961C202.418 29.9478 201.967 30.0737 201.432 30.0737C200.978 30.0737 200.576 29.9693 200.226 29.7606C199.882 29.5457 199.615 29.2571 199.425 28.8949C199.241 28.5265 199.149 28.1213 199.149 27.6793ZM202.786 27.1727C202.749 26.8044 202.608 26.5066 202.363 26.2794C202.117 26.0523 201.795 25.9387 201.396 25.9387C201.033 25.9387 200.726 26.0492 200.475 26.2702C200.223 26.4851 200.057 26.786 199.977 27.1727H202.786ZM208.209 30.0737C207.693 30.0737 207.269 29.9417 206.938 29.6777C206.613 29.4137 206.392 29.0944 206.275 28.7199L206.947 28.4252C207.156 29.0821 207.576 29.4106 208.209 29.4106C208.485 29.4106 208.709 29.3431 208.881 29.208C209.059 29.0668 209.148 28.898 209.148 28.7015C209.148 28.5357 209.096 28.4007 208.992 28.2963C208.893 28.1919 208.771 28.1121 208.623 28.0568C208.476 28.0016 208.27 27.9402 208.006 27.8727C207.675 27.7867 207.408 27.7038 207.205 27.624C207.009 27.538 206.837 27.4091 206.689 27.2372C206.548 27.0592 206.477 26.8197 206.477 26.5189C206.477 26.1505 206.625 25.8527 206.92 25.6256C207.214 25.3984 207.61 25.2848 208.108 25.2848C208.519 25.2848 208.884 25.3923 209.203 25.6072C209.529 25.8159 209.738 26.0891 209.83 26.4268L209.176 26.7123C209.114 26.479 208.979 26.2917 208.771 26.1505C208.568 26.0032 208.341 25.9295 208.089 25.9295C207.825 25.9295 207.616 25.9817 207.463 26.086C207.316 26.1843 207.242 26.3255 207.242 26.5097C207.242 26.6939 207.325 26.832 207.491 26.9241C207.656 27.01 207.911 27.0929 208.255 27.1727C208.599 27.2587 208.881 27.3477 209.102 27.4398C209.323 27.5258 209.513 27.67 209.673 27.8727C209.833 28.0691 209.913 28.3393 209.913 28.6831C209.913 29.0944 209.756 29.429 209.443 29.6869C209.13 29.9447 208.718 30.0737 208.209 30.0737ZM213.211 29.9632C213.008 30.0368 212.766 30.0737 212.483 30.0737C212.066 30.0737 211.731 29.954 211.479 29.7145C211.234 29.4689 211.111 29.1006 211.111 28.6094V26.0492H210.245V25.3585H211.111V23.9495H211.894V25.3585H213.137V26.0492H211.894V28.637C211.894 28.8765 211.955 29.0576 212.078 29.1804C212.201 29.3032 212.367 29.3646 212.575 29.3646C212.803 29.3646 212.996 29.3247 213.156 29.2448L213.211 29.9632ZM216.741 26.1229C216.569 26.0492 216.369 26.0124 216.142 26.0124C215.749 26.0124 215.427 26.2027 215.175 26.5833C214.929 26.9579 214.807 27.5073 214.807 28.2318V30H214.024V25.3585H214.807V26.2979C214.942 26.0032 215.144 25.7607 215.414 25.5703C215.685 25.38 215.964 25.2848 216.252 25.2848C216.455 25.2848 216.633 25.3125 216.787 25.3677L216.741 26.1229ZM216.966 27.6793C216.966 27.2372 217.055 26.8351 217.233 26.4728C217.417 26.1045 217.678 25.8159 218.016 25.6072C218.36 25.3923 218.759 25.2848 219.213 25.2848C219.655 25.2848 220.045 25.3831 220.383 25.5795C220.72 25.7699 220.978 26.0339 221.156 26.3715C221.34 26.7031 221.432 27.0684 221.432 27.4674C221.432 27.5964 221.426 27.71 221.414 27.8082H217.749C217.773 28.2871 217.921 28.6708 218.191 28.9593C218.461 29.2418 218.814 29.383 219.25 29.383C219.6 29.383 219.894 29.3032 220.134 29.1435C220.373 28.9839 220.527 28.7598 220.594 28.4713L221.331 28.6462C221.214 29.0944 220.972 29.4444 220.604 29.6961C220.235 29.9478 219.784 30.0737 219.25 30.0737C218.795 30.0737 218.393 29.9693 218.043 29.7606C217.7 29.5457 217.432 29.2571 217.242 28.8949C217.058 28.5265 216.966 28.1213 216.966 27.6793ZM220.604 27.1727C220.567 26.8044 220.425 26.5066 220.18 26.2794C219.934 26.0523 219.612 25.9387 219.213 25.9387C218.851 25.9387 218.544 26.0492 218.292 26.2702C218.04 26.4851 217.875 26.786 217.795 27.1727H220.604ZM225.159 26.9793C225.159 26.6601 225.054 26.4084 224.846 26.2242C224.643 26.0339 224.37 25.9387 224.026 25.9387C223.707 25.9387 223.443 26.0277 223.234 26.2058C223.025 26.3838 222.906 26.6294 222.875 26.9425L222.147 26.8044C222.215 26.3439 222.421 25.9755 222.764 25.6993C223.114 25.423 223.535 25.2848 224.026 25.2848C224.597 25.2848 225.058 25.4414 225.407 25.7545C225.757 26.0676 225.932 26.4913 225.932 27.0254V30H225.159V29.208C225.024 29.472 224.815 29.6838 224.533 29.8434C224.256 29.9969 223.949 30.0737 223.612 30.0737C223.151 30.0737 222.774 29.9478 222.479 29.6961C222.19 29.4382 222.046 29.1067 222.046 28.7015C222.046 28.2594 222.227 27.9126 222.589 27.6608C222.958 27.4091 223.513 27.2464 224.256 27.1727L225.159 27.0714V26.9793ZM222.829 28.6923C222.829 28.9072 222.912 29.0852 223.078 29.2264C223.249 29.3615 223.467 29.429 223.731 29.429C224.18 29.429 224.53 29.2909 224.781 29.0146C225.033 28.7383 225.159 28.3669 225.159 27.9003V27.6793L224.256 27.7806C223.79 27.8297 223.434 27.934 223.188 28.0937C222.949 28.2472 222.829 28.4467 222.829 28.6923ZM227.105 25.3585H227.887V26.2334C228.01 25.9448 228.188 25.7146 228.422 25.5427C228.661 25.3708 228.95 25.2848 229.287 25.2848C229.668 25.2848 229.993 25.3708 230.263 25.5427C230.54 25.7146 230.718 25.954 230.798 26.261C230.927 25.9725 231.123 25.7392 231.387 25.5611C231.657 25.3769 231.961 25.2848 232.299 25.2848C232.796 25.2848 233.189 25.4291 233.478 25.7177C233.772 26.0062 233.92 26.3961 233.92 26.8873V30H233.137V27.0438C233.137 26.7184 233.048 26.4606 232.87 26.2702C232.692 26.0738 232.443 25.9755 232.124 25.9755C231.737 25.9755 231.436 26.1321 231.221 26.4452C231.006 26.7583 230.899 27.1666 230.899 27.67V30H230.116V27.0438C230.116 26.7184 230.027 26.4606 229.849 26.2702C229.677 26.0738 229.432 25.9755 229.112 25.9755C228.726 25.9755 228.425 26.1321 228.21 26.4452C227.995 26.7583 227.887 27.1666 227.887 27.67V30H227.105V25.3585ZM235.089 25.3585H235.872V30H235.089V25.3585ZM235.937 23.4798V24.4744H235.034V23.4798H235.937ZM237.039 25.3585H237.822V26.2334C237.988 25.9448 238.209 25.7146 238.485 25.5427C238.762 25.3708 239.072 25.2848 239.415 25.2848C239.9 25.2848 240.296 25.4353 240.603 25.7361C240.916 26.0369 241.073 26.4329 241.073 26.9241V30H240.29V27.0714C240.29 26.7522 240.195 26.4943 240.005 26.2979C239.814 26.0953 239.56 25.994 239.24 25.994C238.804 25.994 238.458 26.172 238.2 26.5281C237.948 26.878 237.822 27.3569 237.822 27.9647V30H237.039V25.3585ZM244.188 29.8803C243.722 29.8803 243.323 29.782 242.991 29.5856C242.659 29.3891 242.408 29.119 242.236 28.7752C242.064 28.4252 241.978 28.0292 241.978 27.5872C241.978 27.1451 242.064 26.7491 242.236 26.3992C242.408 26.0492 242.656 25.776 242.982 25.5795C243.313 25.3831 243.709 25.2848 244.17 25.2848C244.477 25.2848 244.768 25.3524 245.045 25.4874C245.321 25.6164 245.53 25.7821 245.671 25.9847V25.3585H246.444V29.779C246.444 30.1658 246.352 30.5065 246.168 30.8012C245.99 31.102 245.735 31.3353 245.404 31.5011C245.078 31.6669 244.704 31.7498 244.28 31.7498C243.74 31.7498 243.28 31.6178 242.899 31.3538C242.518 31.0959 242.294 30.7582 242.227 30.3407L242.982 30.2118C243.006 30.4697 243.138 30.6784 243.378 30.838C243.623 31.0038 243.924 31.0867 244.28 31.0867C244.692 31.0867 245.026 30.9731 245.284 30.746C245.542 30.5188 245.671 30.2241 245.671 29.8619V29.2172C245.567 29.4137 245.376 29.5733 245.1 29.6961C244.824 29.8189 244.52 29.8803 244.188 29.8803ZM242.779 27.5872C242.779 28.0722 242.914 28.459 243.184 28.7475C243.455 29.0361 243.814 29.1804 244.262 29.1804C244.71 29.1804 245.066 29.0361 245.33 28.7475C245.6 28.459 245.735 28.0722 245.735 27.5872C245.735 27.1021 245.6 26.7153 245.33 26.4268C245.066 26.1321 244.71 25.9847 244.262 25.9847C243.808 25.9847 243.445 26.1321 243.175 26.4268C242.911 26.7153 242.779 27.1021 242.779 27.5872ZM42.054 36.3585H42.8368V37.2334C42.9596 36.9448 43.1376 36.7146 43.371 36.5427C43.6104 36.3708 43.899 36.2848 44.2366 36.2848C44.6173 36.2848 44.9427 36.3708 45.2128 36.5427C45.4891 36.7146 45.6671 36.954 45.747 37.261C45.8759 36.9725 46.0723 36.7392 46.3363 36.5611C46.6065 36.3769 46.9104 36.2848 47.2481 36.2848C47.7454 36.2848 48.1383 36.4291 48.4269 36.7177C48.7216 37.0062 48.8689 37.3961 48.8689 37.8873V41H48.0861V38.0438C48.0861 37.7184 47.9971 37.4606 47.819 37.2702C47.641 37.0738 47.3923 36.9755 47.0731 36.9755C46.6863 36.9755 46.3855 37.1321 46.1706 37.4452C45.9557 37.7583 45.8483 38.1666 45.8483 38.67V41H45.0655V38.0438C45.0655 37.7184 44.9764 37.4606 44.7984 37.2702C44.6265 37.0738 44.3809 36.9755 44.0616 36.9755C43.6749 36.9755 43.374 37.1321 43.1591 37.4452C42.9443 37.7583 42.8368 38.1666 42.8368 38.67V41H42.054V36.3585ZM54.0274 41H53.2446V40.1251C53.0788 40.4137 52.8578 40.6439 52.5815 40.8158C52.3052 40.9877 51.9952 41.0737 51.6514 41.0737C51.1664 41.0737 50.7673 40.9233 50.4542 40.6224C50.1472 40.3216 49.9937 39.9256 49.9937 39.4344V36.3585H50.7765V39.2871C50.7765 39.6063 50.8717 39.8673 51.062 40.0699C51.2523 40.2663 51.5071 40.3646 51.8264 40.3646C52.2623 40.3646 52.6061 40.1896 52.8578 39.8396C53.1157 39.4835 53.2446 39.0016 53.2446 38.3938V36.3585H54.0274V41ZM56.765 41.0737C56.2492 41.0737 55.8256 40.9417 55.4941 40.6777C55.1687 40.4137 54.9477 40.0944 54.831 39.7199L55.5033 39.4252C55.712 40.0821 56.1326 40.4106 56.765 40.4106C57.0412 40.4106 57.2653 40.3431 57.4372 40.208C57.6153 40.0668 57.7043 39.898 57.7043 39.7015C57.7043 39.5357 57.6521 39.4007 57.5478 39.2963C57.4495 39.1919 57.3267 39.1121 57.1794 39.0568C57.032 39.0016 56.8264 38.9402 56.5624 38.8727C56.2308 38.7867 55.9638 38.7038 55.7612 38.624C55.5647 38.538 55.3928 38.4091 55.2454 38.2372C55.1042 38.0592 55.0336 37.8197 55.0336 37.5189C55.0336 37.1505 55.181 36.8527 55.4757 36.6256C55.7704 36.3984 56.1664 36.2848 56.6637 36.2848C57.075 36.2848 57.4403 36.3923 57.7596 36.6072C58.085 36.8159 58.2937 37.0891 58.3858 37.4268L57.7319 37.7123C57.6705 37.479 57.5355 37.2917 57.3267 37.1505C57.1241 37.0032 56.897 36.9295 56.6452 36.9295C56.3812 36.9295 56.1725 36.9817 56.019 37.086C55.8717 37.1843 55.798 37.3255 55.798 37.5097C55.798 37.6939 55.8809 37.832 56.0466 37.9241C56.2124 38.01 56.4672 38.0929 56.811 38.1727C57.1548 38.2587 57.4372 38.3477 57.6583 38.4398C57.8793 38.5258 58.0696 38.67 58.2292 38.8727C58.3889 39.0691 58.4687 39.3393 58.4687 39.6831C58.4687 40.0944 58.3121 40.429 57.999 40.6869C57.6859 40.9447 57.2745 41.0737 56.765 41.0737ZM59.3618 36.3585H60.1446V41H59.3618V36.3585ZM60.2091 34.4798V35.4744H59.3066V34.4798H60.2091ZM63.3471 41.0737C62.8928 41.0737 62.4907 40.9754 62.1407 40.779C61.7907 40.5764 61.5206 40.294 61.3303 39.9317C61.14 39.5695 61.0448 39.152 61.0448 38.6793C61.0448 38.2065 61.14 37.789 61.3303 37.4268C61.5206 37.0646 61.7907 36.7852 62.1407 36.5887C62.4907 36.3861 62.8928 36.2848 63.3471 36.2848C63.8874 36.2848 64.3387 36.423 64.7009 36.6993C65.0693 36.9694 65.2964 37.3347 65.3824 37.7952L64.6088 37.9517C64.5597 37.6693 64.4215 37.4391 64.1944 37.261C63.9672 37.0768 63.6909 36.9847 63.3655 36.9847C62.9112 36.9847 62.5459 37.1413 62.2696 37.4544C61.9995 37.7614 61.8644 38.1697 61.8644 38.6793C61.8644 39.1888 61.9995 39.6002 62.2696 39.9133C62.5459 40.2203 62.9112 40.3738 63.3655 40.3738C63.6971 40.3738 63.9734 40.2878 64.1944 40.1159C64.4215 39.944 64.5658 39.7046 64.6272 39.3976L65.3916 39.5541C65.2934 40.033 65.06 40.4075 64.6917 40.6777C64.3294 40.9417 63.8813 41.0737 63.3471 41.0737ZM69.1298 37.9793C69.1298 37.6601 69.0254 37.4084 68.8167 37.2242C68.6141 37.0339 68.3409 36.9387 67.9971 36.9387C67.6778 36.9387 67.4138 37.0277 67.2051 37.2058C66.9963 37.3838 66.8766 37.6294 66.8459 37.9425L66.1184 37.8044C66.1859 37.3439 66.3916 36.9755 66.7354 36.6993C67.0853 36.423 67.5059 36.2848 67.9971 36.2848C68.568 36.2848 69.0285 36.4414 69.3785 36.7545C69.7284 37.0676 69.9034 37.4913 69.9034 38.0254V41H69.1298V40.208C68.9947 40.472 68.786 40.6838 68.5036 40.8434C68.2273 40.9969 67.9203 41.0737 67.5827 41.0737C67.1222 41.0737 66.7446 40.9478 66.4499 40.6961C66.1613 40.4382 66.0171 40.1067 66.0171 39.7015C66.0171 39.2594 66.1982 38.9126 66.5604 38.6608C66.9288 38.4091 67.4844 38.2464 68.2273 38.1727L69.1298 38.0714V37.9793ZM66.7999 39.6923C66.7999 39.9072 66.8827 40.0852 67.0485 40.2264C67.2204 40.3615 67.4384 40.429 67.7024 40.429C68.1506 40.429 68.5005 40.2909 68.7522 40.0146C69.004 39.7383 69.1298 39.3669 69.1298 38.9003V38.6793L68.2273 38.7806C67.7607 38.8297 67.4046 38.934 67.159 39.0937C66.9196 39.2472 66.7999 39.4467 66.7999 39.6923ZM71.0757 34.4798H71.8585V41H71.0757V34.4798ZM73.9651 40.0422V41H72.9889V40.0422H73.9651ZM116.435 36.3585H117.218V37.0308C117.347 36.8159 117.549 36.6379 117.826 36.4967C118.108 36.3554 118.415 36.2848 118.747 36.2848C119.213 36.2848 119.612 36.3892 119.944 36.598C120.275 36.8006 120.527 37.083 120.699 37.4452C120.877 37.8074 120.966 38.2188 120.966 38.6793C120.966 39.1397 120.877 39.5511 120.699 39.9133C120.521 40.2755 120.263 40.561 119.925 40.7698C119.594 40.9724 119.195 41.0737 118.728 41.0737C118.434 41.0737 118.148 41.0092 117.872 40.8803C117.596 40.7452 117.378 40.5702 117.218 40.3553V42.6761H116.435V36.3585ZM117.153 38.6793C117.153 39.1888 117.289 39.6002 117.559 39.9133C117.835 40.2203 118.2 40.3738 118.655 40.3738C119.115 40.3738 119.483 40.2203 119.76 39.9133C120.036 39.6002 120.174 39.1888 120.174 38.6793C120.174 38.1697 120.036 37.7614 119.76 37.4544C119.483 37.1413 119.115 36.9847 118.655 36.9847C118.2 36.9847 117.835 37.1413 117.559 37.4544C117.289 37.7614 117.153 38.1697 117.153 38.6793ZM123.956 41.0737C123.502 41.0737 123.094 40.9724 122.731 40.7698C122.375 40.561 122.096 40.2755 121.893 39.9133C121.697 39.5511 121.599 39.1397 121.599 38.6793C121.599 38.2188 121.697 37.8074 121.893 37.4452C122.096 37.083 122.375 36.8006 122.731 36.598C123.094 36.3892 123.502 36.2848 123.956 36.2848C124.411 36.2848 124.816 36.3892 125.172 36.598C125.534 36.8006 125.816 37.083 126.019 37.4452C126.222 37.8074 126.323 38.2188 126.323 38.6793C126.323 39.1397 126.222 39.5511 126.019 39.9133C125.816 40.2755 125.534 40.561 125.172 40.7698C124.816 40.9724 124.411 41.0737 123.956 41.0737ZM122.4 38.6793C122.4 39.1766 122.544 39.5848 122.833 39.9041C123.121 40.2172 123.496 40.3738 123.956 40.3738C124.417 40.3738 124.791 40.2172 125.08 39.9041C125.368 39.5848 125.513 39.1766 125.513 38.6793C125.513 38.182 125.368 37.7767 125.08 37.4636C124.791 37.1444 124.417 36.9847 123.956 36.9847C123.496 36.9847 123.121 37.1444 122.833 37.4636C122.544 37.7767 122.4 38.182 122.4 38.6793ZM131.258 41H130.475V40.1251C130.309 40.4137 130.088 40.6439 129.812 40.8158C129.536 40.9877 129.226 41.0737 128.882 41.0737C128.397 41.0737 127.998 40.9233 127.685 40.6224C127.378 40.3216 127.224 39.9256 127.224 39.4344V36.3585H128.007V39.2871C128.007 39.6063 128.102 39.8673 128.293 40.0699C128.483 40.2663 128.738 40.3646 129.057 40.3646C129.493 40.3646 129.837 40.1896 130.088 39.8396C130.346 39.4835 130.475 39.0016 130.475 38.3938V36.3585H131.258V41ZM135.147 37.1229C134.975 37.0492 134.775 37.0124 134.548 37.0124C134.155 37.0124 133.833 37.2027 133.581 37.5833C133.335 37.9579 133.213 38.5073 133.213 39.2318V41H132.43V36.3585H133.213V37.2979C133.348 37.0032 133.55 36.7607 133.821 36.5703C134.091 36.38 134.37 36.2848 134.659 36.2848C134.861 36.2848 135.039 36.3125 135.193 36.3677L135.147 37.1229ZM137.709 38.6793C137.709 38.2372 137.798 37.8351 137.976 37.4728C138.16 37.1045 138.421 36.8159 138.759 36.6072C139.102 36.3923 139.501 36.2848 139.956 36.2848C140.398 36.2848 140.788 36.3831 141.125 36.5795C141.463 36.7699 141.721 37.0339 141.899 37.3715C142.083 37.7031 142.175 38.0684 142.175 38.4674C142.175 38.5964 142.169 38.71 142.157 38.8082H138.492C138.516 39.2871 138.663 39.6708 138.934 39.9593C139.204 40.2418 139.557 40.383 139.993 40.383C140.343 40.383 140.637 40.3032 140.877 40.1435C141.116 39.9839 141.27 39.7598 141.337 39.4713L142.074 39.6462C141.957 40.0944 141.715 40.4444 141.346 40.6961C140.978 40.9478 140.527 41.0737 139.993 41.0737C139.538 41.0737 139.136 40.9693 138.786 40.7606C138.442 40.5457 138.175 40.2571 137.985 39.8949C137.801 39.5265 137.709 39.1213 137.709 38.6793ZM141.346 38.1727C141.31 37.8044 141.168 37.5066 140.923 37.2794C140.677 37.0523 140.355 36.9387 139.956 36.9387C139.594 36.9387 139.287 37.0492 139.035 37.2702C138.783 37.4851 138.617 37.786 138.538 38.1727H141.346ZM140.195 34.4798H141.181L140.103 35.8428H139.532L140.195 34.4798ZM145.118 41.0737C144.663 41.0737 144.261 40.9754 143.911 40.779C143.561 40.5764 143.291 40.294 143.101 39.9317C142.911 39.5695 142.815 39.152 142.815 38.6793C142.815 38.2065 142.911 37.789 143.101 37.4268C143.291 37.0646 143.561 36.7852 143.911 36.5887C144.261 36.3861 144.663 36.2848 145.118 36.2848C145.658 36.2848 146.109 36.423 146.472 36.6993C146.84 36.9694 147.067 37.3347 147.153 37.7952L146.379 37.9517C146.33 37.6693 146.192 37.4391 145.965 37.261C145.738 37.0768 145.462 36.9847 145.136 36.9847C144.682 36.9847 144.317 37.1413 144.04 37.4544C143.77 37.7614 143.635 38.1697 143.635 38.6793C143.635 39.1888 143.77 39.6002 144.04 39.9133C144.317 40.2203 144.682 40.3738 145.136 40.3738C145.468 40.3738 145.744 40.2878 145.965 40.1159C146.192 39.944 146.337 39.7046 146.398 39.3976L147.162 39.5541C147.064 40.033 146.831 40.4075 146.462 40.6777C146.1 40.9417 145.652 41.0737 145.118 41.0737ZM150.037 41.0737C149.583 41.0737 149.174 40.9724 148.812 40.7698C148.456 40.561 148.177 40.2755 147.974 39.9133C147.778 39.5511 147.679 39.1397 147.679 38.6793C147.679 38.2188 147.778 37.8074 147.974 37.4452C148.177 37.083 148.456 36.8006 148.812 36.598C149.174 36.3892 149.583 36.2848 150.037 36.2848C150.491 36.2848 150.897 36.3892 151.253 36.598C151.615 36.8006 151.897 37.083 152.1 37.4452C152.302 37.8074 152.404 38.2188 152.404 38.6793C152.404 39.1397 152.302 39.5511 152.1 39.9133C151.897 40.2755 151.615 40.561 151.253 40.7698C150.897 40.9724 150.491 41.0737 150.037 41.0737ZM148.481 38.6793C148.481 39.1766 148.625 39.5848 148.913 39.9041C149.202 40.2172 149.577 40.3738 150.037 40.3738C150.497 40.3738 150.872 40.2172 151.161 39.9041C151.449 39.5848 151.593 39.1766 151.593 38.6793C151.593 38.182 151.449 37.7767 151.161 37.4636C150.872 37.1444 150.497 36.9847 150.037 36.9847C149.577 36.9847 149.202 37.1444 148.913 37.4636C148.625 37.7767 148.481 38.182 148.481 38.6793ZM157.339 41H156.556V40.1251C156.39 40.4137 156.169 40.6439 155.893 40.8158C155.617 40.9877 155.307 41.0737 154.963 41.0737C154.478 41.0737 154.079 40.9233 153.766 40.6224C153.459 40.3216 153.305 39.9256 153.305 39.4344V36.3585H154.088V39.2871C154.088 39.6063 154.183 39.8673 154.373 40.0699C154.564 40.2663 154.818 40.3646 155.138 40.3646C155.574 40.3646 155.917 40.1896 156.169 39.8396C156.427 39.4835 156.556 39.0016 156.556 38.3938V36.3585H157.339V41ZM160.979 40.9632C160.776 41.0368 160.534 41.0737 160.251 41.0737C159.834 41.0737 159.499 40.954 159.247 40.7145C159.002 40.4689 158.879 40.1006 158.879 39.6094V37.0492H158.013V36.3585H158.879V34.9495H159.662V36.3585H160.905V37.0492H159.662V39.637C159.662 39.8765 159.723 40.0576 159.846 40.1804C159.969 40.3032 160.135 40.3646 160.343 40.3646C160.571 40.3646 160.764 40.3247 160.924 40.2448L160.979 40.9632ZM161.408 38.6793C161.408 38.2372 161.497 37.8351 161.675 37.4728C161.859 37.1045 162.12 36.8159 162.458 36.6072C162.801 36.3923 163.201 36.2848 163.655 36.2848C164.097 36.2848 164.487 36.3831 164.824 36.5795C165.162 36.7699 165.42 37.0339 165.598 37.3715C165.782 37.7031 165.874 38.0684 165.874 38.4674C165.874 38.5964 165.868 38.71 165.856 38.8082H162.191C162.215 39.2871 162.363 39.6708 162.633 39.9593C162.903 40.2418 163.256 40.383 163.692 40.383C164.042 40.383 164.336 40.3032 164.576 40.1435C164.815 39.9839 164.969 39.7598 165.036 39.4713L165.773 39.6462C165.656 40.0944 165.414 40.4444 165.045 40.6961C164.677 40.9478 164.226 41.0737 163.692 41.0737C163.237 41.0737 162.835 40.9693 162.485 40.7606C162.141 40.5457 161.874 40.2571 161.684 39.8949C161.5 39.5265 161.408 39.1213 161.408 38.6793ZM165.045 38.1727C165.009 37.8044 164.867 37.5066 164.622 37.2794C164.376 37.0523 164.054 36.9387 163.655 36.9387C163.293 36.9387 162.986 37.0492 162.734 37.2702C162.482 37.4851 162.316 37.786 162.237 38.1727H165.045ZM169.498 37.1229C169.326 37.0492 169.127 37.0124 168.9 37.0124C168.507 37.0124 168.185 37.2027 167.933 37.5833C167.687 37.9579 167.564 38.5073 167.564 39.2318V41H166.782V36.3585H167.564V37.2979C167.699 37.0032 167.902 36.7607 168.172 36.5703C168.442 36.38 168.722 36.2848 169.01 36.2848C169.213 36.2848 169.391 36.3125 169.544 36.3677L169.498 37.1229ZM172.328 36.3585H173.11V37.2334C173.233 36.9448 173.411 36.7146 173.644 36.5427C173.884 36.3708 174.172 36.2848 174.51 36.2848C174.891 36.2848 175.216 36.3708 175.486 36.5427C175.763 36.7146 175.941 36.954 176.02 37.261C176.149 36.9725 176.346 36.7392 176.61 36.5611C176.88 36.3769 177.184 36.2848 177.522 36.2848C178.019 36.2848 178.412 36.4291 178.7 36.7177C178.995 37.0062 179.142 37.3961 179.142 37.8873V41H178.36V38.0438C178.36 37.7184 178.271 37.4606 178.093 37.2702C177.914 37.0738 177.666 36.9755 177.347 36.9755C176.96 36.9755 176.659 37.1321 176.444 37.4452C176.229 37.7583 176.122 38.1666 176.122 38.67V41H175.339V38.0438C175.339 37.7184 175.25 37.4606 175.072 37.2702C174.9 37.0738 174.654 36.9755 174.335 36.9755C173.948 36.9755 173.648 37.1321 173.433 37.4452C173.218 37.7583 173.11 38.1666 173.11 38.67V41H172.328V36.3585ZM183.176 37.9793C183.176 37.6601 183.072 37.4084 182.863 37.2242C182.661 37.0339 182.387 36.9387 182.044 36.9387C181.724 36.9387 181.46 37.0277 181.252 37.2058C181.043 37.3838 180.923 37.6294 180.892 37.9425L180.165 37.8044C180.232 37.3439 180.438 36.9755 180.782 36.6993C181.132 36.423 181.552 36.2848 182.044 36.2848C182.614 36.2848 183.075 36.4414 183.425 36.7545C183.775 37.0676 183.95 37.4913 183.95 38.0254V41H183.176V40.208C183.041 40.472 182.832 40.6838 182.55 40.8434C182.274 40.9969 181.967 41.0737 181.629 41.0737C181.169 41.0737 180.791 40.9478 180.496 40.6961C180.208 40.4382 180.064 40.1067 180.064 39.7015C180.064 39.2594 180.245 38.9126 180.607 38.6608C180.975 38.4091 181.531 38.2464 182.274 38.1727L183.176 38.0714V37.9793ZM180.846 39.6923C180.846 39.9072 180.929 40.0852 181.095 40.2264C181.267 40.3615 181.485 40.429 181.749 40.429C182.197 40.429 182.547 40.2909 182.799 40.0146C183.05 39.7383 183.176 39.3669 183.176 38.9003V38.6793L182.274 38.7806C181.807 38.8297 181.451 38.934 181.205 39.0937C180.966 39.2472 180.846 39.4467 180.846 39.6923ZM185.122 36.3585H185.905V41H185.122V36.3585ZM185.969 34.4798V35.4744H185.067V34.4798H185.969ZM187.072 36.3585H187.855V37.2334C188.021 36.9448 188.242 36.7146 188.518 36.5427C188.794 36.3708 189.104 36.2848 189.448 36.2848C189.933 36.2848 190.329 36.4353 190.636 36.7361C190.949 37.0369 191.106 37.4329 191.106 37.9241V41H190.323V38.0714C190.323 37.7522 190.228 37.4943 190.038 37.2979C189.847 37.0953 189.592 36.994 189.273 36.994C188.837 36.994 188.49 37.172 188.233 37.5281C187.981 37.878 187.855 38.3569 187.855 38.9647V41H187.072V36.3585ZM194.575 40.9632C194.372 41.0368 194.13 41.0737 193.848 41.0737C193.43 41.0737 193.095 40.954 192.844 40.7145C192.598 40.4689 192.475 40.1006 192.475 39.6094V37.0492H191.61V36.3585H192.475V34.9495H193.258V36.3585H194.501V37.0492H193.258V39.637C193.258 39.8765 193.32 40.0576 193.442 40.1804C193.565 40.3032 193.731 40.3646 193.94 40.3646C194.167 40.3646 194.36 40.3247 194.52 40.2448L194.575 40.9632ZM195.004 38.6793C195.004 38.2372 195.093 37.8351 195.271 37.4728C195.455 37.1045 195.716 36.8159 196.054 36.6072C196.398 36.3923 196.797 36.2848 197.251 36.2848C197.693 36.2848 198.083 36.3831 198.421 36.5795C198.758 36.7699 199.016 37.0339 199.194 37.3715C199.378 37.7031 199.471 38.0684 199.471 38.4674C199.471 38.5964 199.464 38.71 199.452 38.8082H195.787C195.811 39.2871 195.959 39.6708 196.229 39.9593C196.499 40.2418 196.852 40.383 197.288 40.383C197.638 40.383 197.933 40.3032 198.172 40.1435C198.412 39.9839 198.565 39.7598 198.633 39.4713L199.369 39.6462C199.253 40.0944 199.01 40.4444 198.642 40.6961C198.273 40.9478 197.822 41.0737 197.288 41.0737C196.834 41.0737 196.432 40.9693 196.082 40.7606C195.738 40.5457 195.471 40.2571 195.28 39.8949C195.096 39.5265 195.004 39.1213 195.004 38.6793ZM198.642 38.1727C198.605 37.8044 198.464 37.5066 198.218 37.2794C197.973 37.0523 197.65 36.9387 197.251 36.9387C196.889 36.9387 196.582 37.0492 196.33 37.2702C196.078 37.4851 195.913 37.786 195.833 38.1727H198.642ZM200.378 36.3585H201.161V37.2334C201.326 36.9448 201.547 36.7146 201.824 36.5427C202.1 36.3708 202.41 36.2848 202.754 36.2848C203.239 36.2848 203.635 36.4353 203.942 36.7361C204.255 37.0369 204.412 37.4329 204.412 37.9241V41H203.629V38.0714C203.629 37.7522 203.534 37.4943 203.343 37.2979C203.153 37.0953 202.898 36.994 202.579 36.994C202.143 36.994 201.796 37.172 201.538 37.5281C201.287 37.878 201.161 38.3569 201.161 38.9647V41H200.378V36.3585ZM208.448 37.9793C208.448 37.6601 208.343 37.4084 208.135 37.2242C207.932 37.0339 207.659 36.9387 207.315 36.9387C206.996 36.9387 206.732 37.0277 206.523 37.2058C206.314 37.3838 206.194 37.6294 206.164 37.9425L205.436 37.8044C205.504 37.3439 205.709 36.9755 206.053 36.6993C206.403 36.423 206.824 36.2848 207.315 36.2848C207.886 36.2848 208.346 36.4414 208.696 36.7545C209.046 37.0676 209.221 37.4913 209.221 38.0254V41H208.448V40.208C208.313 40.472 208.104 40.6838 207.821 40.8434C207.545 40.9969 207.238 41.0737 206.9 41.0737C206.44 41.0737 206.062 40.9478 205.768 40.6961C205.479 40.4382 205.335 40.1067 205.335 39.7015C205.335 39.2594 205.516 38.9126 205.878 38.6608C206.247 38.4091 206.802 38.2464 207.545 38.1727L208.448 38.0714V37.9793ZM206.118 39.6923C206.118 39.9072 206.201 40.0852 206.366 40.2264C206.538 40.3615 206.756 40.429 207.02 40.429C207.468 40.429 207.818 40.2909 208.07 40.0146C208.322 39.7383 208.448 39.3669 208.448 38.9003V38.6793L207.545 38.7806C207.079 38.8297 206.722 38.934 206.477 39.0937C206.237 39.2472 206.118 39.4467 206.118 39.6923ZM210.394 36.3585H211.176V37.2334C211.342 36.9448 211.563 36.7146 211.839 36.5427C212.116 36.3708 212.426 36.2848 212.77 36.2848C213.255 36.2848 213.651 36.4353 213.958 36.7361C214.271 37.0369 214.427 37.4329 214.427 37.9241V41H213.644V38.0714C213.644 37.7522 213.549 37.4943 213.359 37.2979C213.169 37.0953 212.914 36.994 212.595 36.994C212.159 36.994 211.812 37.172 211.554 37.5281C211.302 37.878 211.176 38.3569 211.176 38.9647V41H210.394V36.3585ZM217.896 40.9632C217.694 41.0368 217.451 41.0737 217.169 41.0737C216.751 41.0737 216.417 40.954 216.165 40.7145C215.919 40.4689 215.797 40.1006 215.797 39.6094V37.0492H214.931V36.3585H215.797V34.9495H216.579V36.3585H217.823V37.0492H216.579V39.637C216.579 39.8765 216.641 40.0576 216.764 40.1804C216.886 40.3032 217.052 40.3646 217.261 40.3646C217.488 40.3646 217.682 40.3247 217.841 40.2448L217.896 40.9632ZM220.867 34.5535H221.88L221.659 39.1766H221.088L220.867 34.5535ZM220.886 40.0422H221.862V41H220.886V40.0422Z" fill="#B4BECB"/>
<path d="M80.0959 41.0737C79.5372 41.0737 79.0184 40.9509 78.5395 40.7053C78.0668 40.4536 77.6861 40.0821 77.3976 39.591C77.109 39.0937 76.9647 38.4889 76.9647 37.7767C76.9647 37.0707 77.109 36.469 77.3976 35.9717C77.6861 35.4744 78.0668 35.103 78.5395 34.8574C79.0184 34.6057 79.5372 34.4798 80.0959 34.4798C80.7958 34.4798 81.3883 34.664 81.8733 35.0324C82.3645 35.3946 82.6776 35.8888 82.8126 36.5151L81.9838 36.6993C81.8794 36.2327 81.6615 35.8704 81.3299 35.6126C81.0046 35.3547 80.5901 35.2258 80.0867 35.2258C79.6446 35.2258 79.2517 35.3271 78.9079 35.5297C78.5702 35.7261 78.3062 36.0178 78.1159 36.4046C77.9256 36.7852 77.8304 37.2426 77.8304 37.7767C77.8304 38.3109 77.9256 38.7713 78.1159 39.1581C78.3062 39.5388 78.5702 39.8273 78.9079 40.0238C79.2517 40.2203 79.6446 40.3185 80.0867 40.3185C80.584 40.3185 80.9923 40.1957 81.3115 39.9501C81.6369 39.7046 81.8579 39.3577 81.9746 38.9095L82.8126 39.0845C82.6469 39.6984 82.3246 40.1834 81.8457 40.5395C81.3668 40.8956 80.7835 41.0737 80.0959 41.0737ZM83.6964 34.4798H84.4791V41H83.6964V34.4798ZM85.6464 36.3585H86.4292V41H85.6464V36.3585ZM86.4937 34.4798V35.4744H85.5911V34.4798H86.4937ZM91.0776 42.6761V40.3553C90.9179 40.5702 90.7 40.7452 90.4237 40.8803C90.1474 41.0092 89.8619 41.0737 89.5672 41.0737C89.1006 41.0737 88.6985 40.9724 88.3608 40.7698C88.0293 40.561 87.7745 40.2755 87.5964 39.9133C87.4184 39.5511 87.3294 39.1397 87.3294 38.6793C87.3294 38.2188 87.4153 37.8074 87.5872 37.4452C87.7653 37.083 88.0201 36.8006 88.3516 36.598C88.6831 36.3892 89.0822 36.2848 89.5488 36.2848C89.8803 36.2848 90.1843 36.3554 90.4605 36.4967C90.743 36.6379 90.9486 36.8159 91.0776 37.0308V36.3585H91.8603V42.6761H91.0776ZM88.1214 38.6793C88.1214 39.1888 88.2595 39.6002 88.5358 39.9133C88.8121 40.2203 89.1804 40.3738 89.6409 40.3738C90.0952 40.3738 90.4575 40.2203 90.7276 39.9133C91.0039 39.6002 91.142 39.1888 91.142 38.6793C91.142 38.1697 91.0039 37.7614 90.7276 37.4544C90.4575 37.1413 90.0952 36.9847 89.6409 36.9847C89.1804 36.9847 88.8121 37.1413 88.5358 37.4544C88.2595 37.7614 88.1214 38.1697 88.1214 38.6793ZM97.0606 41H96.2778V40.1251C96.1121 40.4137 95.891 40.6439 95.6148 40.8158C95.3385 40.9877 95.0284 41.0737 94.6846 41.0737C94.1996 41.0737 93.8005 40.9233 93.4874 40.6224C93.1804 40.3216 93.027 39.9256 93.027 39.4344V36.3585H93.8097V39.2871C93.8097 39.6063 93.9049 39.8673 94.0952 40.0699C94.2856 40.2663 94.5403 40.3646 94.8596 40.3646C95.2955 40.3646 95.6393 40.1896 95.891 39.8396C96.1489 39.4835 96.2778 39.0016 96.2778 38.3938V36.3585H97.0606V41ZM97.9656 38.6793C97.9656 38.2372 98.0546 37.8351 98.2326 37.4728C98.4168 37.1045 98.6777 36.8159 99.0154 36.6072C99.3592 36.3923 99.7583 36.2848 100.213 36.2848C100.655 36.2848 101.045 36.3831 101.382 36.5795C101.72 36.7699 101.978 37.0339 102.156 37.3715C102.34 37.7031 102.432 38.0684 102.432 38.4674C102.432 38.5964 102.426 38.71 102.414 38.8082H98.7483C98.7729 39.2871 98.9203 39.6708 99.1904 39.9593C99.4605 40.2418 99.8136 40.383 100.249 40.383C100.599 40.383 100.894 40.3032 101.134 40.1435C101.373 39.9839 101.526 39.7598 101.594 39.4713L102.331 39.6462C102.214 40.0944 101.972 40.4444 101.603 40.6961C101.235 40.9478 100.784 41.0737 100.249 41.0737C99.7951 41.0737 99.393 40.9693 99.043 40.7606C98.6992 40.5457 98.4322 40.2571 98.2418 39.8949C98.0577 39.5265 97.9656 39.1213 97.9656 38.6793ZM101.603 38.1727C101.566 37.8044 101.425 37.5066 101.18 37.2794C100.934 37.0523 100.612 36.9387 100.213 36.9387C99.8504 36.9387 99.5434 37.0492 99.2917 37.2702C99.04 37.4851 98.8742 37.786 98.7944 38.1727H101.603ZM105.46 36.3585H106.243V41H105.46V36.3585ZM106.308 34.4798V35.4744H105.405V34.4798H106.308ZM109.446 41.0737C108.991 41.0737 108.589 40.9754 108.239 40.779C107.889 40.5764 107.619 40.294 107.429 39.9317C107.238 39.5695 107.143 39.152 107.143 38.6793C107.143 38.2065 107.238 37.789 107.429 37.4268C107.619 37.0646 107.889 36.7852 108.239 36.5887C108.589 36.3861 108.991 36.2848 109.446 36.2848C109.986 36.2848 110.437 36.423 110.799 36.6993C111.168 36.9694 111.395 37.3347 111.481 37.7952L110.707 37.9517C110.658 37.6693 110.52 37.4391 110.293 37.261C110.066 37.0768 109.789 36.9847 109.464 36.9847C109.01 36.9847 108.644 37.1413 108.368 37.4544C108.098 37.7614 107.963 38.1697 107.963 38.6793C107.963 39.1888 108.098 39.6002 108.368 39.9133C108.644 40.2203 109.01 40.3738 109.464 40.3738C109.796 40.3738 110.072 40.2878 110.293 40.1159C110.52 39.944 110.664 39.7046 110.726 39.3976L111.49 39.5541C111.392 40.033 111.159 40.4075 110.79 40.6777C110.428 40.9417 109.98 41.0737 109.446 41.0737ZM112.364 36.3585H113.147V41H112.364V36.3585ZM113.211 34.4798V35.4744H112.309V34.4798H113.211Z" fill="#FA4354"/>
</svg>
