<svg width="344" height="80" viewBox="0 0 344 80" fill="none" xmlns="http://www.w3.org/2000/svg">
<rect x="0.5" y="0.5" width="343" height="79" rx="19.5" fill="#060809"/>
<rect x="0.5" y="0.5" width="343" height="79" rx="19.5" stroke="#00A699"/>
<rect opacity="0.12" x="18" y="31" width="20" height="18" rx="5" fill="#00A699"/>
<path fill-rule="evenodd" clip-rule="evenodd" d="M26 30.25H25.9664C24.5947 30.25 23.5193 30.25 22.6549 30.3206C21.7748 30.3925 21.0477 30.5414 20.3896 30.8767C19.3076 31.428 18.428 32.3076 17.8767 33.3896C17.5414 34.0477 17.3925 34.7748 17.3206 35.6549C17.25 36.5193 17.25 37.5947 17.25 38.9664V39V41V41.0336C17.25 42.4053 17.25 43.4807 17.3206 44.3451C17.3925 45.2252 17.5414 45.9523 17.8767 46.6104C18.428 47.6924 19.3076 48.572 20.3896 49.1233C21.0477 49.4586 21.7748 49.6075 22.6549 49.6794C23.5193 49.75 24.5947 49.75 25.9664 49.75H25.9664H26H30H30.0336H30.0336C31.4053 49.75 32.4807 49.75 33.3451 49.6794C34.2252 49.6075 34.9523 49.4586 35.6104 49.1233C36.6924 48.572 37.572 47.6924 38.1233 46.6104C38.4586 45.9523 38.6075 45.2252 38.6794 44.3451C38.75 43.4807 38.75 42.4053 38.75 41.0336V41.0336V41V39V38.9664V38.9664C38.75 37.5947 38.75 36.5193 38.6794 35.6549C38.6075 34.7748 38.4586 34.0477 38.1233 33.3896C37.572 32.3076 36.6924 31.428 35.6104 30.8767C34.9523 30.5414 34.2252 30.3925 33.3451 30.3206C32.4807 30.25 31.4053 30.25 30.0336 30.25H30H26ZM21.0705 32.2132C21.482 32.0036 21.9897 31.88 22.7771 31.8156C23.5732 31.7506 24.5875 31.75 26 31.75H30C31.4125 31.75 32.4268 31.7506 33.2229 31.8156C34.0103 31.88 34.518 32.0036 34.9295 32.2132C35.7291 32.6207 36.3793 33.2709 36.7868 34.0705C36.9964 34.482 37.12 34.9897 37.1844 35.7771C37.2494 36.5732 37.25 37.5875 37.25 39V41C37.25 42.4125 37.2494 43.4268 37.1844 44.2229C37.12 45.0103 36.9964 45.518 36.7868 45.9295C36.3793 46.7291 35.7291 47.3793 34.9295 47.7868C34.518 47.9964 34.0103 48.12 33.2229 48.1844C32.4268 48.2494 31.4125 48.25 30 48.25H26C24.5875 48.25 23.5732 48.2494 22.7771 48.1844C21.9897 48.12 21.482 47.9964 21.0705 47.7868C20.2709 47.3793 19.6207 46.7291 19.2132 45.9295C19.0036 45.518 18.88 45.0103 18.8156 44.2229C18.7506 43.4268 18.75 42.4125 18.75 41V39C18.75 37.5875 18.7506 36.5732 18.8156 35.7771C18.88 34.9897 19.0036 34.482 19.2132 34.0705C19.6207 33.2709 20.2709 32.6207 21.0705 32.2132ZM22.416 35.376C22.0714 35.1462 21.6057 35.2393 21.376 35.584C21.1462 35.9286 21.2393 36.3943 21.584 36.624L22.584 37.2907L22.7003 37.3683L22.7004 37.3683C24.1986 38.3674 25.0903 38.9619 26.0527 39.2519C27.3227 39.6346 28.6773 39.6346 29.9473 39.2519C30.9097 38.9619 31.8014 38.3674 33.2997 37.3683L33.416 37.2907L34.416 36.624C34.7607 36.3943 34.8538 35.9286 34.624 35.584C34.3943 35.2393 33.9286 35.1462 33.584 35.376L32.584 36.0426C30.9337 37.1428 30.2367 37.5981 29.5145 37.8157C28.5268 38.1133 27.4732 38.1133 26.4855 37.8157C25.7633 37.5981 25.0663 37.1428 23.416 36.0426L22.416 35.376Z" fill="#00A699"/>
<path d="M58.803 16.3H61.729C62.477 16.3 63.0747 16.5053 63.522 16.916C63.9693 17.3193 64.193 17.8583 64.193 18.533C64.193 19.2077 63.9693 19.7503 63.522 20.161C63.0747 20.5643 62.477 20.766 61.729 20.766H59.804V24H58.803V16.3ZM61.696 19.864C62.1507 19.864 62.5063 19.7467 62.763 19.512C63.027 19.2773 63.159 18.951 63.159 18.533C63.159 18.115 63.027 17.7887 62.763 17.554C62.5063 17.312 62.1507 17.191 61.696 17.191H59.804V19.864H61.696ZM69.8164 24H68.8814V22.955C68.6834 23.2997 68.4194 23.5747 68.0894 23.78C67.7594 23.9853 67.389 24.088 66.9784 24.088C66.399 24.088 65.9224 23.9083 65.5484 23.549C65.1817 23.1897 64.9984 22.7167 64.9984 22.13V18.456H65.9334V21.954C65.9334 22.3353 66.047 22.647 66.2744 22.889C66.5017 23.1237 66.806 23.241 67.1874 23.241C67.708 23.241 68.1187 23.032 68.4194 22.614C68.7274 22.1887 68.8814 21.613 68.8814 20.887V18.456H69.8164V24ZM74.4613 19.369C74.2559 19.281 74.0176 19.237 73.7463 19.237C73.2769 19.237 72.8919 19.4643 72.5913 19.919C72.2979 20.3663 72.1513 21.0227 72.1513 21.888V24H71.2163V18.456H72.1513V19.578C72.3126 19.226 72.5546 18.9363 72.8773 18.709C73.1999 18.4817 73.5336 18.368 73.8783 18.368C74.1203 18.368 74.3329 18.401 74.5163 18.467L74.4613 19.369ZM77.4804 24.088C76.9377 24.088 76.4574 23.9707 76.0394 23.736C75.6214 23.494 75.2987 23.1567 75.0714 22.724C74.8441 22.2913 74.7304 21.7927 74.7304 21.228C74.7304 20.6633 74.8441 20.1647 75.0714 19.732C75.2987 19.2993 75.6214 18.9657 76.0394 18.731C76.4574 18.489 76.9377 18.368 77.4804 18.368C78.1257 18.368 78.6647 18.533 79.0974 18.863C79.5374 19.1857 79.8087 19.622 79.9114 20.172L78.9874 20.359C78.9287 20.0217 78.7637 19.7467 78.4924 19.534C78.2211 19.314 77.8911 19.204 77.5024 19.204C76.9597 19.204 76.5234 19.391 76.1934 19.765C75.8707 20.1317 75.7094 20.6193 75.7094 21.228C75.7094 21.8367 75.8707 22.328 76.1934 22.702C76.5234 23.0687 76.9597 23.252 77.5024 23.252C77.8984 23.252 78.2284 23.1493 78.4924 22.944C78.7637 22.7387 78.9361 22.4527 79.0094 22.086L79.9224 22.273C79.8051 22.845 79.5264 23.2923 79.0864 23.615C78.6537 23.9303 78.1184 24.088 77.4804 24.088ZM80.9665 16.212H81.9015V19.545C82.0995 19.1563 82.3598 18.863 82.6825 18.665C83.0125 18.467 83.3828 18.368 83.7935 18.368C84.4242 18.368 84.9265 18.5477 85.3005 18.907C85.6818 19.2663 85.8725 19.7467 85.8725 20.348V24H84.9375V20.524C84.9375 20.1133 84.8165 19.7943 84.5745 19.567C84.3398 19.3323 84.0098 19.215 83.5845 19.215C83.0712 19.215 82.6605 19.4313 82.3525 19.864C82.0518 20.2967 81.9015 20.8833 81.9015 21.624V24H80.9665V16.212ZM90.6913 20.392C90.6913 20.0107 90.5667 19.71 90.3173 19.49C90.0753 19.2627 89.749 19.149 89.3383 19.149C88.957 19.149 88.6417 19.2553 88.3923 19.468C88.143 19.6807 88 19.974 87.9633 20.348L87.0943 20.183C87.175 19.633 87.4207 19.193 87.8313 18.863C88.2493 18.533 88.7517 18.368 89.3383 18.368C90.0203 18.368 90.5703 18.555 90.9883 18.929C91.4063 19.303 91.6153 19.809 91.6153 20.447V24H90.6913V23.054C90.53 23.3693 90.2807 23.6223 89.9433 23.813C89.6133 23.9963 89.2467 24.088 88.8433 24.088C88.2933 24.088 87.8423 23.9377 87.4903 23.637C87.1457 23.329 86.9733 22.933 86.9733 22.449C86.9733 21.921 87.1897 21.5067 87.6223 21.206C88.0623 20.9053 88.726 20.711 89.6133 20.623L90.6913 20.502V20.392ZM87.9083 22.438C87.9083 22.6947 88.0073 22.9073 88.2053 23.076C88.4107 23.2373 88.671 23.318 88.9863 23.318C89.5217 23.318 89.9397 23.153 90.2403 22.823C90.541 22.493 90.6913 22.0493 90.6913 21.492V21.228L89.6133 21.349C89.056 21.4077 88.6307 21.5323 88.3373 21.723C88.0513 21.9063 87.9083 22.1447 87.9083 22.438ZM94.8856 24.088C94.2696 24.088 93.7636 23.9303 93.3676 23.615C92.9789 23.2997 92.7149 22.9183 92.5756 22.471L93.3786 22.119C93.6279 22.9037 94.1302 23.296 94.8856 23.296C95.2156 23.296 95.4832 23.2153 95.6886 23.054C95.9012 22.8853 96.0076 22.6837 96.0076 22.449C96.0076 22.251 95.9452 22.0897 95.8206 21.965C95.7032 21.8403 95.5566 21.745 95.3806 21.679C95.2046 21.613 94.9589 21.5397 94.6436 21.459C94.2476 21.3563 93.9286 21.2573 93.6866 21.162C93.4519 21.0593 93.2466 20.9053 93.0706 20.7C92.9019 20.4873 92.8176 20.2013 92.8176 19.842C92.8176 19.402 92.9936 19.0463 93.3456 18.775C93.6976 18.5037 94.1706 18.368 94.7646 18.368C95.2559 18.368 95.6922 18.4963 96.0736 18.753C96.4622 19.0023 96.7116 19.3287 96.8216 19.732L96.0406 20.073C95.9672 19.7943 95.8059 19.5707 95.5566 19.402C95.3146 19.226 95.0432 19.138 94.7426 19.138C94.4272 19.138 94.1779 19.2003 93.9946 19.325C93.8186 19.4423 93.7306 19.611 93.7306 19.831C93.7306 20.051 93.8296 20.216 94.0276 20.326C94.2256 20.4287 94.5299 20.5277 94.9406 20.623C95.3512 20.7257 95.6886 20.832 95.9526 20.942C96.2166 21.0447 96.4439 21.217 96.6346 21.459C96.8252 21.6937 96.9206 22.0163 96.9206 22.427C96.9206 22.9183 96.7336 23.318 96.3596 23.626C95.9856 23.934 95.4942 24.088 94.8856 24.088ZM97.6254 21.228C97.6254 20.7 97.7317 20.2197 97.9444 19.787C98.1644 19.347 98.4761 19.0023 98.8794 18.753C99.2901 18.4963 99.7667 18.368 100.309 18.368C100.837 18.368 101.303 18.4853 101.706 18.72C102.11 18.9473 102.418 19.2627 102.63 19.666C102.85 20.062 102.96 20.4983 102.96 20.975C102.96 21.129 102.953 21.2647 102.938 21.382H98.5604C98.5897 21.954 98.7657 22.4123 99.0884 22.757C99.4111 23.0943 99.8327 23.263 100.353 23.263C100.771 23.263 101.123 23.1677 101.409 22.977C101.695 22.7863 101.879 22.5187 101.959 22.174L102.839 22.383C102.7 22.9183 102.41 23.3363 101.97 23.637C101.53 23.9377 100.991 24.088 100.353 24.088C99.8107 24.088 99.3304 23.9633 98.9124 23.714C98.5017 23.4573 98.1827 23.1127 97.9554 22.68C97.7354 22.24 97.6254 21.756 97.6254 21.228ZM101.97 20.623C101.926 20.183 101.758 19.8273 101.464 19.556C101.171 19.2847 100.786 19.149 100.309 19.149C99.8767 19.149 99.5101 19.281 99.2094 19.545C98.9087 19.8017 98.7107 20.161 98.6154 20.623H101.97ZM106.324 16.212H107.435L107.215 18.39H106.533L106.324 16.212ZM108.062 16.212H109.173L108.953 18.39H108.271L108.062 16.212ZM110.358 16.3H112.646C113.372 16.3 114.028 16.4503 114.615 16.751C115.202 17.0517 115.664 17.4953 116.001 18.082C116.338 18.6613 116.507 19.3507 116.507 20.15C116.507 20.9493 116.338 21.6423 116.001 22.229C115.664 22.8083 115.202 23.2483 114.615 23.549C114.028 23.8497 113.372 24 112.646 24H110.358V16.3ZM112.613 23.098C113.134 23.098 113.61 22.9953 114.043 22.79C114.476 22.5847 114.82 22.262 115.077 21.822C115.341 21.3747 115.473 20.8173 115.473 20.15C115.473 19.4827 115.341 18.929 115.077 18.489C114.82 18.0417 114.476 17.7153 114.043 17.51C113.61 17.2973 113.134 17.191 112.613 17.191H111.348V23.098H112.613ZM117.595 18.456H118.53V24H117.595V18.456ZM118.607 16.212V17.4H117.529V16.212H118.607ZM123.345 20.392C123.345 20.0107 123.221 19.71 122.971 19.49C122.729 19.2627 122.403 19.149 121.992 19.149C121.611 19.149 121.296 19.2553 121.046 19.468C120.797 19.6807 120.654 19.974 120.617 20.348L119.748 20.183C119.829 19.633 120.075 19.193 120.485 18.863C120.903 18.533 121.406 18.368 121.992 18.368C122.674 18.368 123.224 18.555 123.642 18.929C124.06 19.303 124.269 19.809 124.269 20.447V24H123.345V23.054C123.184 23.3693 122.935 23.6223 122.597 23.813C122.267 23.9963 121.901 24.088 121.497 24.088C120.947 24.088 120.496 23.9377 120.144 23.637C119.8 23.329 119.627 22.933 119.627 22.449C119.627 21.921 119.844 21.5067 120.276 21.206C120.716 20.9053 121.38 20.711 122.267 20.623L123.345 20.502V20.392ZM120.562 22.438C120.562 22.6947 120.661 22.9073 120.859 23.076C121.065 23.2373 121.325 23.318 121.64 23.318C122.176 23.318 122.594 23.153 122.894 22.823C123.195 22.493 123.345 22.0493 123.345 21.492V21.228L122.267 21.349C121.71 21.4077 121.285 21.5323 120.991 21.723C120.705 21.9063 120.562 22.1447 120.562 22.438ZM125.67 18.456H126.605V19.501C126.751 19.1563 126.964 18.8813 127.243 18.676C127.529 18.4707 127.873 18.368 128.277 18.368C128.731 18.368 129.12 18.4707 129.443 18.676C129.773 18.8813 129.985 19.1673 130.081 19.534C130.235 19.1893 130.469 18.9107 130.785 18.698C131.107 18.478 131.47 18.368 131.874 18.368C132.468 18.368 132.937 18.5403 133.282 18.885C133.634 19.2297 133.81 19.6953 133.81 20.282V24H132.875V20.469C132.875 20.0803 132.768 19.7723 132.556 19.545C132.343 19.3103 132.046 19.193 131.665 19.193C131.203 19.193 130.843 19.38 130.587 19.754C130.33 20.128 130.202 20.6157 130.202 21.217V24H129.267V20.469C129.267 20.0803 129.16 19.7723 128.948 19.545C128.742 19.3103 128.449 19.193 128.068 19.193C127.606 19.193 127.246 19.38 126.99 19.754C126.733 20.128 126.605 20.6157 126.605 21.217V24H125.67V18.456ZM137.704 24.088C137.161 24.088 136.674 23.967 136.241 23.725C135.816 23.4757 135.482 23.1347 135.24 22.702C135.005 22.2693 134.888 21.778 134.888 21.228C134.888 20.678 135.005 20.1867 135.24 19.754C135.482 19.3213 135.816 18.984 136.241 18.742C136.674 18.4927 137.161 18.368 137.704 18.368C138.247 18.368 138.731 18.4927 139.156 18.742C139.589 18.984 139.926 19.3213 140.168 19.754C140.41 20.1867 140.531 20.678 140.531 21.228C140.531 21.778 140.41 22.2693 140.168 22.702C139.926 23.1347 139.589 23.4757 139.156 23.725C138.731 23.967 138.247 24.088 137.704 24.088ZM135.845 21.228C135.845 21.822 136.017 22.3097 136.362 22.691C136.707 23.065 137.154 23.252 137.704 23.252C138.254 23.252 138.701 23.065 139.046 22.691C139.391 22.3097 139.563 21.822 139.563 21.228C139.563 20.634 139.391 20.15 139.046 19.776C138.701 19.3947 138.254 19.204 137.704 19.204C137.154 19.204 136.707 19.3947 136.362 19.776C136.017 20.15 135.845 20.634 135.845 21.228ZM141.607 18.456H142.542V19.501C142.74 19.1563 143.004 18.8813 143.334 18.676C143.664 18.4707 144.035 18.368 144.445 18.368C145.025 18.368 145.498 18.5477 145.864 18.907C146.238 19.2663 146.425 19.7393 146.425 20.326V24H145.49V20.502C145.49 20.1207 145.377 19.8127 145.149 19.578C144.922 19.336 144.618 19.215 144.236 19.215C143.716 19.215 143.301 19.4277 142.993 19.853C142.693 20.271 142.542 20.843 142.542 21.569V24H141.607V18.456ZM150.179 24.088C149.622 24.088 149.142 23.967 148.738 23.725C148.335 23.4757 148.027 23.1347 147.814 22.702C147.609 22.2693 147.506 21.778 147.506 21.228C147.506 20.678 147.609 20.1867 147.814 19.754C148.027 19.3213 148.331 18.984 148.727 18.742C149.131 18.4927 149.611 18.368 150.168 18.368C150.535 18.368 150.883 18.4487 151.213 18.61C151.551 18.7713 151.807 18.984 151.983 19.248V16.212H152.918V24H151.983V23.197C151.859 23.4537 151.628 23.6663 151.29 23.835C150.953 24.0037 150.583 24.088 150.179 24.088ZM148.463 21.228C148.463 21.8367 148.628 22.328 148.958 22.702C149.288 23.0687 149.725 23.252 150.267 23.252C150.81 23.252 151.246 23.0687 151.576 22.702C151.906 22.328 152.071 21.8367 152.071 21.228C152.071 20.6193 151.906 20.1317 151.576 19.765C151.246 19.391 150.81 19.204 150.267 19.204C149.725 19.204 149.288 19.391 148.958 19.765C148.628 20.1317 148.463 20.6193 148.463 21.228ZM156.182 24.088C155.566 24.088 155.06 23.9303 154.664 23.615C154.275 23.2997 154.011 22.9183 153.872 22.471L154.675 22.119C154.924 22.9037 155.426 23.296 156.182 23.296C156.512 23.296 156.779 23.2153 156.985 23.054C157.197 22.8853 157.304 22.6837 157.304 22.449C157.304 22.251 157.241 22.0897 157.117 21.965C156.999 21.8403 156.853 21.745 156.677 21.679C156.501 21.613 156.255 21.5397 155.94 21.459C155.544 21.3563 155.225 21.2573 154.983 21.162C154.748 21.0593 154.543 20.9053 154.367 20.7C154.198 20.4873 154.114 20.2013 154.114 19.842C154.114 19.402 154.29 19.0463 154.642 18.775C154.994 18.5037 155.467 18.368 156.061 18.368C156.552 18.368 156.988 18.4963 157.37 18.753C157.758 19.0023 158.008 19.3287 158.118 19.732L157.337 20.073C157.263 19.7943 157.102 19.5707 156.853 19.402C156.611 19.226 156.339 19.138 156.039 19.138C155.723 19.138 155.474 19.2003 155.291 19.325C155.115 19.4423 155.027 19.611 155.027 19.831C155.027 20.051 155.126 20.216 155.324 20.326C155.522 20.4287 155.826 20.5277 156.237 20.623C156.647 20.7257 156.985 20.832 157.249 20.942C157.513 21.0447 157.74 21.217 157.931 21.459C158.121 21.6937 158.217 22.0163 158.217 22.427C158.217 22.9183 158.03 23.318 157.656 23.626C157.282 23.934 156.79 24.088 156.182 24.088ZM158.483 16.212H159.594L159.374 18.39H158.692L158.483 16.212ZM160.221 16.212H161.332L161.112 18.39H160.43L160.221 16.212ZM168.437 24.088C167.77 24.088 167.15 23.9413 166.578 23.648C166.014 23.3473 165.559 22.9037 165.214 22.317C164.87 21.723 164.697 21.0007 164.697 20.15C164.697 19.3067 164.87 18.588 165.214 17.994C165.559 17.4 166.014 16.9563 166.578 16.663C167.15 16.3623 167.77 16.212 168.437 16.212C169.273 16.212 169.981 16.432 170.56 16.872C171.147 17.3047 171.521 17.895 171.682 18.643L170.692 18.863C170.568 18.3057 170.307 17.873 169.911 17.565C169.523 17.257 169.028 17.103 168.426 17.103C167.898 17.103 167.429 17.224 167.018 17.466C166.615 17.7007 166.3 18.049 166.072 18.511C165.845 18.9657 165.731 19.512 165.731 20.15C165.731 20.788 165.845 21.338 166.072 21.8C166.3 22.2547 166.615 22.5993 167.018 22.834C167.429 23.0687 167.898 23.186 168.426 23.186C169.02 23.186 169.508 23.0393 169.889 22.746C170.278 22.4527 170.542 22.0383 170.681 21.503L171.682 21.712C171.484 22.4453 171.099 23.0247 170.527 23.45C169.955 23.8753 169.259 24.088 168.437 24.088ZM175.235 24.088C174.692 24.088 174.205 23.967 173.772 23.725C173.347 23.4757 173.013 23.1347 172.771 22.702C172.536 22.2693 172.419 21.778 172.419 21.228C172.419 20.678 172.536 20.1867 172.771 19.754C173.013 19.3213 173.347 18.984 173.772 18.742C174.205 18.4927 174.692 18.368 175.235 18.368C175.778 18.368 176.262 18.4927 176.687 18.742C177.12 18.984 177.457 19.3213 177.699 19.754C177.941 20.1867 178.062 20.678 178.062 21.228C178.062 21.778 177.941 22.2693 177.699 22.702C177.457 23.1347 177.12 23.4757 176.687 23.725C176.262 23.967 175.778 24.088 175.235 24.088ZM173.376 21.228C173.376 21.822 173.548 22.3097 173.893 22.691C174.238 23.065 174.685 23.252 175.235 23.252C175.785 23.252 176.232 23.065 176.577 22.691C176.922 22.3097 177.094 21.822 177.094 21.228C177.094 20.634 176.922 20.15 176.577 19.776C176.232 19.3947 175.785 19.204 175.235 19.204C174.685 19.204 174.238 19.3947 173.893 19.776C173.548 20.15 173.376 20.634 173.376 21.228ZM179.139 18.456H180.074V19.501C180.272 19.1563 180.536 18.8813 180.866 18.676C181.196 18.4707 181.566 18.368 181.977 18.368C182.556 18.368 183.029 18.5477 183.396 18.907C183.77 19.2663 183.957 19.7393 183.957 20.326V24H183.022V20.502C183.022 20.1207 182.908 19.8127 182.681 19.578C182.453 19.336 182.149 19.215 181.768 19.215C181.247 19.215 180.833 19.4277 180.525 19.853C180.224 20.271 180.074 20.843 180.074 21.569V24H179.139V18.456ZM187.787 24.088C187.245 24.088 186.764 23.9707 186.346 23.736C185.928 23.494 185.606 23.1567 185.378 22.724C185.151 22.2913 185.037 21.7927 185.037 21.228C185.037 20.6633 185.151 20.1647 185.378 19.732C185.606 19.2993 185.928 18.9657 186.346 18.731C186.764 18.489 187.245 18.368 187.787 18.368C188.433 18.368 188.972 18.533 189.404 18.863C189.844 19.1857 190.116 19.622 190.218 20.172L189.294 20.359C189.236 20.0217 189.071 19.7467 188.799 19.534C188.528 19.314 188.198 19.204 187.809 19.204C187.267 19.204 186.83 19.391 186.5 19.765C186.178 20.1317 186.016 20.6193 186.016 21.228C186.016 21.8367 186.178 22.328 186.5 22.702C186.83 23.0687 187.267 23.252 187.809 23.252C188.205 23.252 188.535 23.1493 188.799 22.944C189.071 22.7387 189.243 22.4527 189.316 22.086L190.229 22.273C190.112 22.845 189.833 23.2923 189.393 23.615C188.961 23.9303 188.425 24.088 187.787 24.088ZM190.847 21.228C190.847 20.7 190.953 20.2197 191.166 19.787C191.386 19.347 191.698 19.0023 192.101 18.753C192.512 18.4963 192.988 18.368 193.531 18.368C194.059 18.368 194.525 18.4853 194.928 18.72C195.331 18.9473 195.639 19.2627 195.852 19.666C196.072 20.062 196.182 20.4983 196.182 20.975C196.182 21.129 196.175 21.2647 196.16 21.382H191.782C191.811 21.954 191.987 22.4123 192.31 22.757C192.633 23.0943 193.054 23.263 193.575 23.263C193.993 23.263 194.345 23.1677 194.631 22.977C194.917 22.7863 195.1 22.5187 195.181 22.174L196.061 22.383C195.922 22.9183 195.632 23.3363 195.192 23.637C194.752 23.9377 194.213 24.088 193.575 24.088C193.032 24.088 192.552 23.9633 192.134 23.714C191.723 23.4573 191.404 23.1127 191.177 22.68C190.957 22.24 190.847 21.756 190.847 21.228ZM195.192 20.623C195.148 20.183 194.979 19.8273 194.686 19.556C194.393 19.2847 194.008 19.149 193.531 19.149C193.098 19.149 192.732 19.281 192.431 19.545C192.13 19.8017 191.932 20.161 191.837 20.623H195.192ZM200.082 19.303C199.972 19.2737 199.847 19.259 199.708 19.259C199.253 19.259 198.887 19.4827 198.608 19.93C198.337 20.37 198.201 21.0227 198.201 21.888V24H197.266V18.456H198.201V19.578C198.348 19.226 198.571 18.9363 198.872 18.709C199.173 18.4817 199.492 18.368 199.829 18.368C199.946 18.368 200.049 18.3753 200.137 18.39L200.082 19.303ZM204.23 23.956C203.988 24.044 203.698 24.088 203.361 24.088C202.862 24.088 202.462 23.945 202.162 23.659C201.868 23.3657 201.722 22.9257 201.722 22.339V19.281H200.688V18.456H201.722V16.773H202.657V18.456H204.142V19.281H202.657V22.372C202.657 22.658 202.73 22.8743 202.877 23.021C203.023 23.1677 203.221 23.241 203.471 23.241C203.742 23.241 203.973 23.1933 204.164 23.098L204.23 23.956ZM209.626 17.191H207.173V16.3H213.069V17.191H210.627V24H209.626V17.191ZM213.941 18.456H214.876V24H213.941V18.456ZM214.953 16.212V17.4H213.875V16.212H214.953ZM218.701 24.088C218.159 24.088 217.678 23.9707 217.26 23.736C216.842 23.494 216.52 23.1567 216.292 22.724C216.065 22.2913 215.951 21.7927 215.951 21.228C215.951 20.6633 216.065 20.1647 216.292 19.732C216.52 19.2993 216.842 18.9657 217.26 18.731C217.678 18.489 218.159 18.368 218.701 18.368C219.347 18.368 219.886 18.533 220.318 18.863C220.758 19.1857 221.03 19.622 221.132 20.172L220.208 20.359C220.15 20.0217 219.985 19.7467 219.713 19.534C219.442 19.314 219.112 19.204 218.723 19.204C218.181 19.204 217.744 19.391 217.414 19.765C217.092 20.1317 216.93 20.6193 216.93 21.228C216.93 21.8367 217.092 22.328 217.414 22.702C217.744 23.0687 218.181 23.252 218.723 23.252C219.119 23.252 219.449 23.1493 219.713 22.944C219.985 22.7387 220.157 22.4527 220.23 22.086L221.143 22.273C221.026 22.845 220.747 23.2923 220.307 23.615C219.875 23.9303 219.339 24.088 218.701 24.088ZM222.187 24V16.212H223.133V20.711L225.696 18.456H226.939L224.563 20.645L227.126 24H225.96L223.87 21.272L223.133 21.943V24H222.187ZM227.334 21.228C227.334 20.7 227.441 20.2197 227.653 19.787C227.873 19.347 228.185 19.0023 228.588 18.753C228.999 18.4963 229.476 18.368 230.018 18.368C230.546 18.368 231.012 18.4853 231.415 18.72C231.819 18.9473 232.127 19.2627 232.339 19.666C232.559 20.062 232.669 20.4983 232.669 20.975C232.669 21.129 232.662 21.2647 232.647 21.382H228.269C228.299 21.954 228.475 22.4123 228.797 22.757C229.12 23.0943 229.542 23.263 230.062 23.263C230.48 23.263 230.832 23.1677 231.118 22.977C231.404 22.7863 231.588 22.5187 231.668 22.174L232.548 22.383C232.409 22.9183 232.119 23.3363 231.679 23.637C231.239 23.9377 230.7 24.088 230.062 24.088C229.52 24.088 229.039 23.9633 228.621 23.714C228.211 23.4573 227.892 23.1127 227.664 22.68C227.444 22.24 227.334 21.756 227.334 21.228ZM231.679 20.623C231.635 20.183 231.467 19.8273 231.173 19.556C230.88 19.2847 230.495 19.149 230.018 19.149C229.586 19.149 229.219 19.281 228.918 19.545C228.618 19.8017 228.42 20.161 228.324 20.623H231.679ZM236.626 23.956C236.384 24.044 236.094 24.088 235.757 24.088C235.258 24.088 234.859 23.945 234.558 23.659C234.265 23.3657 234.118 22.9257 234.118 22.339V19.281H233.084V18.456H234.118V16.773H235.053V18.456H236.538V19.281H235.053V22.372C235.053 22.658 235.126 22.8743 235.273 23.021C235.42 23.1677 235.618 23.241 235.867 23.241C236.138 23.241 236.369 23.1933 236.56 23.098L236.626 23.956ZM239.542 24.088C238.926 24.088 238.42 23.9303 238.024 23.615C237.635 23.2997 237.371 22.9183 237.232 22.471L238.035 22.119C238.284 22.9037 238.787 23.296 239.542 23.296C239.872 23.296 240.14 23.2153 240.345 23.054C240.558 22.8853 240.664 22.6837 240.664 22.449C240.664 22.251 240.602 22.0897 240.477 21.965C240.36 21.8403 240.213 21.745 240.037 21.679C239.861 21.613 239.615 21.5397 239.3 21.459C238.904 21.3563 238.585 21.2573 238.343 21.162C238.108 21.0593 237.903 20.9053 237.727 20.7C237.558 20.4873 237.474 20.2013 237.474 19.842C237.474 19.402 237.65 19.0463 238.002 18.775C238.354 18.5037 238.827 18.368 239.421 18.368C239.912 18.368 240.349 18.4963 240.73 18.753C241.119 19.0023 241.368 19.3287 241.478 19.732L240.697 20.073C240.624 19.7943 240.462 19.5707 240.213 19.402C239.971 19.226 239.7 19.138 239.399 19.138C239.084 19.138 238.834 19.2003 238.651 19.325C238.475 19.4423 238.387 19.611 238.387 19.831C238.387 20.051 238.486 20.216 238.684 20.326C238.882 20.4287 239.186 20.5277 239.597 20.623C240.008 20.7257 240.345 20.832 240.609 20.942C240.873 21.0447 241.1 21.217 241.291 21.459C241.482 21.6937 241.577 22.0163 241.577 22.427C241.577 22.9183 241.39 23.318 241.016 23.626C240.642 23.934 240.151 24.088 239.542 24.088ZM64.798 42.3V50H63.797V46.392H59.804V50H58.803V42.3H59.804V45.49H63.797V42.3H64.798ZM65.9255 47.228C65.9255 46.7 66.0318 46.2197 66.2445 45.787C66.4645 45.347 66.7761 45.0023 67.1795 44.753C67.5901 44.4963 68.0668 44.368 68.6095 44.368C69.1375 44.368 69.6031 44.4853 70.0065 44.72C70.4098 44.9473 70.7178 45.2627 70.9305 45.666C71.1505 46.062 71.2605 46.4983 71.2605 46.975C71.2605 47.129 71.2531 47.2647 71.2385 47.382H66.8605C66.8898 47.954 67.0658 48.4123 67.3885 48.757C67.7111 49.0943 68.1328 49.263 68.6535 49.263C69.0715 49.263 69.4235 49.1677 69.7095 48.977C69.9955 48.7863 70.1788 48.5187 70.2595 48.174L71.1395 48.383C71.0001 48.9183 70.7105 49.3363 70.2705 49.637C69.8305 49.9377 69.2915 50.088 68.6535 50.088C68.1108 50.088 67.6305 49.9633 67.2125 49.714C66.8018 49.4573 66.4828 49.1127 66.2555 48.68C66.0355 48.24 65.9255 47.756 65.9255 47.228ZM70.2705 46.623C70.2265 46.183 70.0578 45.8273 69.7645 45.556C69.4711 45.2847 69.0861 45.149 68.6095 45.149C68.1768 45.149 67.8101 45.281 67.5095 45.545C67.2088 45.8017 67.0108 46.161 66.9155 46.623H70.2705ZM76.7706 44.456L73.8666 52.002H72.9096L73.7126 49.923L71.5456 44.456H72.5576L74.1856 48.702L75.8136 44.456H76.7706ZM82.4066 49.857C81.8493 49.857 81.3726 49.7397 80.9766 49.505C80.5806 49.2703 80.28 48.9477 80.0746 48.537C79.8693 48.119 79.7666 47.646 79.7666 47.118C79.7666 46.59 79.8693 46.117 80.0746 45.699C80.28 45.281 80.577 44.9547 80.9656 44.72C81.3616 44.4853 81.8346 44.368 82.3846 44.368C82.7513 44.368 83.0996 44.4487 83.4296 44.61C83.7596 44.764 84.009 44.962 84.1776 45.204V44.456H85.1016V49.736C85.1016 50.198 84.9916 50.605 84.7716 50.957C84.559 51.3163 84.2546 51.595 83.8586 51.793C83.47 51.991 83.0226 52.09 82.5166 52.09C81.8713 52.09 81.3213 51.9323 80.8666 51.617C80.412 51.309 80.1443 50.9057 80.0636 50.407L80.9656 50.253C80.995 50.561 81.1526 50.8103 81.4386 51.001C81.732 51.199 82.0913 51.298 82.5166 51.298C83.008 51.298 83.4076 51.1623 83.7156 50.891C84.0236 50.6197 84.1776 50.2677 84.1776 49.835V49.065C84.053 49.2997 83.8256 49.4903 83.4956 49.637C83.1656 49.7837 82.8026 49.857 82.4066 49.857ZM80.7236 47.118C80.7236 47.6973 80.885 48.1593 81.2076 48.504C81.5303 48.8487 81.9593 49.021 82.4946 49.021C83.03 49.021 83.4553 48.8487 83.7706 48.504C84.0933 48.1593 84.2546 47.6973 84.2546 47.118C84.2546 46.5387 84.0933 46.0767 83.7706 45.732C83.4553 45.38 83.03 45.204 82.4946 45.204C81.952 45.204 81.5193 45.38 81.1966 45.732C80.8813 46.0767 80.7236 46.5387 80.7236 47.118ZM91.3149 50H90.3799V48.955C90.1819 49.2997 89.9179 49.5747 89.5879 49.78C89.2579 49.9853 88.8876 50.088 88.4769 50.088C87.8976 50.088 87.4209 49.9083 87.0469 49.549C86.6802 49.1897 86.4969 48.7167 86.4969 48.13V44.456H87.4319V47.954C87.4319 48.3353 87.5456 48.647 87.7729 48.889C88.0002 49.1237 88.3046 49.241 88.6859 49.241C89.2066 49.241 89.6172 49.032 89.9179 48.614C90.2259 48.1887 90.3799 47.613 90.3799 46.887V44.456H91.3149V50ZM97.3238 44.456L94.4198 52.002H93.4628L94.2658 49.923L92.0988 44.456H93.1108L94.7388 48.702L96.3668 44.456H97.3238ZM99.8788 50.088C99.2628 50.088 98.7568 49.9303 98.3608 49.615C97.9722 49.2997 97.7082 48.9183 97.5688 48.471L98.3718 48.119C98.6212 48.9037 99.1235 49.296 99.8788 49.296C100.209 49.296 100.477 49.2153 100.682 49.054C100.895 48.8853 101.001 48.6837 101.001 48.449C101.001 48.251 100.939 48.0897 100.814 47.965C100.697 47.8403 100.55 47.745 100.374 47.679C100.198 47.613 99.9522 47.5397 99.6368 47.459C99.2408 47.3563 98.9218 47.2573 98.6798 47.162C98.4452 47.0593 98.2398 46.9053 98.0638 46.7C97.8952 46.4873 97.8108 46.2013 97.8108 45.842C97.8108 45.402 97.9868 45.0463 98.3388 44.775C98.6908 44.5037 99.1638 44.368 99.7578 44.368C100.249 44.368 100.686 44.4963 101.067 44.753C101.456 45.0023 101.705 45.3287 101.815 45.732L101.034 46.073C100.961 45.7943 100.799 45.5707 100.55 45.402C100.308 45.226 100.037 45.138 99.7358 45.138C99.4205 45.138 99.1712 45.2003 98.9878 45.325C98.8118 45.4423 98.7238 45.611 98.7238 45.831C98.7238 46.051 98.8228 46.216 99.0208 46.326C99.2188 46.4287 99.5232 46.5277 99.9338 46.623C100.345 46.7257 100.682 46.832 100.946 46.942C101.21 47.0447 101.437 47.217 101.628 47.459C101.819 47.6937 101.914 48.0163 101.914 48.427C101.914 48.9183 101.727 49.318 101.353 49.626C100.979 49.934 100.488 50.088 99.8788 50.088ZM102.953 48.856H104.207L102.975 51.166H102.315L102.953 48.856ZM108.004 44.456H108.939V45.501C109.086 45.1563 109.299 44.8813 109.577 44.676C109.863 44.4707 110.208 44.368 110.611 44.368C111.066 44.368 111.455 44.4707 111.777 44.676C112.107 44.8813 112.32 45.1673 112.415 45.534C112.569 45.1893 112.804 44.9107 113.119 44.698C113.442 44.478 113.805 44.368 114.208 44.368C114.802 44.368 115.272 44.5403 115.616 44.885C115.968 45.2297 116.144 45.6953 116.144 46.282V50H115.209V46.469C115.209 46.0803 115.103 45.7723 114.89 45.545C114.678 45.3103 114.381 45.193 113.999 45.193C113.537 45.193 113.178 45.38 112.921 45.754C112.665 46.128 112.536 46.6157 112.536 47.217V50H111.601V46.469C111.601 46.0803 111.495 45.7723 111.282 45.545C111.077 45.3103 110.784 45.193 110.402 45.193C109.94 45.193 109.581 45.38 109.324 45.754C109.068 46.128 108.939 46.6157 108.939 47.217V50H108.004V44.456ZM121.968 44.456L119.064 52.002H118.107L118.91 49.923L116.743 44.456H117.755L119.383 48.702L121.011 44.456H121.968ZM125.283 44.456H126.218V45.501C126.416 45.1563 126.68 44.8813 127.01 44.676C127.34 44.4707 127.71 44.368 128.121 44.368C128.7 44.368 129.173 44.5477 129.54 44.907C129.914 45.2663 130.101 45.7393 130.101 46.326V50H129.166V46.502C129.166 46.1207 129.052 45.8127 128.825 45.578C128.598 45.336 128.293 45.215 127.912 45.215C127.391 45.215 126.977 45.4277 126.669 45.853C126.368 46.271 126.218 46.843 126.218 47.569V50H125.283V44.456ZM131.182 47.228C131.182 46.7 131.288 46.2197 131.501 45.787C131.721 45.347 132.033 45.0023 132.436 44.753C132.847 44.4963 133.323 44.368 133.866 44.368C134.394 44.368 134.86 44.4853 135.263 44.72C135.666 44.9473 135.974 45.2627 136.187 45.666C136.407 46.062 136.517 46.4983 136.517 46.975C136.517 47.129 136.51 47.2647 136.495 47.382H132.117C132.146 47.954 132.322 48.4123 132.645 48.757C132.968 49.0943 133.389 49.263 133.91 49.263C134.328 49.263 134.68 49.1677 134.966 48.977C135.252 48.7863 135.435 48.5187 135.516 48.174L136.396 48.383C136.257 48.9183 135.967 49.3363 135.527 49.637C135.087 49.9377 134.548 50.088 133.91 50.088C133.367 50.088 132.887 49.9633 132.469 49.714C132.058 49.4573 131.739 49.1127 131.512 48.68C131.292 48.24 131.182 47.756 131.182 47.228ZM135.527 46.623C135.483 46.183 135.314 45.8273 135.021 45.556C134.728 45.2847 134.343 45.149 133.866 45.149C133.433 45.149 133.067 45.281 132.766 45.545C132.465 45.8017 132.267 46.161 132.172 46.623H135.527ZM139.246 47.921L137.849 50H136.793L138.718 47.14L136.914 44.456H137.959L139.246 46.359L140.522 44.456H141.578L139.774 47.14L141.699 50H140.643L139.246 47.921ZM145.499 49.956C145.257 50.044 144.967 50.088 144.63 50.088C144.131 50.088 143.732 49.945 143.431 49.659C143.138 49.3657 142.991 48.9257 142.991 48.339V45.281H141.957V44.456H142.991V42.773H143.926V44.456H145.411V45.281H143.926V48.372C143.926 48.658 143.999 48.8743 144.146 49.021C144.293 49.1677 144.491 49.241 144.74 49.241C145.011 49.241 145.242 49.1933 145.433 49.098L145.499 49.956ZM151.951 49.956C151.709 50.044 151.42 50.088 151.082 50.088C150.584 50.088 150.184 49.945 149.883 49.659C149.59 49.3657 149.443 48.9257 149.443 48.339V45.281H148.409V44.456H149.443V42.773H150.378V44.456H151.863V45.281H150.378V48.372C150.378 48.658 150.452 48.8743 150.598 49.021C150.745 49.1677 150.943 49.241 151.192 49.241C151.464 49.241 151.695 49.1933 151.885 49.098L151.951 49.956ZM155.28 50.088C154.737 50.088 154.249 49.967 153.817 49.725C153.391 49.4757 153.058 49.1347 152.816 48.702C152.581 48.2693 152.464 47.778 152.464 47.228C152.464 46.678 152.581 46.1867 152.816 45.754C153.058 45.3213 153.391 44.984 153.817 44.742C154.249 44.4927 154.737 44.368 155.28 44.368C155.822 44.368 156.306 44.4927 156.732 44.742C157.164 44.984 157.502 45.3213 157.744 45.754C157.986 46.1867 158.107 46.678 158.107 47.228C158.107 47.778 157.986 48.2693 157.744 48.702C157.502 49.1347 157.164 49.4757 156.732 49.725C156.306 49.967 155.822 50.088 155.28 50.088ZM153.421 47.228C153.421 47.822 153.593 48.3097 153.938 48.691C154.282 49.065 154.73 49.252 155.28 49.252C155.83 49.252 156.277 49.065 156.622 48.691C156.966 48.3097 157.139 47.822 157.139 47.228C157.139 46.634 156.966 46.15 156.622 45.776C156.277 45.3947 155.83 45.204 155.28 45.204C154.73 45.204 154.282 45.3947 153.938 45.776C153.593 46.15 153.421 46.634 153.421 47.228ZM164.001 50H163.066V48.955C162.868 49.2997 162.604 49.5747 162.274 49.78C161.944 49.9853 161.574 50.088 161.163 50.088C160.584 50.088 160.107 49.9083 159.733 49.549C159.367 49.1897 159.183 48.7167 159.183 48.13V44.456H160.118V47.954C160.118 48.3353 160.232 48.647 160.459 48.889C160.687 49.1237 160.991 49.241 161.372 49.241C161.893 49.241 162.304 49.032 162.604 48.614C162.912 48.1887 163.066 47.613 163.066 46.887V44.456H164.001V50ZM168.646 45.369C168.441 45.281 168.202 45.237 167.931 45.237C167.462 45.237 167.077 45.4643 166.776 45.919C166.483 46.3663 166.336 47.0227 166.336 47.888V50H165.401V44.456H166.336V45.578C166.497 45.226 166.739 44.9363 167.062 44.709C167.385 44.4817 167.718 44.368 168.063 44.368C168.305 44.368 168.518 44.401 168.701 44.467L168.646 45.369ZM172.025 44.456H172.96V50H172.025V44.456ZM173.037 42.212V43.4H171.959V42.212H173.037ZM176.225 50.088C175.609 50.088 175.103 49.9303 174.707 49.615C174.318 49.2997 174.054 48.9183 173.915 48.471L174.718 48.119C174.967 48.9037 175.469 49.296 176.225 49.296C176.555 49.296 176.822 49.2153 177.028 49.054C177.24 48.8853 177.347 48.6837 177.347 48.449C177.347 48.251 177.284 48.0897 177.16 47.965C177.042 47.8403 176.896 47.745 176.72 47.679C176.544 47.613 176.298 47.5397 175.983 47.459C175.587 47.3563 175.268 47.2573 175.026 47.162C174.791 47.0593 174.586 46.9053 174.41 46.7C174.241 46.4873 174.157 46.2013 174.157 45.842C174.157 45.402 174.333 45.0463 174.685 44.775C175.037 44.5037 175.51 44.368 176.104 44.368C176.595 44.368 177.031 44.4963 177.413 44.753C177.801 45.0023 178.051 45.3287 178.161 45.732L177.38 46.073C177.306 45.7943 177.145 45.5707 176.896 45.402C176.654 45.226 176.382 45.138 176.082 45.138C175.766 45.138 175.517 45.2003 175.334 45.325C175.158 45.4423 175.07 45.611 175.07 45.831C175.07 46.051 175.169 46.216 175.367 46.326C175.565 46.4287 175.869 46.5277 176.28 46.623C176.69 46.7257 177.028 46.832 177.292 46.942C177.556 47.0447 177.783 47.217 177.974 47.459C178.164 47.6937 178.26 48.0163 178.26 48.427C178.26 48.9183 178.073 49.318 177.699 49.626C177.325 49.934 176.833 50.088 176.225 50.088ZM181.86 44.456H182.795V50H181.86V44.456ZM182.872 42.212V43.4H181.794V42.212H182.872ZM184.189 44.456H185.124V45.501C185.322 45.1563 185.586 44.8813 185.916 44.676C186.246 44.4707 186.616 44.368 187.027 44.368C187.606 44.368 188.079 44.5477 188.446 44.907C188.82 45.2663 189.007 45.7393 189.007 46.326V50H188.072V46.502C188.072 46.1207 187.958 45.8127 187.731 45.578C187.504 45.336 187.199 45.215 186.818 45.215C186.297 45.215 185.883 45.4277 185.575 45.853C185.274 46.271 185.124 46.843 185.124 47.569V50H184.189V44.456ZM196.361 46.392C196.361 46.0107 196.236 45.71 195.987 45.49C195.745 45.2627 195.419 45.149 195.008 45.149C194.627 45.149 194.311 45.2553 194.062 45.468C193.813 45.6807 193.67 45.974 193.633 46.348L192.764 46.183C192.845 45.633 193.09 45.193 193.501 44.863C193.919 44.533 194.421 44.368 195.008 44.368C195.69 44.368 196.24 44.555 196.658 44.929C197.076 45.303 197.285 45.809 197.285 46.447V50H196.361V49.054C196.2 49.3693 195.95 49.6223 195.613 49.813C195.283 49.9963 194.916 50.088 194.513 50.088C193.963 50.088 193.512 49.9377 193.16 49.637C192.815 49.329 192.643 48.933 192.643 48.449C192.643 47.921 192.859 47.5067 193.292 47.206C193.732 46.9053 194.396 46.711 195.283 46.623L196.361 46.502V46.392ZM193.578 48.438C193.578 48.6947 193.677 48.9073 193.875 49.076C194.08 49.2373 194.341 49.318 194.656 49.318C195.191 49.318 195.609 49.153 195.91 48.823C196.211 48.493 196.361 48.0493 196.361 47.492V47.228L195.283 47.349C194.726 47.4077 194.3 47.5323 194.007 47.723C193.721 47.9063 193.578 48.1447 193.578 48.438ZM201.219 44.456H202.154V45.501C202.3 45.1563 202.513 44.8813 202.792 44.676C203.078 44.4707 203.422 44.368 203.826 44.368C204.28 44.368 204.669 44.4707 204.992 44.676C205.322 44.8813 205.534 45.1673 205.63 45.534C205.784 45.1893 206.018 44.9107 206.334 44.698C206.656 44.478 207.019 44.368 207.423 44.368C208.017 44.368 208.486 44.5403 208.831 44.885C209.183 45.2297 209.359 45.6953 209.359 46.282V50H208.424V46.469C208.424 46.0803 208.317 45.7723 208.105 45.545C207.892 45.3103 207.595 45.193 207.214 45.193C206.752 45.193 206.392 45.38 206.136 45.754C205.879 46.128 205.751 46.6157 205.751 47.217V50H204.816V46.469C204.816 46.0803 204.709 45.7723 204.497 45.545C204.291 45.3103 203.998 45.193 203.617 45.193C203.155 45.193 202.795 45.38 202.539 45.754C202.282 46.128 202.154 46.6157 202.154 47.217V50H201.219V44.456ZM213.253 50.088C212.71 50.088 212.223 49.967 211.79 49.725C211.365 49.4757 211.031 49.1347 210.789 48.702C210.554 48.2693 210.437 47.778 210.437 47.228C210.437 46.678 210.554 46.1867 210.789 45.754C211.031 45.3213 211.365 44.984 211.79 44.742C212.223 44.4927 212.71 44.368 213.253 44.368C213.796 44.368 214.28 44.4927 214.705 44.742C215.138 44.984 215.475 45.3213 215.717 45.754C215.959 46.1867 216.08 46.678 216.08 47.228C216.08 47.778 215.959 48.2693 215.717 48.702C215.475 49.1347 215.138 49.4757 214.705 49.725C214.28 49.967 213.796 50.088 213.253 50.088ZM211.394 47.228C211.394 47.822 211.566 48.3097 211.911 48.691C212.256 49.065 212.703 49.252 213.253 49.252C213.803 49.252 214.25 49.065 214.595 48.691C214.94 48.3097 215.112 47.822 215.112 47.228C215.112 46.634 214.94 46.15 214.595 45.776C214.25 45.3947 213.803 45.204 213.253 45.204C212.703 45.204 212.256 45.3947 211.911 45.776C211.566 46.15 211.394 46.634 211.394 47.228ZM217.156 44.456H218.091V45.501C218.289 45.1563 218.553 44.8813 218.883 44.676C219.213 44.4707 219.584 44.368 219.994 44.368C220.574 44.368 221.047 44.5477 221.413 44.907C221.787 45.2663 221.974 45.7393 221.974 46.326V50H221.039V46.502C221.039 46.1207 220.926 45.8127 220.698 45.578C220.471 45.336 220.167 45.215 219.785 45.215C219.265 45.215 218.85 45.4277 218.542 45.853C218.242 46.271 218.091 46.843 218.091 47.569V50H217.156V44.456ZM226.118 49.956C225.876 50.044 225.587 50.088 225.249 50.088C224.751 50.088 224.351 49.945 224.05 49.659C223.757 49.3657 223.61 48.9257 223.61 48.339V45.281H222.576V44.456H223.61V42.773H224.545V44.456H226.03V45.281H224.545V48.372C224.545 48.658 224.619 48.8743 224.765 49.021C224.912 49.1677 225.11 49.241 225.359 49.241C225.631 49.241 225.862 49.1933 226.052 49.098L226.118 49.956ZM227.186 42.212H228.121V45.545C228.319 45.1563 228.579 44.863 228.902 44.665C229.232 44.467 229.602 44.368 230.013 44.368C230.644 44.368 231.146 44.5477 231.52 44.907C231.901 45.2663 232.092 45.7467 232.092 46.348V50H231.157V46.524C231.157 46.1133 231.036 45.7943 230.794 45.567C230.559 45.3323 230.229 45.215 229.804 45.215C229.291 45.215 228.88 45.4313 228.572 45.864C228.271 46.2967 228.121 46.8833 228.121 47.624V50H227.186V42.212ZM233.534 42.3H234.744L234.48 47.822H233.798L233.534 42.3ZM233.556 48.856H234.722V50H233.556V48.856ZM238.762 42.3H239.763V49.098H243.58V50H238.762V42.3ZM246.874 50.088C246.331 50.088 245.844 49.967 245.411 49.725C244.986 49.4757 244.652 49.1347 244.41 48.702C244.175 48.2693 244.058 47.778 244.058 47.228C244.058 46.678 244.175 46.1867 244.41 45.754C244.652 45.3213 244.986 44.984 245.411 44.742C245.844 44.4927 246.331 44.368 246.874 44.368C247.417 44.368 247.901 44.4927 248.326 44.742C248.759 44.984 249.096 45.3213 249.338 45.754C249.58 46.1867 249.701 46.678 249.701 47.228C249.701 47.778 249.58 48.2693 249.338 48.702C249.096 49.1347 248.759 49.4757 248.326 49.725C247.901 49.967 247.417 50.088 246.874 50.088ZM245.015 47.228C245.015 47.822 245.187 48.3097 245.532 48.691C245.877 49.065 246.324 49.252 246.874 49.252C247.424 49.252 247.871 49.065 248.216 48.691C248.561 48.3097 248.733 47.822 248.733 47.228C248.733 46.634 248.561 46.15 248.216 45.776C247.871 45.3947 247.424 45.204 246.874 45.204C246.324 45.204 245.877 45.3947 245.532 45.776C245.187 46.15 245.015 46.634 245.015 47.228ZM253.098 49.857C252.541 49.857 252.064 49.7397 251.668 49.505C251.272 49.2703 250.972 48.9477 250.766 48.537C250.561 48.119 250.458 47.646 250.458 47.118C250.458 46.59 250.561 46.117 250.766 45.699C250.972 45.281 251.269 44.9547 251.657 44.72C252.053 44.4853 252.526 44.368 253.076 44.368C253.443 44.368 253.791 44.4487 254.121 44.61C254.451 44.764 254.701 44.962 254.869 45.204V44.456H255.793V49.736C255.793 50.198 255.683 50.605 255.463 50.957C255.251 51.3163 254.946 51.595 254.55 51.793C254.162 51.991 253.714 52.09 253.208 52.09C252.563 52.09 252.013 51.9323 251.558 51.617C251.104 51.309 250.836 50.9057 250.755 50.407L251.657 50.253C251.687 50.561 251.844 50.8103 252.13 51.001C252.424 51.199 252.783 51.298 253.208 51.298C253.7 51.298 254.099 51.1623 254.407 50.891C254.715 50.6197 254.869 50.2677 254.869 49.835V49.065C254.745 49.2997 254.517 49.4903 254.187 49.637C253.857 49.7837 253.494 49.857 253.098 49.857ZM251.415 47.118C251.415 47.6973 251.577 48.1593 251.899 48.504C252.222 48.8487 252.651 49.021 253.186 49.021C253.722 49.021 254.147 48.8487 254.462 48.504C254.785 48.1593 254.946 47.6973 254.946 47.118C254.946 46.5387 254.785 46.0767 254.462 45.732C254.147 45.38 253.722 45.204 253.186 45.204C252.644 45.204 252.211 45.38 251.888 45.732C251.573 46.0767 251.415 46.5387 251.415 47.118ZM262.219 50.088C261.676 50.088 261.189 49.967 260.756 49.725C260.331 49.4757 259.997 49.1347 259.755 48.702C259.52 48.2693 259.403 47.778 259.403 47.228C259.403 46.678 259.52 46.1867 259.755 45.754C259.997 45.3213 260.331 44.984 260.756 44.742C261.189 44.4927 261.676 44.368 262.219 44.368C262.762 44.368 263.246 44.4927 263.671 44.742C264.104 44.984 264.441 45.3213 264.683 45.754C264.925 46.1867 265.046 46.678 265.046 47.228C265.046 47.778 264.925 48.2693 264.683 48.702C264.441 49.1347 264.104 49.4757 263.671 49.725C263.246 49.967 262.762 50.088 262.219 50.088ZM260.36 47.228C260.36 47.822 260.532 48.3097 260.877 48.691C261.222 49.065 261.669 49.252 262.219 49.252C262.769 49.252 263.216 49.065 263.561 48.691C263.906 48.3097 264.078 47.822 264.078 47.228C264.078 46.634 263.906 46.15 263.561 45.776C263.216 45.3947 262.769 45.204 262.219 45.204C261.669 45.204 261.222 45.3947 260.877 45.776C260.532 46.15 260.36 46.634 260.36 47.228ZM266.122 44.456H267.057V45.501C267.255 45.1563 267.519 44.8813 267.849 44.676C268.179 44.4707 268.55 44.368 268.96 44.368C269.54 44.368 270.013 44.5477 270.379 44.907C270.753 45.2663 270.94 45.7393 270.94 46.326V50H270.005V46.502C270.005 46.1207 269.892 45.8127 269.664 45.578C269.437 45.336 269.133 45.215 268.751 45.215C268.231 45.215 267.816 45.4277 267.508 45.853C267.208 46.271 267.057 46.843 267.057 47.569V50H266.122V44.456ZM277.822 49.956C277.58 50.044 277.29 50.088 276.953 50.088C276.454 50.088 276.054 49.945 275.754 49.659C275.46 49.3657 275.314 48.9257 275.314 48.339V45.281H274.28V44.456H275.314V42.773H276.249V44.456H277.734V45.281H276.249V48.372C276.249 48.658 276.322 48.8743 276.469 49.021C276.615 49.1677 276.813 49.241 277.063 49.241C277.334 49.241 277.565 49.1933 277.756 49.098L277.822 49.956ZM281.15 50.088C280.607 50.088 280.12 49.967 279.687 49.725C279.262 49.4757 278.928 49.1347 278.686 48.702C278.451 48.2693 278.334 47.778 278.334 47.228C278.334 46.678 278.451 46.1867 278.686 45.754C278.928 45.3213 279.262 44.984 279.687 44.742C280.12 44.4927 280.607 44.368 281.15 44.368C281.693 44.368 282.177 44.4927 282.602 44.742C283.035 44.984 283.372 45.3213 283.614 45.754C283.856 46.1867 283.977 46.678 283.977 47.228C283.977 47.778 283.856 48.2693 283.614 48.702C283.372 49.1347 283.035 49.4757 282.602 49.725C282.177 49.967 281.693 50.088 281.15 50.088ZM279.291 47.228C279.291 47.822 279.463 48.3097 279.808 48.691C280.153 49.065 280.6 49.252 281.15 49.252C281.7 49.252 282.147 49.065 282.492 48.691C282.837 48.3097 283.009 47.822 283.009 47.228C283.009 46.634 282.837 46.15 282.492 45.776C282.147 45.3947 281.7 45.204 281.15 45.204C280.6 45.204 280.153 45.3947 279.808 45.776C279.463 46.15 279.291 46.634 279.291 47.228ZM58.803 55.3H59.804V62.098H63.621V63H58.803V55.3ZM64.4183 57.456H65.3533V63H64.4183V57.456ZM65.4303 55.212V56.4H64.3523V55.212H65.4303ZM66.1315 57.456H67.0885L68.6285 61.911L70.1795 57.456H71.1475L69.1125 63H68.1555L66.1315 57.456ZM71.4325 60.228C71.4325 59.7 71.5389 59.2197 71.7515 58.787C71.9715 58.347 72.2832 58.0023 72.6865 57.753C73.0972 57.4963 73.5739 57.368 74.1165 57.368C74.6445 57.368 75.1102 57.4853 75.5135 57.72C75.9169 57.9473 76.2249 58.2627 76.4375 58.666C76.6575 59.062 76.7675 59.4983 76.7675 59.975C76.7675 60.129 76.7602 60.2647 76.7455 60.382H72.3675C72.3969 60.954 72.5729 61.4123 72.8955 61.757C73.2182 62.0943 73.6399 62.263 74.1605 62.263C74.5785 62.263 74.9305 62.1677 75.2165 61.977C75.5025 61.7863 75.6859 61.5187 75.7665 61.174L76.6465 61.383C76.5072 61.9183 76.2175 62.3363 75.7775 62.637C75.3375 62.9377 74.7985 63.088 74.1605 63.088C73.6179 63.088 73.1375 62.9633 72.7195 62.714C72.3089 62.4573 71.9899 62.1127 71.7625 61.68C71.5425 61.24 71.4325 60.756 71.4325 60.228ZM75.7775 59.623C75.7335 59.183 75.5649 58.8273 75.2715 58.556C74.9782 58.2847 74.5932 58.149 74.1165 58.149C73.6839 58.149 73.3172 58.281 73.0165 58.545C72.7159 58.8017 72.5179 59.161 72.4225 59.623H75.7775ZM77.8513 57.456H78.7863V58.259C78.9403 58.0023 79.1823 57.7897 79.5123 57.621C79.8496 57.4523 80.2163 57.368 80.6123 57.368C81.1696 57.368 81.6463 57.4927 82.0423 57.742C82.4383 57.984 82.7389 58.3213 82.9443 58.754C83.1569 59.1867 83.2633 59.678 83.2633 60.228C83.2633 60.778 83.1569 61.2693 82.9443 61.702C82.7316 62.1347 82.4236 62.4757 82.0203 62.725C81.6243 62.967 81.1476 63.088 80.5903 63.088C80.2383 63.088 79.8973 63.011 79.5673 62.857C79.2373 62.6957 78.9769 62.4867 78.7863 62.23V65.002H77.8513V57.456ZM78.7093 60.228C78.7093 60.8367 78.8706 61.328 79.1933 61.702C79.5233 62.0687 79.9596 62.252 80.5023 62.252C81.0523 62.252 81.4923 62.0687 81.8223 61.702C82.1523 61.328 82.3173 60.8367 82.3173 60.228C82.3173 59.6193 82.1523 59.1317 81.8223 58.765C81.4923 58.391 81.0523 58.204 80.5023 58.204C79.9596 58.204 79.5233 58.391 79.1933 58.765C78.8706 59.1317 78.7093 59.6193 78.7093 60.228ZM87.705 59.392C87.705 59.0107 87.5803 58.71 87.331 58.49C87.089 58.2627 86.7627 58.149 86.352 58.149C85.9707 58.149 85.6553 58.2553 85.406 58.468C85.1567 58.6807 85.0137 58.974 84.977 59.348L84.108 59.183C84.1887 58.633 84.4343 58.193 84.845 57.863C85.263 57.533 85.7653 57.368 86.352 57.368C87.034 57.368 87.584 57.555 88.002 57.929C88.42 58.303 88.629 58.809 88.629 59.447V63H87.705V62.054C87.5437 62.3693 87.2943 62.6223 86.957 62.813C86.627 62.9963 86.2603 63.088 85.857 63.088C85.307 63.088 84.856 62.9377 84.504 62.637C84.1593 62.329 83.987 61.933 83.987 61.449C83.987 60.921 84.2033 60.5067 84.636 60.206C85.076 59.9053 85.7397 59.711 86.627 59.623L87.705 59.502V59.392ZM84.922 61.438C84.922 61.6947 85.021 61.9073 85.219 62.076C85.4243 62.2373 85.6847 62.318 86 62.318C86.5353 62.318 86.9533 62.153 87.254 61.823C87.5547 61.493 87.705 61.0493 87.705 60.492V60.228L86.627 60.349C86.0697 60.4077 85.6443 60.5323 85.351 60.723C85.065 60.9063 84.922 61.1447 84.922 61.438ZM92.8452 58.303C92.7352 58.2737 92.6106 58.259 92.4712 58.259C92.0166 58.259 91.6499 58.4827 91.3712 58.93C91.0999 59.37 90.9642 60.0227 90.9642 60.888V63H90.0292V57.456H90.9642V58.578C91.1109 58.226 91.3346 57.9363 91.6352 57.709C91.9359 57.4817 92.2549 57.368 92.5922 57.368C92.7096 57.368 92.8122 57.3753 92.9002 57.39L92.8452 58.303ZM96.993 62.956C96.751 63.044 96.4613 63.088 96.124 63.088C95.6253 63.088 95.2256 62.945 94.925 62.659C94.6316 62.3657 94.485 61.9257 94.485 61.339V58.281H93.451V57.456H94.485V55.773H95.42V57.456H96.905V58.281H95.42V61.372C95.42 61.658 95.4933 61.8743 95.64 62.021C95.7866 62.1677 95.9846 62.241 96.234 62.241C96.5053 62.241 96.7363 62.1933 96.927 62.098L96.993 62.956ZM97.5054 60.228C97.5054 59.7 97.6117 59.2197 97.8244 58.787C98.0444 58.347 98.3561 58.0023 98.7594 57.753C99.1701 57.4963 99.6467 57.368 100.189 57.368C100.717 57.368 101.183 57.4853 101.586 57.72C101.99 57.9473 102.298 58.2627 102.51 58.666C102.73 59.062 102.84 59.4983 102.84 59.975C102.84 60.129 102.833 60.2647 102.818 60.382H98.4404C98.4697 60.954 98.6457 61.4123 98.9684 61.757C99.2911 62.0943 99.7127 62.263 100.233 62.263C100.651 62.263 101.003 62.1677 101.289 61.977C101.575 61.7863 101.759 61.5187 101.839 61.174L102.719 61.383C102.58 61.9183 102.29 62.3363 101.85 62.637C101.41 62.9377 100.871 63.088 100.233 63.088C99.6907 63.088 99.2104 62.9633 98.7924 62.714C98.3817 62.4573 98.0627 62.1127 97.8354 61.68C97.6154 61.24 97.5054 60.756 97.5054 60.228ZM101.85 59.623C101.806 59.183 101.638 58.8273 101.344 58.556C101.051 58.2847 100.666 58.149 100.189 58.149C99.7567 58.149 99.3901 58.281 99.0894 58.545C98.7887 58.8017 98.5907 59.161 98.4954 59.623H101.85ZM106.457 57.456H107.392V58.501C107.59 58.1563 107.854 57.8813 108.184 57.676C108.514 57.4707 108.885 57.368 109.295 57.368C109.875 57.368 110.348 57.5477 110.714 57.907C111.088 58.2663 111.275 58.7393 111.275 59.326V63H110.34V59.502C110.34 59.1207 110.227 58.8127 109.999 58.578C109.772 58.336 109.468 58.215 109.086 58.215C108.566 58.215 108.151 58.4277 107.843 58.853C107.543 59.271 107.392 59.843 107.392 60.569V63H106.457V57.456ZM115.172 63.088C114.63 63.088 114.142 62.967 113.709 62.725C113.284 62.4757 112.95 62.1347 112.708 61.702C112.474 61.2693 112.356 60.778 112.356 60.228C112.356 59.678 112.474 59.1867 112.708 58.754C112.95 58.3213 113.284 57.984 113.709 57.742C114.142 57.4927 114.63 57.368 115.172 57.368C115.715 57.368 116.199 57.4927 116.624 57.742C117.057 57.984 117.394 58.3213 117.636 58.754C117.878 59.1867 117.999 59.678 117.999 60.228C117.999 60.778 117.878 61.2693 117.636 61.702C117.394 62.1347 117.057 62.4757 116.624 62.725C116.199 62.967 115.715 63.088 115.172 63.088ZM113.313 60.228C113.313 60.822 113.486 61.3097 113.83 61.691C114.175 62.065 114.622 62.252 115.172 62.252C115.722 62.252 116.17 62.065 116.514 61.691C116.859 61.3097 117.031 60.822 117.031 60.228C117.031 59.634 116.859 59.15 116.514 58.776C116.17 58.3947 115.722 58.204 115.172 58.204C114.622 58.204 114.175 58.3947 113.83 58.776C113.486 59.15 113.313 59.634 113.313 60.228ZM118.474 57.456H119.431L120.63 61.691L121.928 57.456H122.83L124.128 61.691L125.316 57.456H126.295L124.59 63H123.677L122.379 58.787L121.081 63H120.168L118.474 57.456ZM133.171 59.392C133.171 59.0107 133.046 58.71 132.797 58.49C132.555 58.2627 132.229 58.149 131.818 58.149C131.437 58.149 131.121 58.2553 130.872 58.468C130.623 58.6807 130.48 58.974 130.443 59.348L129.574 59.183C129.655 58.633 129.9 58.193 130.311 57.863C130.729 57.533 131.231 57.368 131.818 57.368C132.5 57.368 133.05 57.555 133.468 57.929C133.886 58.303 134.095 58.809 134.095 59.447V63H133.171V62.054C133.01 62.3693 132.76 62.6223 132.423 62.813C132.093 62.9963 131.726 63.088 131.323 63.088C130.773 63.088 130.322 62.9377 129.97 62.637C129.625 62.329 129.453 61.933 129.453 61.449C129.453 60.921 129.669 60.5067 130.102 60.206C130.542 59.9053 131.206 59.711 132.093 59.623L133.171 59.502V59.392ZM130.388 61.438C130.388 61.6947 130.487 61.9073 130.685 62.076C130.89 62.2373 131.151 62.318 131.466 62.318C132.001 62.318 132.419 62.153 132.72 61.823C133.021 61.493 133.171 61.0493 133.171 60.492V60.228L132.093 60.349C131.536 60.4077 131.11 60.5323 130.817 60.723C130.531 60.9063 130.388 61.1447 130.388 61.438ZM135.495 57.456H136.43V58.501C136.628 58.1563 136.892 57.8813 137.222 57.676C137.552 57.4707 137.922 57.368 138.333 57.368C138.912 57.368 139.385 57.5477 139.752 57.907C140.126 58.2663 140.313 58.7393 140.313 59.326V63H139.378V59.502C139.378 59.1207 139.264 58.8127 139.037 58.578C138.81 58.336 138.505 58.215 138.124 58.215C137.603 58.215 137.189 58.4277 136.881 58.853C136.58 59.271 136.43 59.843 136.43 60.569V63H135.495V57.456ZM144.067 63.088C143.51 63.088 143.029 62.967 142.626 62.725C142.223 62.4757 141.915 62.1347 141.702 61.702C141.497 61.2693 141.394 60.778 141.394 60.228C141.394 59.678 141.497 59.1867 141.702 58.754C141.915 58.3213 142.219 57.984 142.615 57.742C143.018 57.4927 143.499 57.368 144.056 57.368C144.423 57.368 144.771 57.4487 145.101 57.61C145.438 57.7713 145.695 57.984 145.871 58.248V55.212H146.806V63H145.871V62.197C145.746 62.4537 145.515 62.6663 145.178 62.835C144.841 63.0037 144.47 63.088 144.067 63.088ZM142.351 60.228C142.351 60.8367 142.516 61.328 142.846 61.702C143.176 62.0687 143.612 62.252 144.155 62.252C144.698 62.252 145.134 62.0687 145.464 61.702C145.794 61.328 145.959 60.8367 145.959 60.228C145.959 59.6193 145.794 59.1317 145.464 58.765C145.134 58.391 144.698 58.204 144.155 58.204C143.612 58.204 143.176 58.391 142.846 58.765C142.516 59.1317 142.351 59.6193 142.351 60.228ZM153.054 62.857C152.496 62.857 152.02 62.7397 151.624 62.505C151.228 62.2703 150.927 61.9477 150.722 61.537C150.516 61.119 150.414 60.646 150.414 60.118C150.414 59.59 150.516 59.117 150.722 58.699C150.927 58.281 151.224 57.9547 151.613 57.72C152.009 57.4853 152.482 57.368 153.032 57.368C153.398 57.368 153.747 57.4487 154.077 57.61C154.407 57.764 154.656 57.962 154.825 58.204V57.456H155.749V62.736C155.749 63.198 155.639 63.605 155.419 63.957C155.206 64.3163 154.902 64.595 154.506 64.793C154.117 64.991 153.67 65.09 153.164 65.09C152.518 65.09 151.968 64.9323 151.514 64.617C151.059 64.309 150.791 63.9057 150.711 63.407L151.613 63.253C151.642 63.561 151.8 63.8103 152.086 64.001C152.379 64.199 152.738 64.298 153.164 64.298C153.655 64.298 154.055 64.1623 154.363 63.891C154.671 63.6197 154.825 63.2677 154.825 62.835V62.065C154.7 62.2997 154.473 62.4903 154.143 62.637C153.813 62.7837 153.45 62.857 153.054 62.857ZM151.371 60.118C151.371 60.6973 151.532 61.1593 151.855 61.504C152.177 61.8487 152.606 62.021 153.142 62.021C153.677 62.021 154.102 61.8487 154.418 61.504C154.74 61.1593 154.902 60.6973 154.902 60.118C154.902 59.5387 154.74 59.0767 154.418 58.732C154.102 58.38 153.677 58.204 153.142 58.204C152.599 58.204 152.166 58.38 151.844 58.732C151.528 59.0767 151.371 59.5387 151.371 60.118ZM156.825 60.228C156.825 59.7 156.931 59.2197 157.144 58.787C157.364 58.347 157.676 58.0023 158.079 57.753C158.49 57.4963 158.966 57.368 159.509 57.368C160.037 57.368 160.503 57.4853 160.906 57.72C161.309 57.9473 161.617 58.2627 161.83 58.666C162.05 59.062 162.16 59.4983 162.16 59.975C162.16 60.129 162.153 60.2647 162.138 60.382H157.76C157.789 60.954 157.965 61.4123 158.288 61.757C158.611 62.0943 159.032 62.263 159.553 62.263C159.971 62.263 160.323 62.1677 160.609 61.977C160.895 61.7863 161.078 61.5187 161.159 61.174L162.039 61.383C161.9 61.9183 161.61 62.3363 161.17 62.637C160.73 62.9377 160.191 63.088 159.553 63.088C159.01 63.088 158.53 62.9633 158.112 62.714C157.701 62.4573 157.382 62.1127 157.155 61.68C156.935 61.24 156.825 60.756 156.825 60.228ZM161.17 59.623C161.126 59.183 160.957 58.8273 160.664 58.556C160.371 58.2847 159.986 58.149 159.509 58.149C159.076 58.149 158.71 58.281 158.409 58.545C158.108 58.8017 157.91 59.161 157.815 59.623H161.17ZM166.117 62.956C165.875 63.044 165.585 63.088 165.248 63.088C164.749 63.088 164.349 62.945 164.049 62.659C163.755 62.3657 163.609 61.9257 163.609 61.339V58.281H162.575V57.456H163.609V55.773H164.544V57.456H166.029V58.281H164.544V61.372C164.544 61.658 164.617 61.8743 164.764 62.021C164.91 62.1677 165.108 62.241 165.358 62.241C165.629 62.241 165.86 62.1933 166.051 62.098L166.117 62.956ZM174.23 57.456L171.326 65.002H170.369L171.172 62.923L169.005 57.456H170.017L171.645 61.702L173.273 57.456H174.23ZM177.326 63.088C176.783 63.088 176.296 62.967 175.863 62.725C175.438 62.4757 175.104 62.1347 174.862 61.702C174.627 61.2693 174.51 60.778 174.51 60.228C174.51 59.678 174.627 59.1867 174.862 58.754C175.104 58.3213 175.438 57.984 175.863 57.742C176.296 57.4927 176.783 57.368 177.326 57.368C177.869 57.368 178.353 57.4927 178.778 57.742C179.211 57.984 179.548 58.3213 179.79 58.754C180.032 59.1867 180.153 59.678 180.153 60.228C180.153 60.778 180.032 61.2693 179.79 61.702C179.548 62.1347 179.211 62.4757 178.778 62.725C178.353 62.967 177.869 63.088 177.326 63.088ZM175.467 60.228C175.467 60.822 175.639 61.3097 175.984 61.691C176.329 62.065 176.776 62.252 177.326 62.252C177.876 62.252 178.323 62.065 178.668 61.691C179.013 61.3097 179.185 60.822 179.185 60.228C179.185 59.634 179.013 59.15 178.668 58.776C178.323 58.3947 177.876 58.204 177.326 58.204C176.776 58.204 176.329 58.3947 175.984 58.776C175.639 59.15 175.467 59.634 175.467 60.228ZM186.048 63H185.113V61.955C184.915 62.2997 184.651 62.5747 184.321 62.78C183.991 62.9853 183.62 63.088 183.21 63.088C182.63 63.088 182.154 62.9083 181.78 62.549C181.413 62.1897 181.23 61.7167 181.23 61.13V57.456H182.165V60.954C182.165 61.3353 182.278 61.647 182.506 61.889C182.733 62.1237 183.037 62.241 183.419 62.241C183.939 62.241 184.35 62.032 184.651 61.614C184.959 61.1887 185.113 60.613 185.113 59.887V57.456H186.048V63ZM190.692 58.369C190.487 58.281 190.249 58.237 189.977 58.237C189.508 58.237 189.123 58.4643 188.822 58.919C188.529 59.3663 188.382 60.0227 188.382 60.888V63H187.447V57.456H188.382V58.578C188.544 58.226 188.786 57.9363 189.108 57.709C189.431 57.4817 189.765 57.368 190.109 57.368C190.351 57.368 190.564 57.401 190.747 57.467L190.692 58.369ZM197.02 62.956C196.778 63.044 196.488 63.088 196.151 63.088C195.652 63.088 195.252 62.945 194.952 62.659C194.658 62.3657 194.512 61.9257 194.512 61.339V58.281H193.478V57.456H194.512V55.773H195.447V57.456H196.932V58.281H195.447V61.372C195.447 61.658 195.52 61.8743 195.667 62.021C195.813 62.1677 196.011 62.241 196.261 62.241C196.532 62.241 196.763 62.1933 196.954 62.098L197.02 62.956ZM197.991 57.456H198.926V63H197.991V57.456ZM199.003 55.212V56.4H197.925V55.212H199.003ZM202.751 63.088C202.208 63.088 201.728 62.9707 201.31 62.736C200.892 62.494 200.569 62.1567 200.342 61.724C200.115 61.2913 200.001 60.7927 200.001 60.228C200.001 59.6633 200.115 59.1647 200.342 58.732C200.569 58.2993 200.892 57.9657 201.31 57.731C201.728 57.489 202.208 57.368 202.751 57.368C203.396 57.368 203.935 57.533 204.368 57.863C204.808 58.1857 205.079 58.622 205.182 59.172L204.258 59.359C204.199 59.0217 204.034 58.7467 203.763 58.534C203.492 58.314 203.162 58.204 202.773 58.204C202.23 58.204 201.794 58.391 201.464 58.765C201.141 59.1317 200.98 59.6193 200.98 60.228C200.98 60.8367 201.141 61.328 201.464 61.702C201.794 62.0687 202.23 62.252 202.773 62.252C203.169 62.252 203.499 62.1493 203.763 61.944C204.034 61.7387 204.207 61.4527 204.28 61.086L205.193 61.273C205.076 61.845 204.797 62.2923 204.357 62.615C203.924 62.9303 203.389 63.088 202.751 63.088ZM206.237 63V55.212H207.183V59.711L209.746 57.456H210.989L208.613 59.645L211.176 63H210.01L207.92 60.272L207.183 60.943V63H206.237ZM211.384 60.228C211.384 59.7 211.49 59.2197 211.703 58.787C211.923 58.347 212.235 58.0023 212.638 57.753C213.049 57.4963 213.525 57.368 214.068 57.368C214.596 57.368 215.062 57.4853 215.465 57.72C215.868 57.9473 216.176 58.2627 216.389 58.666C216.609 59.062 216.719 59.4983 216.719 59.975C216.719 60.129 216.712 60.2647 216.697 60.382H212.319C212.348 60.954 212.524 61.4123 212.847 61.757C213.17 62.0943 213.591 62.263 214.112 62.263C214.53 62.263 214.882 62.1677 215.168 61.977C215.454 61.7863 215.637 61.5187 215.718 61.174L216.598 61.383C216.459 61.9183 216.169 62.3363 215.729 62.637C215.289 62.9377 214.75 63.088 214.112 63.088C213.569 63.088 213.089 62.9633 212.671 62.714C212.26 62.4573 211.941 62.1127 211.714 61.68C211.494 61.24 211.384 60.756 211.384 60.228ZM215.729 59.623C215.685 59.183 215.516 58.8273 215.223 58.556C214.93 58.2847 214.545 58.149 214.068 58.149C213.635 58.149 213.269 58.281 212.968 58.545C212.667 58.8017 212.469 59.161 212.374 59.623H215.729ZM220.676 62.956C220.434 63.044 220.144 63.088 219.807 63.088C219.308 63.088 218.908 62.945 218.608 62.659C218.314 62.3657 218.168 61.9257 218.168 61.339V58.281H217.134V57.456H218.168V55.773H219.103V57.456H220.588V58.281H219.103V61.372C219.103 61.658 219.176 61.8743 219.323 62.021C219.469 62.1677 219.667 62.241 219.917 62.241C220.188 62.241 220.419 62.1933 220.61 62.098L220.676 62.956ZM223.592 63.088C222.976 63.088 222.47 62.9303 222.074 62.615C221.685 62.2997 221.421 61.9183 221.282 61.471L222.085 61.119C222.334 61.9037 222.837 62.296 223.592 62.296C223.922 62.296 224.19 62.2153 224.395 62.054C224.608 61.8853 224.714 61.6837 224.714 61.449C224.714 61.251 224.652 61.0897 224.527 60.965C224.41 60.8403 224.263 60.745 224.087 60.679C223.911 60.613 223.665 60.5397 223.35 60.459C222.954 60.3563 222.635 60.2573 222.393 60.162C222.158 60.0593 221.953 59.9053 221.777 59.7C221.608 59.4873 221.524 59.2013 221.524 58.842C221.524 58.402 221.7 58.0463 222.052 57.775C222.404 57.5037 222.877 57.368 223.471 57.368C223.962 57.368 224.399 57.4963 224.78 57.753C225.169 58.0023 225.418 58.3287 225.528 58.732L224.747 59.073C224.674 58.7943 224.512 58.5707 224.263 58.402C224.021 58.226 223.75 58.138 223.449 58.138C223.134 58.138 222.884 58.2003 222.701 58.325C222.525 58.4423 222.437 58.611 222.437 58.831C222.437 59.051 222.536 59.216 222.734 59.326C222.932 59.4287 223.236 59.5277 223.647 59.623C224.058 59.7257 224.395 59.832 224.659 59.942C224.923 60.0447 225.15 60.217 225.341 60.459C225.532 60.6937 225.627 61.0163 225.627 61.427C225.627 61.9183 225.44 62.318 225.066 62.626C224.692 62.934 224.201 63.088 223.592 63.088ZM228.468 63.77H239.468V52.77H228.468V63.77ZM239.348 63.77H250.348V52.77H239.348V63.77Z" fill="#B4BECB"/>
</svg>
