<svg width="344" height="54" viewBox="0 0 344 54" fill="none" xmlns="http://www.w3.org/2000/svg">
<rect x="0.5" y="0.5" width="343" height="53" rx="9.5" fill="#060809"/>
<rect x="0.5" y="0.5" width="343" height="53" rx="9.5" stroke="#FFC41B"/>
<path opacity="0.12" fill-rule="evenodd" clip-rule="evenodd" d="M31.6316 20.5244L28.3333 22.8331L28.3333 29.4998L31.6316 31.8086C33.2611 32.9492 34.0759 33.5196 34.7541 33.4899C35.3447 33.4641 35.8936 33.1783 36.2534 32.7093C36.6667 32.1707 36.6667 31.1761 36.6667 29.187L36.6667 23.1459C36.6667 21.1568 36.6667 20.1622 36.2534 19.6237C35.8936 19.1547 35.3447 18.8689 34.7541 18.843C34.0759 18.8133 33.2611 19.3837 31.6316 20.5244ZM27.5 29.5001L25 29.5001L25 33.2501C25 33.9405 25.5596 34.5001 26.25 34.5001C26.9404 34.5001 27.5 33.9405 27.5 33.2501L27.5 29.5001Z" fill="#FFC41B"/>
<path fill-rule="evenodd" clip-rule="evenodd" d="M32.0617 21.1388C32.8887 20.5599 33.4667 20.1562 33.9219 19.8959C34.3851 19.631 34.6029 19.5871 34.7213 19.5923C35.0904 19.6085 35.4335 19.7871 35.6584 20.0802C35.7306 20.1743 35.8195 20.3778 35.8682 20.9092C35.9159 21.4314 35.9167 22.1364 35.9167 23.1459L35.9167 23.6666L35.9167 28.6666L35.9167 29.187C35.9167 30.1965 35.9159 30.9015 35.8682 31.4238C35.8195 31.9551 35.7306 32.1586 35.6584 32.2527C35.4335 32.5459 35.0904 32.7245 34.7213 32.7406C34.6029 32.7458 34.3851 32.7019 33.9219 32.4371C33.4667 32.1767 32.8887 31.773 32.0617 31.1941L29.0834 29.1093L29.0834 23.2236L32.0617 21.1388ZM37.4167 29.3296C37.4166 30.2433 37.4147 30.9832 37.3619 31.5604C37.3072 32.1583 37.1895 32.7213 36.8485 33.1658C36.3537 33.8107 35.599 34.2037 34.7869 34.2392C34.2272 34.2637 33.6984 34.0372 33.1773 33.7392C32.6553 33.4406 32.0211 32.9968 31.2334 32.4453L31.2334 32.4453L31.2333 32.4453L31.2333 32.4452L31.2015 32.423L28.25 30.357L28.25 33.2501C28.25 34.3547 27.3546 35.2501 26.25 35.2501C25.1454 35.2501 24.25 34.3547 24.25 33.2501L24.25 30.1813C22.3531 29.8291 20.9167 28.1656 20.9167 26.1667C20.9167 23.9115 22.7449 22.0833 25 22.0833L28.0966 22.0833L31.2015 19.9099L31.2333 19.8877C32.0211 19.3362 32.6552 18.8923 33.1773 18.5937C33.6984 18.2957 34.2272 18.0692 34.7869 18.0937C35.599 18.1293 36.3537 18.5222 36.8485 19.1671C37.1895 19.6116 37.3072 20.1746 37.3619 20.7725C37.4147 21.3497 37.4166 22.0897 37.4167 23.0035C38.85 23.3421 39.9167 24.6298 39.9167 26.1666C39.9167 27.7034 38.85 28.991 37.4167 29.3296ZM37.4167 27.7482C38.0079 27.4673 38.4167 26.8647 38.4167 26.1666C38.4167 25.4685 38.0079 24.8658 37.4167 24.585L37.4167 27.7482ZM27.5834 23.5833L25 23.5833C23.5733 23.5833 22.4167 24.7399 22.4167 26.1667C22.4167 27.5934 23.5733 28.75 25 28.75L27.5834 28.75L27.5834 23.5833ZM25.75 30.2501L25.75 33.2501C25.75 33.5262 25.9739 33.7501 26.25 33.7501C26.5262 33.7501 26.75 33.5262 26.75 33.2501L26.75 30.2501L25.75 30.2501Z" fill="#FFC41B"/>
<path d="M58.798 16.3V24H57.797V20.392H53.804V24H52.803V16.3H53.804V19.49H57.797V16.3H58.798ZM60.2445 18.456H61.1795V24H60.2445V18.456ZM61.2565 16.212V17.4H60.1785V16.212H61.2565ZM64.546 16.3H65.58L67.417 22.845L69.276 16.3H70.321L72.169 22.845L74.006 16.3H75.04L72.708 24H71.652L69.804 17.796L67.934 24H66.889L64.546 16.3ZM78.6453 20.392C78.6453 20.0107 78.5206 19.71 78.2713 19.49C78.0293 19.2627 77.703 19.149 77.2923 19.149C76.911 19.149 76.5956 19.2553 76.3463 19.468C76.097 19.6807 75.954 19.974 75.9173 20.348L75.0483 20.183C75.129 19.633 75.3746 19.193 75.7853 18.863C76.2033 18.533 76.7056 18.368 77.2923 18.368C77.9743 18.368 78.5243 18.555 78.9423 18.929C79.3603 19.303 79.5693 19.809 79.5693 20.447V24H78.6453V23.054C78.484 23.3693 78.2346 23.6223 77.8973 23.813C77.5673 23.9963 77.2006 24.088 76.7973 24.088C76.2473 24.088 75.7963 23.9377 75.4443 23.637C75.0996 23.329 74.9273 22.933 74.9273 22.449C74.9273 21.921 75.1436 21.5067 75.5763 21.206C76.0163 20.9053 76.68 20.711 77.5673 20.623L78.6453 20.502V20.392ZM75.8623 22.438C75.8623 22.6947 75.9613 22.9073 76.1593 23.076C76.3646 23.2373 76.625 23.318 76.9403 23.318C77.4756 23.318 77.8936 23.153 78.1943 22.823C78.495 22.493 78.6453 22.0493 78.6453 21.492V21.228L77.5673 21.349C77.01 21.4077 76.5846 21.5323 76.2913 21.723C76.0053 21.9063 75.8623 22.1447 75.8623 22.438ZM80.1709 18.456H81.1279L82.6679 22.911L84.2189 18.456H85.1869L83.1519 24H82.1949L80.1709 18.456ZM85.472 21.228C85.472 20.7 85.5783 20.2197 85.791 19.787C86.011 19.347 86.3226 19.0023 86.726 18.753C87.1366 18.4963 87.6133 18.368 88.156 18.368C88.684 18.368 89.1496 18.4853 89.553 18.72C89.9563 18.9473 90.2643 19.2627 90.477 19.666C90.697 20.062 90.807 20.4983 90.807 20.975C90.807 21.129 90.7996 21.2647 90.785 21.382H86.407C86.4363 21.954 86.6123 22.4123 86.935 22.757C87.2576 23.0943 87.6793 23.263 88.2 23.263C88.618 23.263 88.97 23.1677 89.256 22.977C89.542 22.7863 89.7253 22.5187 89.806 22.174L90.686 22.383C90.5466 22.9183 90.257 23.3363 89.817 23.637C89.377 23.9377 88.838 24.088 88.2 24.088C87.6573 24.088 87.177 23.9633 86.759 23.714C86.3483 23.4573 86.0293 23.1127 85.802 22.68C85.582 22.24 85.472 21.756 85.472 21.228ZM89.817 20.623C89.773 20.183 89.6043 19.8273 89.311 19.556C89.0176 19.2847 88.6326 19.149 88.156 19.149C87.7233 19.149 87.3566 19.281 87.056 19.545C86.7553 19.8017 86.5573 20.161 86.462 20.623H89.817ZM95.1357 19.369C94.9303 19.281 94.692 19.237 94.4207 19.237C93.9513 19.237 93.5663 19.4643 93.2657 19.919C92.9723 20.3663 92.8257 21.0227 92.8257 21.888V24H91.8907V18.456H92.8257V19.578C92.987 19.226 93.229 18.9363 93.5517 18.709C93.8743 18.4817 94.208 18.368 94.5527 18.368C94.7947 18.368 95.0073 18.401 95.1907 18.467L95.1357 19.369ZM97.7012 24.088C97.0852 24.088 96.5792 23.9303 96.1832 23.615C95.7946 23.2997 95.5306 22.9183 95.3912 22.471L96.1942 22.119C96.4436 22.9037 96.9459 23.296 97.7012 23.296C98.0312 23.296 98.2989 23.2153 98.5042 23.054C98.7169 22.8853 98.8232 22.6837 98.8232 22.449C98.8232 22.251 98.7609 22.0897 98.6362 21.965C98.5189 21.8403 98.3722 21.745 98.1962 21.679C98.0202 21.613 97.7746 21.5397 97.4592 21.459C97.0632 21.3563 96.7442 21.2573 96.5022 21.162C96.2676 21.0593 96.0622 20.9053 95.8862 20.7C95.7176 20.4873 95.6332 20.2013 95.6332 19.842C95.6332 19.402 95.8092 19.0463 96.1612 18.775C96.5132 18.5037 96.9862 18.368 97.5802 18.368C98.0716 18.368 98.5079 18.4963 98.8892 18.753C99.2779 19.0023 99.5272 19.3287 99.6372 19.732L98.8562 20.073C98.7829 19.7943 98.6216 19.5707 98.3722 19.402C98.1302 19.226 97.8589 19.138 97.5582 19.138C97.2429 19.138 96.9936 19.2003 96.8102 19.325C96.6342 19.4423 96.5462 19.611 96.5462 19.831C96.5462 20.051 96.6452 20.216 96.8432 20.326C97.0412 20.4287 97.3456 20.5277 97.7562 20.623C98.1669 20.7257 98.5042 20.832 98.7682 20.942C99.0322 21.0447 99.2596 21.217 99.4502 21.459C99.6409 21.6937 99.7362 22.0163 99.7362 22.427C99.7362 22.9183 99.5492 23.318 99.1752 23.626C98.8012 23.934 98.3099 24.088 97.7012 24.088ZM100.775 22.856H102.029L100.797 25.166H100.137L100.775 22.856ZM105.827 18.456H106.762V19.501C106.908 19.1563 107.121 18.8813 107.4 18.676C107.686 18.4707 108.03 18.368 108.434 18.368C108.888 18.368 109.277 18.4707 109.6 18.676C109.93 18.8813 110.142 19.1673 110.238 19.534C110.392 19.1893 110.626 18.9107 110.942 18.698C111.264 18.478 111.627 18.368 112.031 18.368C112.625 18.368 113.094 18.5403 113.439 18.885C113.791 19.2297 113.967 19.6953 113.967 20.282V24H113.032V20.469C113.032 20.0803 112.925 19.7723 112.713 19.545C112.5 19.3103 112.203 19.193 111.822 19.193C111.36 19.193 111 19.38 110.744 19.754C110.487 20.128 110.359 20.6157 110.359 21.217V24H109.424V20.469C109.424 20.0803 109.317 19.7723 109.105 19.545C108.899 19.3103 108.606 19.193 108.225 19.193C107.763 19.193 107.403 19.38 107.147 19.754C106.89 20.128 106.762 20.6157 106.762 21.217V24H105.827V18.456ZM119.79 18.456L116.886 26.002H115.929L116.732 23.923L114.565 18.456H115.577L117.205 22.702L118.833 18.456H119.79ZM123.105 18.456H124.04V19.501C124.238 19.1563 124.502 18.8813 124.832 18.676C125.162 18.4707 125.533 18.368 125.943 18.368C126.523 18.368 126.996 18.5477 127.362 18.907C127.736 19.2663 127.923 19.7393 127.923 20.326V24H126.988V20.502C126.988 20.1207 126.875 19.8127 126.647 19.578C126.42 19.336 126.116 19.215 125.734 19.215C125.214 19.215 124.799 19.4277 124.491 19.853C124.191 20.271 124.04 20.843 124.04 21.569V24H123.105V18.456ZM129.004 21.228C129.004 20.7 129.111 20.2197 129.323 19.787C129.543 19.347 129.855 19.0023 130.258 18.753C130.669 18.4963 131.146 18.368 131.688 18.368C132.216 18.368 132.682 18.4853 133.085 18.72C133.489 18.9473 133.797 19.2627 134.009 19.666C134.229 20.062 134.339 20.4983 134.339 20.975C134.339 21.129 134.332 21.2647 134.317 21.382H129.939C129.969 21.954 130.145 22.4123 130.467 22.757C130.79 23.0943 131.212 23.263 131.732 23.263C132.15 23.263 132.502 23.1677 132.788 22.977C133.074 22.7863 133.258 22.5187 133.338 22.174L134.218 22.383C134.079 22.9183 133.789 23.3363 133.349 23.637C132.909 23.9377 132.37 24.088 131.732 24.088C131.19 24.088 130.709 23.9633 130.291 23.714C129.881 23.4573 129.562 23.1127 129.334 22.68C129.114 22.24 129.004 21.756 129.004 21.228ZM133.349 20.623C133.305 20.183 133.137 19.8273 132.843 19.556C132.55 19.2847 132.165 19.149 131.688 19.149C131.256 19.149 130.889 19.281 130.588 19.545C130.288 19.8017 130.09 20.161 129.994 20.623H133.349ZM134.821 18.456H135.778L136.977 22.691L138.275 18.456H139.177L140.475 22.691L141.663 18.456H142.642L140.937 24H140.024L138.726 19.787L137.428 24H136.515L134.821 18.456ZM147.967 24.088C147.351 24.088 146.845 23.9303 146.449 23.615C146.06 23.2997 145.796 22.9183 145.657 22.471L146.46 22.119C146.709 22.9037 147.212 23.296 147.967 23.296C148.297 23.296 148.565 23.2153 148.77 23.054C148.983 22.8853 149.089 22.6837 149.089 22.449C149.089 22.251 149.027 22.0897 148.902 21.965C148.785 21.8403 148.638 21.745 148.462 21.679C148.286 21.613 148.04 21.5397 147.725 21.459C147.329 21.3563 147.01 21.2573 146.768 21.162C146.533 21.0593 146.328 20.9053 146.152 20.7C145.983 20.4873 145.899 20.2013 145.899 19.842C145.899 19.402 146.075 19.0463 146.427 18.775C146.779 18.5037 147.252 18.368 147.846 18.368C148.337 18.368 148.774 18.4963 149.155 18.753C149.544 19.0023 149.793 19.3287 149.903 19.732L149.122 20.073C149.049 19.7943 148.887 19.5707 148.638 19.402C148.396 19.226 148.125 19.138 147.824 19.138C147.509 19.138 147.259 19.2003 147.076 19.325C146.9 19.4423 146.812 19.611 146.812 19.831C146.812 20.051 146.911 20.216 147.109 20.326C147.307 20.4287 147.611 20.5277 148.022 20.623C148.433 20.7257 148.77 20.832 149.034 20.942C149.298 21.0447 149.525 21.217 149.716 21.459C149.907 21.6937 150.002 22.0163 150.002 22.427C150.002 22.9183 149.815 23.318 149.441 23.626C149.067 23.934 148.576 24.088 147.967 24.088ZM151.069 18.456H152.004V24H151.069V18.456ZM152.081 16.212V17.4H151.003V16.212H152.081ZM155.719 23.857C155.162 23.857 154.685 23.7397 154.289 23.505C153.893 23.2703 153.592 22.9477 153.387 22.537C153.182 22.119 153.079 21.646 153.079 21.118C153.079 20.59 153.182 20.117 153.387 19.699C153.592 19.281 153.889 18.9547 154.278 18.72C154.674 18.4853 155.147 18.368 155.697 18.368C156.064 18.368 156.412 18.4487 156.742 18.61C157.072 18.764 157.321 18.962 157.49 19.204V18.456H158.414V23.736C158.414 24.198 158.304 24.605 158.084 24.957C157.871 25.3163 157.567 25.595 157.171 25.793C156.782 25.991 156.335 26.09 155.829 26.09C155.184 26.09 154.634 25.9323 154.179 25.617C153.724 25.309 153.457 24.9057 153.376 24.407L154.278 24.253C154.307 24.561 154.465 24.8103 154.751 25.001C155.044 25.199 155.404 25.298 155.829 25.298C156.32 25.298 156.72 25.1623 157.028 24.891C157.336 24.6197 157.49 24.2677 157.49 23.835V23.065C157.365 23.2997 157.138 23.4903 156.808 23.637C156.478 23.7837 156.115 23.857 155.719 23.857ZM154.036 21.118C154.036 21.6973 154.197 22.1593 154.52 22.504C154.843 22.8487 155.272 23.021 155.807 23.021C156.342 23.021 156.768 22.8487 157.083 22.504C157.406 22.1593 157.567 21.6973 157.567 21.118C157.567 20.5387 157.406 20.0767 157.083 19.732C156.768 19.38 156.342 19.204 155.807 19.204C155.264 19.204 154.832 19.38 154.509 19.732C154.194 20.0767 154.036 20.5387 154.036 21.118ZM159.809 18.456H160.744V19.501C160.942 19.1563 161.206 18.8813 161.536 18.676C161.866 18.4707 162.237 18.368 162.647 18.368C163.227 18.368 163.7 18.5477 164.066 18.907C164.44 19.2663 164.627 19.7393 164.627 20.326V24H163.692V20.502C163.692 20.1207 163.579 19.8127 163.351 19.578C163.124 19.336 162.82 19.215 162.438 19.215C161.918 19.215 161.503 19.4277 161.195 19.853C160.895 20.271 160.744 20.843 160.744 21.569V24H159.809V18.456ZM165.708 21.228C165.708 20.7 165.815 20.2197 166.027 19.787C166.247 19.347 166.559 19.0023 166.962 18.753C167.373 18.4963 167.85 18.368 168.392 18.368C168.92 18.368 169.386 18.4853 169.789 18.72C170.193 18.9473 170.501 19.2627 170.713 19.666C170.933 20.062 171.043 20.4983 171.043 20.975C171.043 21.129 171.036 21.2647 171.021 21.382H166.643C166.673 21.954 166.849 22.4123 167.171 22.757C167.494 23.0943 167.916 23.263 168.436 23.263C168.854 23.263 169.206 23.1677 169.492 22.977C169.778 22.7863 169.962 22.5187 170.042 22.174L170.922 22.383C170.783 22.9183 170.493 23.3363 170.053 23.637C169.613 23.9377 169.074 24.088 168.436 24.088C167.894 24.088 167.413 23.9633 166.995 23.714C166.585 23.4573 166.266 23.1127 166.038 22.68C165.818 22.24 165.708 21.756 165.708 21.228ZM170.053 20.623C170.009 20.183 169.841 19.8273 169.547 19.556C169.254 19.2847 168.869 19.149 168.392 19.149C167.96 19.149 167.593 19.281 167.292 19.545C166.992 19.8017 166.794 20.161 166.698 20.623H170.053ZM174.481 24.088C173.924 24.088 173.443 23.967 173.04 23.725C172.637 23.4757 172.329 23.1347 172.116 22.702C171.911 22.2693 171.808 21.778 171.808 21.228C171.808 20.678 171.911 20.1867 172.116 19.754C172.329 19.3213 172.633 18.984 173.029 18.742C173.432 18.4927 173.913 18.368 174.47 18.368C174.837 18.368 175.185 18.4487 175.515 18.61C175.852 18.7713 176.109 18.984 176.285 19.248V16.212H177.22V24H176.285V23.197C176.16 23.4537 175.929 23.6663 175.592 23.835C175.255 24.0037 174.884 24.088 174.481 24.088ZM172.765 21.228C172.765 21.8367 172.93 22.328 173.26 22.702C173.59 23.0687 174.026 23.252 174.569 23.252C175.112 23.252 175.548 23.0687 175.878 22.702C176.208 22.328 176.373 21.8367 176.373 21.228C176.373 20.6193 176.208 20.1317 175.878 19.765C175.548 19.391 175.112 19.204 174.569 19.204C174.026 19.204 173.59 19.391 173.26 19.765C172.93 20.1317 172.765 20.6193 172.765 21.228ZM181.191 16.3H182.401L184.997 22.548L187.593 16.3H188.803V24H187.813V18.192L185.415 24H184.579L182.17 18.192V24H181.191V16.3ZM189.914 21.228C189.914 20.7 190.02 20.2197 190.233 19.787C190.453 19.347 190.764 19.0023 191.168 18.753C191.578 18.4963 192.055 18.368 192.598 18.368C193.126 18.368 193.591 18.4853 193.995 18.72C194.398 18.9473 194.706 19.2627 194.919 19.666C195.139 20.062 195.249 20.4983 195.249 20.975C195.249 21.129 195.241 21.2647 195.227 21.382H190.849C190.878 21.954 191.054 22.4123 191.377 22.757C191.699 23.0943 192.121 23.263 192.642 23.263C193.06 23.263 193.412 23.1677 193.698 22.977C193.984 22.7863 194.167 22.5187 194.248 22.174L195.128 22.383C194.988 22.9183 194.699 23.3363 194.259 23.637C193.819 23.9377 193.28 24.088 192.642 24.088C192.099 24.088 191.619 23.9633 191.201 23.714C190.79 23.4573 190.471 23.1127 190.244 22.68C190.024 22.24 189.914 21.756 189.914 21.228ZM194.259 20.623C194.215 20.183 194.046 19.8273 193.753 19.556C193.459 19.2847 193.074 19.149 192.598 19.149C192.165 19.149 191.798 19.281 191.498 19.545C191.197 19.8017 190.999 20.161 190.904 20.623H194.259ZM199.577 19.369C199.372 19.281 199.134 19.237 198.862 19.237C198.393 19.237 198.008 19.4643 197.707 19.919C197.414 20.3663 197.267 21.0227 197.267 21.888V24H196.332V18.456H197.267V19.578C197.429 19.226 197.671 18.9363 197.993 18.709C198.316 18.4817 198.65 18.368 198.994 18.368C199.236 18.368 199.449 18.401 199.632 18.467L199.577 19.369ZM202.597 24.088C202.054 24.088 201.574 23.9707 201.156 23.736C200.738 23.494 200.415 23.1567 200.188 22.724C199.96 22.2913 199.847 21.7927 199.847 21.228C199.847 20.6633 199.96 20.1647 200.188 19.732C200.415 19.2993 200.738 18.9657 201.156 18.731C201.574 18.489 202.054 18.368 202.597 18.368C203.242 18.368 203.781 18.533 204.214 18.863C204.654 19.1857 204.925 19.622 205.028 20.172L204.104 20.359C204.045 20.0217 203.88 19.7467 203.609 19.534C203.337 19.314 203.007 19.204 202.619 19.204C202.076 19.204 201.64 19.391 201.31 19.765C200.987 20.1317 200.826 20.6193 200.826 21.228C200.826 21.8367 200.987 22.328 201.31 22.702C201.64 23.0687 202.076 23.252 202.619 23.252C203.015 23.252 203.345 23.1493 203.609 22.944C203.88 22.7387 204.052 22.4527 204.126 22.086L205.039 22.273C204.921 22.845 204.643 23.2923 204.203 23.615C203.77 23.9303 203.235 24.088 202.597 24.088ZM206.083 16.212H207.018V19.545C207.216 19.1563 207.476 18.863 207.799 18.665C208.129 18.467 208.499 18.368 208.91 18.368C209.54 18.368 210.043 18.5477 210.417 18.907C210.798 19.2663 210.989 19.7467 210.989 20.348V24H210.054V20.524C210.054 20.1133 209.933 19.7943 209.691 19.567C209.456 19.3323 209.126 19.215 208.701 19.215C208.187 19.215 207.777 19.4313 207.469 19.864C207.168 20.2967 207.018 20.8833 207.018 21.624V24H206.083V16.212ZM218.352 24.088C217.685 24.088 217.065 23.9413 216.493 23.648C215.928 23.3473 215.474 22.9037 215.129 22.317C214.784 21.723 214.612 21.0007 214.612 20.15C214.612 19.3067 214.784 18.588 215.129 17.994C215.474 17.4 215.928 16.9563 216.493 16.663C217.065 16.3623 217.685 16.212 218.352 16.212C219.188 16.212 219.896 16.432 220.475 16.872C221.062 17.3047 221.436 17.895 221.597 18.643L220.607 18.863C220.482 18.3057 220.222 17.873 219.826 17.565C219.437 17.257 218.942 17.103 218.341 17.103C217.813 17.103 217.344 17.224 216.933 17.466C216.53 17.7007 216.214 18.049 215.987 18.511C215.76 18.9657 215.646 19.512 215.646 20.15C215.646 20.788 215.76 21.338 215.987 21.8C216.214 22.2547 216.53 22.5993 216.933 22.834C217.344 23.0687 217.813 23.186 218.341 23.186C218.935 23.186 219.423 23.0393 219.804 22.746C220.193 22.4527 220.457 22.0383 220.596 21.503L221.597 21.712C221.399 22.4453 221.014 23.0247 220.442 23.45C219.87 23.8753 219.173 24.088 218.352 24.088ZM225.149 24.088C224.607 24.088 224.119 23.967 223.686 23.725C223.261 23.4757 222.927 23.1347 222.685 22.702C222.451 22.2693 222.333 21.778 222.333 21.228C222.333 20.678 222.451 20.1867 222.685 19.754C222.927 19.3213 223.261 18.984 223.686 18.742C224.119 18.4927 224.607 18.368 225.149 18.368C225.692 18.368 226.176 18.4927 226.601 18.742C227.034 18.984 227.371 19.3213 227.613 19.754C227.855 20.1867 227.976 20.678 227.976 21.228C227.976 21.778 227.855 22.2693 227.613 22.702C227.371 23.1347 227.034 23.4757 226.601 23.725C226.176 23.967 225.692 24.088 225.149 24.088ZM223.29 21.228C223.29 21.822 223.463 22.3097 223.807 22.691C224.152 23.065 224.599 23.252 225.149 23.252C225.699 23.252 226.147 23.065 226.491 22.691C226.836 22.3097 227.008 21.822 227.008 21.228C227.008 20.634 226.836 20.15 226.491 19.776C226.147 19.3947 225.699 19.204 225.149 19.204C224.599 19.204 224.152 19.3947 223.807 19.776C223.463 20.15 223.29 20.634 223.29 21.228ZM229.053 16.212H229.988V24H229.053V16.212ZM231.382 16.212H232.317V24H231.382V16.212ZM233.392 21.228C233.392 20.7 233.499 20.2197 233.711 19.787C233.931 19.347 234.243 19.0023 234.646 18.753C235.057 18.4963 235.534 18.368 236.076 18.368C236.604 18.368 237.07 18.4853 237.473 18.72C237.877 18.9473 238.185 19.2627 238.397 19.666C238.617 20.062 238.727 20.4983 238.727 20.975C238.727 21.129 238.72 21.2647 238.705 21.382H234.327C234.357 21.954 234.533 22.4123 234.855 22.757C235.178 23.0943 235.6 23.263 236.12 23.263C236.538 23.263 236.89 23.1677 237.176 22.977C237.462 22.7863 237.646 22.5187 237.726 22.174L238.606 22.383C238.467 22.9183 238.177 23.3363 237.737 23.637C237.297 23.9377 236.758 24.088 236.12 24.088C235.578 24.088 235.097 23.9633 234.679 23.714C234.269 23.4573 233.95 23.1127 233.722 22.68C233.502 22.24 233.392 21.756 233.392 21.228ZM237.737 20.623C237.693 20.183 237.525 19.8273 237.231 19.556C236.938 19.2847 236.553 19.149 236.076 19.149C235.644 19.149 235.277 19.281 234.976 19.545C234.676 19.8017 234.478 20.161 234.382 20.623H237.737ZM242.242 24.088C241.699 24.088 241.219 23.9707 240.801 23.736C240.383 23.494 240.06 23.1567 239.833 22.724C239.606 22.2913 239.492 21.7927 239.492 21.228C239.492 20.6633 239.606 20.1647 239.833 19.732C240.06 19.2993 240.383 18.9657 240.801 18.731C241.219 18.489 241.699 18.368 242.242 18.368C242.887 18.368 243.426 18.533 243.859 18.863C244.299 19.1857 244.57 19.622 244.673 20.172L243.749 20.359C243.69 20.0217 243.525 19.7467 243.254 19.534C242.983 19.314 242.653 19.204 242.264 19.204C241.721 19.204 241.285 19.391 240.955 19.765C240.632 20.1317 240.471 20.6193 240.471 21.228C240.471 21.8367 240.632 22.328 240.955 22.702C241.285 23.0687 241.721 23.252 242.264 23.252C242.66 23.252 242.99 23.1493 243.254 22.944C243.525 22.7387 243.698 22.4527 243.771 22.086L244.684 22.273C244.567 22.845 244.288 23.2923 243.848 23.615C243.415 23.9303 242.88 24.088 242.242 24.088ZM248.676 23.956C248.434 24.044 248.145 24.088 247.807 24.088C247.309 24.088 246.909 23.945 246.608 23.659C246.315 23.3657 246.168 22.9257 246.168 22.339V19.281H245.134V18.456H246.168V16.773H247.103V18.456H248.588V19.281H247.103V22.372C247.103 22.658 247.177 22.8743 247.323 23.021C247.47 23.1677 247.668 23.241 247.917 23.241C248.189 23.241 248.42 23.1933 248.61 23.098L248.676 23.956ZM249.647 18.456H250.582V24H249.647V18.456ZM250.659 16.212V17.4H249.581V16.212H250.659ZM254.473 24.088C253.931 24.088 253.443 23.967 253.01 23.725C252.585 23.4757 252.251 23.1347 252.009 22.702C251.775 22.2693 251.657 21.778 251.657 21.228C251.657 20.678 251.775 20.1867 252.009 19.754C252.251 19.3213 252.585 18.984 253.01 18.742C253.443 18.4927 253.931 18.368 254.473 18.368C255.016 18.368 255.5 18.4927 255.925 18.742C256.358 18.984 256.695 19.3213 256.937 19.754C257.179 20.1867 257.3 20.678 257.3 21.228C257.3 21.778 257.179 22.2693 256.937 22.702C256.695 23.1347 256.358 23.4757 255.925 23.725C255.5 23.967 255.016 24.088 254.473 24.088ZM252.614 21.228C252.614 21.822 252.787 22.3097 253.131 22.691C253.476 23.065 253.923 23.252 254.473 23.252C255.023 23.252 255.471 23.065 255.815 22.691C256.16 22.3097 256.332 21.822 256.332 21.228C256.332 20.634 256.16 20.15 255.815 19.776C255.471 19.3947 255.023 19.204 254.473 19.204C253.923 19.204 253.476 19.3947 253.131 19.776C252.787 20.15 252.614 20.634 252.614 21.228ZM258.377 18.456H259.312V19.501C259.51 19.1563 259.774 18.8813 260.104 18.676C260.434 18.4707 260.804 18.368 261.215 18.368C261.794 18.368 262.267 18.5477 262.634 18.907C263.008 19.2663 263.195 19.7393 263.195 20.326V24H262.26V20.502C262.26 20.1207 262.146 19.8127 261.919 19.578C261.692 19.336 261.387 19.215 261.006 19.215C260.485 19.215 260.071 19.4277 259.763 19.853C259.462 20.271 259.312 20.843 259.312 21.569V24H258.377V18.456ZM266.465 24.088C265.849 24.088 265.343 23.9303 264.947 23.615C264.558 23.2997 264.294 22.9183 264.155 22.471L264.958 22.119C265.207 22.9037 265.71 23.296 266.465 23.296C266.795 23.296 267.063 23.2153 267.268 23.054C267.481 22.8853 267.587 22.6837 267.587 22.449C267.587 22.251 267.525 22.0897 267.4 21.965C267.283 21.8403 267.136 21.745 266.96 21.679C266.784 21.613 266.538 21.5397 266.223 21.459C265.827 21.3563 265.508 21.2573 265.266 21.162C265.031 21.0593 264.826 20.9053 264.65 20.7C264.481 20.4873 264.397 20.2013 264.397 19.842C264.397 19.402 264.573 19.0463 264.925 18.775C265.277 18.5037 265.75 18.368 266.344 18.368C266.835 18.368 267.272 18.4963 267.653 18.753C268.042 19.0023 268.291 19.3287 268.401 19.732L267.62 20.073C267.547 19.7943 267.385 19.5707 267.136 19.402C266.894 19.226 266.623 19.138 266.322 19.138C266.007 19.138 265.757 19.2003 265.574 19.325C265.398 19.4423 265.31 19.611 265.31 19.831C265.31 20.051 265.409 20.216 265.607 20.326C265.805 20.4287 266.109 20.5277 266.52 20.623C266.931 20.7257 267.268 20.832 267.532 20.942C267.796 21.0447 268.023 21.217 268.214 21.459C268.405 21.6937 268.5 22.0163 268.5 22.427C268.5 22.9183 268.313 23.318 267.939 23.626C267.565 23.934 267.074 24.088 266.465 24.088ZM272.1 18.456H273.035V24H272.1V18.456ZM273.112 16.212V17.4H272.034V16.212H273.112ZM276.299 24.088C275.683 24.088 275.177 23.9303 274.781 23.615C274.393 23.2997 274.129 22.9183 273.989 22.471L274.792 22.119C275.042 22.9037 275.544 23.296 276.299 23.296C276.629 23.296 276.897 23.2153 277.102 23.054C277.315 22.8853 277.421 22.6837 277.421 22.449C277.421 22.251 277.359 22.0897 277.234 21.965C277.117 21.8403 276.97 21.745 276.794 21.679C276.618 21.613 276.373 21.5397 276.057 21.459C275.661 21.3563 275.342 21.2573 275.1 21.162C274.866 21.0593 274.66 20.9053 274.484 20.7C274.316 20.4873 274.231 20.2013 274.231 19.842C274.231 19.402 274.407 19.0463 274.759 18.775C275.111 18.5037 275.584 18.368 276.178 18.368C276.67 18.368 277.106 18.4963 277.487 18.753C277.876 19.0023 278.125 19.3287 278.235 19.732L277.454 20.073C277.381 19.7943 277.22 19.5707 276.97 19.402C276.728 19.226 276.457 19.138 276.156 19.138C275.841 19.138 275.592 19.2003 275.408 19.325C275.232 19.4423 275.144 19.611 275.144 19.831C275.144 20.051 275.243 20.216 275.441 20.326C275.639 20.4287 275.944 20.5277 276.354 20.623C276.765 20.7257 277.102 20.832 277.366 20.942C277.63 21.0447 277.858 21.217 278.048 21.459C278.239 21.6937 278.334 22.0163 278.334 22.427C278.334 22.9183 278.147 23.318 277.773 23.626C277.399 23.934 276.908 24.088 276.299 24.088ZM286.752 24H285.817V22.955C285.619 23.2997 285.355 23.5747 285.025 23.78C284.695 23.9853 284.325 24.088 283.914 24.088C283.335 24.088 282.858 23.9083 282.484 23.549C282.118 23.1897 281.934 22.7167 281.934 22.13V18.456H282.869V21.954C282.869 22.3353 282.983 22.647 283.21 22.889C283.438 23.1237 283.742 23.241 284.123 23.241C284.644 23.241 285.055 23.032 285.355 22.614C285.663 22.1887 285.817 21.613 285.817 20.887V18.456H286.752V24ZM288.152 18.456H289.087V19.259C289.241 19.0023 289.483 18.7897 289.813 18.621C290.151 18.4523 290.517 18.368 290.913 18.368C291.471 18.368 291.947 18.4927 292.343 18.742C292.739 18.984 293.04 19.3213 293.245 19.754C293.458 20.1867 293.564 20.678 293.564 21.228C293.564 21.778 293.458 22.2693 293.245 22.702C293.033 23.1347 292.725 23.4757 292.321 23.725C291.925 23.967 291.449 24.088 290.891 24.088C290.539 24.088 290.198 24.011 289.868 23.857C289.538 23.6957 289.278 23.4867 289.087 23.23V26.002H288.152V18.456ZM289.01 21.228C289.01 21.8367 289.172 22.328 289.494 22.702C289.824 23.0687 290.261 23.252 290.803 23.252C291.353 23.252 291.793 23.0687 292.123 22.702C292.453 22.328 292.618 21.8367 292.618 21.228C292.618 20.6193 292.453 20.1317 292.123 19.765C291.793 19.391 291.353 19.204 290.803 19.204C290.261 19.204 289.824 19.391 289.494 19.765C289.172 20.1317 289.01 20.6193 289.01 21.228ZM297.722 19.281H296.776V18.456H297.722V17.939C297.722 17.345 297.872 16.8867 298.173 16.564C298.474 16.234 298.87 16.069 299.361 16.069C299.654 16.069 299.904 16.0983 300.109 16.157L300.065 16.993C299.874 16.9197 299.68 16.883 299.482 16.883C299.233 16.883 299.031 16.9747 298.877 17.158C298.73 17.334 298.657 17.5687 298.657 17.862V18.456H300.076V19.281H298.657V24H297.722V19.281ZM303.212 24.088C302.669 24.088 302.182 23.967 301.749 23.725C301.324 23.4757 300.99 23.1347 300.748 22.702C300.513 22.2693 300.396 21.778 300.396 21.228C300.396 20.678 300.513 20.1867 300.748 19.754C300.99 19.3213 301.324 18.984 301.749 18.742C302.182 18.4927 302.669 18.368 303.212 18.368C303.755 18.368 304.239 18.4927 304.664 18.742C305.097 18.984 305.434 19.3213 305.676 19.754C305.918 20.1867 306.039 20.678 306.039 21.228C306.039 21.778 305.918 22.2693 305.676 22.702C305.434 23.1347 305.097 23.4757 304.664 23.725C304.239 23.967 303.755 24.088 303.212 24.088ZM301.353 21.228C301.353 21.822 301.525 22.3097 301.87 22.691C302.215 23.065 302.662 23.252 303.212 23.252C303.762 23.252 304.209 23.065 304.554 22.691C304.899 22.3097 305.071 21.822 305.071 21.228C305.071 20.634 304.899 20.15 304.554 19.776C304.209 19.3947 303.762 19.204 303.212 19.204C302.662 19.204 302.215 19.3947 301.87 19.776C301.525 20.15 301.353 20.634 301.353 21.228ZM310.361 19.369C310.155 19.281 309.917 19.237 309.646 19.237C309.176 19.237 308.791 19.4643 308.491 19.919C308.197 20.3663 308.051 21.0227 308.051 21.888V24H307.116V18.456H308.051V19.578C308.212 19.226 308.454 18.9363 308.777 18.709C309.099 18.4817 309.433 18.368 309.778 18.368C310.02 18.368 310.232 18.401 310.416 18.467L310.361 19.369ZM55.08 36.857C54.5227 36.857 54.046 36.7397 53.65 36.505C53.254 36.2703 52.9533 35.9477 52.748 35.537C52.5427 35.119 52.44 34.646 52.44 34.118C52.44 33.59 52.5427 33.117 52.748 32.699C52.9533 32.281 53.2503 31.9547 53.639 31.72C54.035 31.4853 54.508 31.368 55.058 31.368C55.4247 31.368 55.773 31.4487 56.103 31.61C56.433 31.764 56.6823 31.962 56.851 32.204V31.456H57.775V36.736C57.775 37.198 57.665 37.605 57.445 37.957C57.2323 38.3163 56.928 38.595 56.532 38.793C56.1433 38.991 55.696 39.09 55.19 39.09C54.5447 39.09 53.9947 38.9323 53.54 38.617C53.0853 38.309 52.8177 37.9057 52.737 37.407L53.639 37.253C53.6683 37.561 53.826 37.8103 54.112 38.001C54.4053 38.199 54.7647 38.298 55.19 38.298C55.6813 38.298 56.081 38.1623 56.389 37.891C56.697 37.6197 56.851 37.2677 56.851 36.835V36.065C56.7263 36.2997 56.499 36.4903 56.169 36.637C55.839 36.7837 55.476 36.857 55.08 36.857ZM53.397 34.118C53.397 34.6973 53.5583 35.1593 53.881 35.504C54.2037 35.8487 54.6327 36.021 55.168 36.021C55.7033 36.021 56.1287 35.8487 56.444 35.504C56.7667 35.1593 56.928 34.6973 56.928 34.118C56.928 33.5387 56.7667 33.0767 56.444 32.732C56.1287 32.38 55.7033 32.204 55.168 32.204C54.6253 32.204 54.1927 32.38 53.87 32.732C53.5547 33.0767 53.397 33.5387 53.397 34.118ZM62.4153 32.369C62.2099 32.281 61.9716 32.237 61.7003 32.237C61.2309 32.237 60.8459 32.4643 60.5453 32.919C60.2519 33.3663 60.1053 34.0227 60.1053 34.888V37H59.1703V31.456H60.1053V32.578C60.2666 32.226 60.5086 31.9363 60.8313 31.709C61.1539 31.4817 61.4876 31.368 61.8323 31.368C62.0743 31.368 62.2869 31.401 62.4703 31.467L62.4153 32.369ZM66.4888 33.392C66.4888 33.0107 66.3642 32.71 66.1148 32.49C65.8728 32.2627 65.5465 32.149 65.1358 32.149C64.7545 32.149 64.4392 32.2553 64.1898 32.468C63.9405 32.6807 63.7975 32.974 63.7608 33.348L62.8918 33.183C62.9725 32.633 63.2182 32.193 63.6288 31.863C64.0468 31.533 64.5492 31.368 65.1358 31.368C65.8178 31.368 66.3678 31.555 66.7858 31.929C67.2038 32.303 67.4128 32.809 67.4128 33.447V37H66.4888V36.054C66.3275 36.3693 66.0782 36.6223 65.7408 36.813C65.4108 36.9963 65.0442 37.088 64.6408 37.088C64.0908 37.088 63.6398 36.9377 63.2878 36.637C62.9432 36.329 62.7708 35.933 62.7708 35.449C62.7708 34.921 62.9872 34.5067 63.4198 34.206C63.8598 33.9053 64.5235 33.711 65.4108 33.623L66.4888 33.502V33.392ZM63.7058 35.438C63.7058 35.6947 63.8048 35.9073 64.0028 36.076C64.2082 36.2373 64.4685 36.318 64.7838 36.318C65.3192 36.318 65.7372 36.153 66.0378 35.823C66.3385 35.493 66.4888 35.0493 66.4888 34.492V34.228L65.4108 34.349C64.8535 34.4077 64.4282 34.5323 64.1348 34.723C63.8488 34.9063 63.7058 35.1447 63.7058 35.438ZM71.5521 37.088C71.1487 37.088 70.7784 37.0037 70.4411 36.835C70.1037 36.6663 69.8727 36.4537 69.7481 36.197V37H68.8131V29.212H69.7481V32.248C69.9241 31.984 70.1771 31.7713 70.5071 31.61C70.8444 31.4487 71.1964 31.368 71.5631 31.368C72.1204 31.368 72.5971 31.4927 72.9931 31.742C73.3964 31.984 73.7007 32.3213 73.9061 32.754C74.1187 33.1867 74.2251 33.678 74.2251 34.228C74.2251 34.778 74.1187 35.2693 73.9061 35.702C73.7007 36.1347 73.3964 36.4757 72.9931 36.725C72.5897 36.967 72.1094 37.088 71.5521 37.088ZM69.6601 34.228C69.6601 34.8367 69.8251 35.328 70.1551 35.702C70.4851 36.0687 70.9214 36.252 71.4641 36.252C72.0067 36.252 72.4431 36.0687 72.7731 35.702C73.1031 35.328 73.2681 34.8367 73.2681 34.228C73.2681 33.6193 73.1031 33.1317 72.7731 32.765C72.4431 32.391 72.0067 32.204 71.4641 32.204C70.9214 32.204 70.4851 32.391 70.1551 32.765C69.8251 33.1317 69.6601 33.6193 69.6601 34.228ZM77.1158 37.088C76.4998 37.088 75.9938 36.9303 75.5978 36.615C75.2091 36.2997 74.9451 35.9183 74.8058 35.471L75.6088 35.119C75.8581 35.9037 76.3605 36.296 77.1158 36.296C77.4458 36.296 77.7135 36.2153 77.9188 36.054C78.1315 35.8853 78.2378 35.6837 78.2378 35.449C78.2378 35.251 78.1755 35.0897 78.0508 34.965C77.9335 34.8403 77.7868 34.745 77.6108 34.679C77.4348 34.613 77.1891 34.5397 76.8738 34.459C76.4778 34.3563 76.1588 34.2573 75.9168 34.162C75.6821 34.0593 75.4768 33.9053 75.3008 33.7C75.1321 33.4873 75.0478 33.2013 75.0478 32.842C75.0478 32.402 75.2238 32.0463 75.5758 31.775C75.9278 31.5037 76.4008 31.368 76.9948 31.368C77.4861 31.368 77.9225 31.4963 78.3038 31.753C78.6925 32.0023 78.9418 32.3287 79.0518 32.732L78.2708 33.073C78.1975 32.7943 78.0361 32.5707 77.7868 32.402C77.5448 32.226 77.2735 32.138 76.9728 32.138C76.6575 32.138 76.4081 32.2003 76.2248 32.325C76.0488 32.4423 75.9608 32.611 75.9608 32.831C75.9608 33.051 76.0598 33.216 76.2578 33.326C76.4558 33.4287 76.7601 33.5277 77.1708 33.623C77.5815 33.7257 77.9188 33.832 78.1828 33.942C78.4468 34.0447 78.6741 34.217 78.8648 34.459C79.0555 34.6937 79.1508 35.0163 79.1508 35.427C79.1508 35.9183 78.9638 36.318 78.5898 36.626C78.2158 36.934 77.7245 37.088 77.1158 37.088ZM81.1247 35.856V37H79.9587V35.856H81.1247ZM139.399 36.956C139.157 37.044 138.867 37.088 138.53 37.088C138.031 37.088 137.631 36.945 137.331 36.659C137.037 36.3657 136.891 35.9257 136.891 35.339V32.281H135.857V31.456H136.891V29.773H137.826V31.456H139.311V32.281H137.826V35.372C137.826 35.658 137.899 35.8743 138.046 36.021C138.192 36.1677 138.39 36.241 138.64 36.241C138.911 36.241 139.142 36.1933 139.333 36.098L139.399 36.956ZM142.727 37.088C142.184 37.088 141.697 36.967 141.264 36.725C140.839 36.4757 140.505 36.1347 140.263 35.702C140.028 35.2693 139.911 34.778 139.911 34.228C139.911 33.678 140.028 33.1867 140.263 32.754C140.505 32.3213 140.839 31.984 141.264 31.742C141.697 31.4927 142.184 31.368 142.727 31.368C143.27 31.368 143.754 31.4927 144.179 31.742C144.612 31.984 144.949 32.3213 145.191 32.754C145.433 33.1867 145.554 33.678 145.554 34.228C145.554 34.778 145.433 35.2693 145.191 35.702C144.949 36.1347 144.612 36.4757 144.179 36.725C143.754 36.967 143.27 37.088 142.727 37.088ZM140.868 34.228C140.868 34.822 141.04 35.3097 141.385 35.691C141.73 36.065 142.177 36.252 142.727 36.252C143.277 36.252 143.724 36.065 144.069 35.691C144.414 35.3097 144.586 34.822 144.586 34.228C144.586 33.634 144.414 33.15 144.069 32.776C143.724 32.3947 143.277 32.204 142.727 32.204C142.177 32.204 141.73 32.3947 141.385 32.776C141.04 33.15 140.868 33.634 140.868 34.228ZM149.164 31.456H150.099V32.259C150.253 32.0023 150.495 31.7897 150.825 31.621C151.162 31.4523 151.529 31.368 151.925 31.368C152.482 31.368 152.959 31.4927 153.355 31.742C153.751 31.984 154.051 32.3213 154.257 32.754C154.469 33.1867 154.576 33.678 154.576 34.228C154.576 34.778 154.469 35.2693 154.257 35.702C154.044 36.1347 153.736 36.4757 153.333 36.725C152.937 36.967 152.46 37.088 151.903 37.088C151.551 37.088 151.21 37.011 150.88 36.857C150.55 36.6957 150.289 36.4867 150.099 36.23V39.002H149.164V31.456ZM150.022 34.228C150.022 34.8367 150.183 35.328 150.506 35.702C150.836 36.0687 151.272 36.252 151.815 36.252C152.365 36.252 152.805 36.0687 153.135 35.702C153.465 35.328 153.63 34.8367 153.63 34.228C153.63 33.6193 153.465 33.1317 153.135 32.765C152.805 32.391 152.365 32.204 151.815 32.204C151.272 32.204 150.836 32.391 150.506 32.765C150.183 33.1317 150.022 33.6193 150.022 34.228ZM160.468 37H159.533V35.955C159.335 36.2997 159.071 36.5747 158.741 36.78C158.411 36.9853 158.041 37.088 157.63 37.088C157.051 37.088 156.574 36.9083 156.2 36.549C155.834 36.1897 155.65 35.7167 155.65 35.13V31.456H156.585V34.954C156.585 35.3353 156.699 35.647 156.926 35.889C157.154 36.1237 157.458 36.241 157.839 36.241C158.36 36.241 158.771 36.032 159.071 35.614C159.379 35.1887 159.533 34.613 159.533 33.887V31.456H160.468V37ZM165.113 32.369C164.908 32.281 164.669 32.237 164.398 32.237C163.929 32.237 163.544 32.4643 163.243 32.919C162.95 33.3663 162.803 34.0227 162.803 34.888V37H161.868V31.456H162.803V32.578C162.964 32.226 163.206 31.9363 163.529 31.709C163.852 31.4817 164.185 31.368 164.53 31.368C164.772 31.368 164.985 31.401 165.168 31.467L165.113 32.369ZM168.132 37.088C167.59 37.088 167.109 36.9707 166.691 36.736C166.273 36.494 165.951 36.1567 165.723 35.724C165.496 35.2913 165.382 34.7927 165.382 34.228C165.382 33.6633 165.496 33.1647 165.723 32.732C165.951 32.2993 166.273 31.9657 166.691 31.731C167.109 31.489 167.59 31.368 168.132 31.368C168.778 31.368 169.317 31.533 169.749 31.863C170.189 32.1857 170.461 32.622 170.563 33.172L169.639 33.359C169.581 33.0217 169.416 32.7467 169.144 32.534C168.873 32.314 168.543 32.204 168.154 32.204C167.612 32.204 167.175 32.391 166.845 32.765C166.523 33.1317 166.361 33.6193 166.361 34.228C166.361 34.8367 166.523 35.328 166.845 35.702C167.175 36.0687 167.612 36.252 168.154 36.252C168.55 36.252 168.88 36.1493 169.144 35.944C169.416 35.7387 169.588 35.4527 169.661 35.086L170.574 35.273C170.457 35.845 170.178 36.2923 169.738 36.615C169.306 36.9303 168.77 37.088 168.132 37.088ZM171.618 29.212H172.553V32.545C172.751 32.1563 173.012 31.863 173.334 31.665C173.664 31.467 174.035 31.368 174.445 31.368C175.076 31.368 175.578 31.5477 175.952 31.907C176.334 32.2663 176.524 32.7467 176.524 33.348V37H175.589V33.524C175.589 33.1133 175.468 32.7943 175.226 32.567C174.992 32.3323 174.662 32.215 174.236 32.215C173.723 32.215 173.312 32.4313 173.004 32.864C172.704 33.2967 172.553 33.8833 172.553 34.624V37H171.618V29.212ZM181.343 33.392C181.343 33.0107 181.219 32.71 180.969 32.49C180.727 32.2627 180.401 32.149 179.99 32.149C179.609 32.149 179.294 32.2553 179.044 32.468C178.795 32.6807 178.652 32.974 178.615 33.348L177.746 33.183C177.827 32.633 178.073 32.193 178.483 31.863C178.901 31.533 179.404 31.368 179.99 31.368C180.672 31.368 181.222 31.555 181.64 31.929C182.058 32.303 182.267 32.809 182.267 33.447V37H181.343V36.054C181.182 36.3693 180.933 36.6223 180.595 36.813C180.265 36.9963 179.899 37.088 179.495 37.088C178.945 37.088 178.494 36.9377 178.142 36.637C177.798 36.329 177.625 35.933 177.625 35.449C177.625 34.921 177.842 34.5067 178.274 34.206C178.714 33.9053 179.378 33.711 180.265 33.623L181.343 33.502V33.392ZM178.56 35.438C178.56 35.6947 178.659 35.9073 178.857 36.076C179.063 36.2373 179.323 36.318 179.638 36.318C180.174 36.318 180.592 36.153 180.892 35.823C181.193 35.493 181.343 35.0493 181.343 34.492V34.228L180.265 34.349C179.708 34.4077 179.283 34.5323 178.989 34.723C178.703 34.9063 178.56 35.1447 178.56 35.438ZM185.537 37.088C184.921 37.088 184.415 36.9303 184.019 36.615C183.631 36.2997 183.367 35.9183 183.227 35.471L184.03 35.119C184.28 35.9037 184.782 36.296 185.537 36.296C185.867 36.296 186.135 36.2153 186.34 36.054C186.553 35.8853 186.659 35.6837 186.659 35.449C186.659 35.251 186.597 35.0897 186.472 34.965C186.355 34.8403 186.208 34.745 186.032 34.679C185.856 34.613 185.611 34.5397 185.295 34.459C184.899 34.3563 184.58 34.2573 184.338 34.162C184.104 34.0593 183.898 33.9053 183.722 33.7C183.554 33.4873 183.469 33.2013 183.469 32.842C183.469 32.402 183.645 32.0463 183.997 31.775C184.349 31.5037 184.822 31.368 185.416 31.368C185.908 31.368 186.344 31.4963 186.725 31.753C187.114 32.0023 187.363 32.3287 187.473 32.732L186.692 33.073C186.619 32.7943 186.458 32.5707 186.208 32.402C185.966 32.226 185.695 32.138 185.394 32.138C185.079 32.138 184.83 32.2003 184.646 32.325C184.47 32.4423 184.382 32.611 184.382 32.831C184.382 33.051 184.481 33.216 184.679 33.326C184.877 33.4287 185.182 33.5277 185.592 33.623C186.003 33.7257 186.34 33.832 186.604 33.942C186.868 34.0447 187.096 34.217 187.286 34.459C187.477 34.6937 187.572 35.0163 187.572 35.427C187.572 35.9183 187.385 36.318 187.011 36.626C186.637 36.934 186.146 37.088 185.537 37.088ZM188.277 34.228C188.277 33.7 188.384 33.2197 188.596 32.787C188.816 32.347 189.128 32.0023 189.531 31.753C189.942 31.4963 190.419 31.368 190.961 31.368C191.489 31.368 191.955 31.4853 192.358 31.72C192.762 31.9473 193.07 32.2627 193.282 32.666C193.502 33.062 193.612 33.4983 193.612 33.975C193.612 34.129 193.605 34.2647 193.59 34.382H189.212C189.242 34.954 189.418 35.4123 189.74 35.757C190.063 36.0943 190.485 36.263 191.005 36.263C191.423 36.263 191.775 36.1677 192.061 35.977C192.347 35.7863 192.531 35.5187 192.611 35.174L193.491 35.383C193.352 35.9183 193.062 36.3363 192.622 36.637C192.182 36.9377 191.643 37.088 191.005 37.088C190.463 37.088 189.982 36.9633 189.564 36.714C189.154 36.4573 188.835 36.1127 188.607 35.68C188.387 35.24 188.277 34.756 188.277 34.228ZM192.622 33.623C192.578 33.183 192.41 32.8273 192.116 32.556C191.823 32.2847 191.438 32.149 190.961 32.149C190.529 32.149 190.162 32.281 189.861 32.545C189.561 32.8017 189.363 33.161 189.267 33.623H192.622ZM199.726 37.088C199.184 37.088 198.696 36.967 198.263 36.725C197.838 36.4757 197.504 36.1347 197.262 35.702C197.028 35.2693 196.91 34.778 196.91 34.228C196.91 33.678 197.028 33.1867 197.262 32.754C197.504 32.3213 197.838 31.984 198.263 31.742C198.696 31.4927 199.184 31.368 199.726 31.368C200.269 31.368 200.753 31.4927 201.178 31.742C201.611 31.984 201.948 32.3213 202.19 32.754C202.432 33.1867 202.553 33.678 202.553 34.228C202.553 34.778 202.432 35.2693 202.19 35.702C201.948 36.1347 201.611 36.4757 201.178 36.725C200.753 36.967 200.269 37.088 199.726 37.088ZM197.867 34.228C197.867 34.822 198.04 35.3097 198.384 35.691C198.729 36.065 199.176 36.252 199.726 36.252C200.276 36.252 200.724 36.065 201.068 35.691C201.413 35.3097 201.585 34.822 201.585 34.228C201.585 33.634 201.413 33.15 201.068 32.776C200.724 32.3947 200.276 32.204 199.726 32.204C199.176 32.204 198.729 32.3947 198.384 32.776C198.04 33.15 197.867 33.634 197.867 34.228ZM203.63 31.456H204.565V32.501C204.763 32.1563 205.027 31.8813 205.357 31.676C205.687 31.4707 206.057 31.368 206.468 31.368C207.047 31.368 207.52 31.5477 207.887 31.907C208.261 32.2663 208.448 32.7393 208.448 33.326V37H207.513V33.502C207.513 33.1207 207.399 32.8127 207.172 32.578C206.944 32.336 206.64 32.215 206.259 32.215C205.738 32.215 205.324 32.4277 205.016 32.853C204.715 33.271 204.565 33.843 204.565 34.569V37H203.63V31.456ZM212.425 29.3H213.426V36.098H217.243V37H212.425V29.3ZM218.04 31.456H218.975V37H218.04V31.456ZM219.052 29.212V30.4H217.974V29.212H219.052ZM219.754 31.456H220.711L222.251 35.911L223.802 31.456H224.77L222.735 37H221.778L219.754 31.456ZM225.055 34.228C225.055 33.7 225.161 33.2197 225.374 32.787C225.594 32.347 225.905 32.0023 226.309 31.753C226.719 31.4963 227.196 31.368 227.739 31.368C228.267 31.368 228.732 31.4853 229.136 31.72C229.539 31.9473 229.847 32.2627 230.06 32.666C230.28 33.062 230.39 33.4983 230.39 33.975C230.39 34.129 230.382 34.2647 230.368 34.382H225.99C226.019 34.954 226.195 35.4123 226.518 35.757C226.84 36.0943 227.262 36.263 227.783 36.263C228.201 36.263 228.553 36.1677 228.839 35.977C229.125 35.7863 229.308 35.5187 229.389 35.174L230.269 35.383C230.129 35.9183 229.84 36.3363 229.4 36.637C228.96 36.9377 228.421 37.088 227.783 37.088C227.24 37.088 226.76 36.9633 226.342 36.714C225.931 36.4573 225.612 36.1127 225.385 35.68C225.165 35.24 225.055 34.756 225.055 34.228ZM229.4 33.623C229.356 33.183 229.187 32.8273 228.894 32.556C228.6 32.2847 228.215 32.149 227.739 32.149C227.306 32.149 226.939 32.281 226.639 32.545C226.338 32.8017 226.14 33.161 226.045 33.623H229.4ZM231.473 31.456H232.408V32.259C232.562 32.0023 232.804 31.7897 233.134 31.621C233.472 31.4523 233.838 31.368 234.234 31.368C234.792 31.368 235.268 31.4927 235.664 31.742C236.06 31.984 236.361 32.3213 236.566 32.754C236.779 33.1867 236.885 33.678 236.885 34.228C236.885 34.778 236.779 35.2693 236.566 35.702C236.354 36.1347 236.046 36.4757 235.642 36.725C235.246 36.967 234.77 37.088 234.212 37.088C233.86 37.088 233.519 37.011 233.189 36.857C232.859 36.6957 232.599 36.4867 232.408 36.23V39.002H231.473V31.456ZM232.331 34.228C232.331 34.8367 232.493 35.328 232.815 35.702C233.145 36.0687 233.582 36.252 234.124 36.252C234.674 36.252 235.114 36.0687 235.444 35.702C235.774 35.328 235.939 34.8367 235.939 34.228C235.939 33.6193 235.774 33.1317 235.444 32.765C235.114 32.391 234.674 32.204 234.124 32.204C233.582 32.204 233.145 32.391 232.815 32.765C232.493 33.1317 232.331 33.6193 232.331 34.228ZM241.327 33.392C241.327 33.0107 241.202 32.71 240.953 32.49C240.711 32.2627 240.385 32.149 239.974 32.149C239.593 32.149 239.277 32.2553 239.028 32.468C238.779 32.6807 238.636 32.974 238.599 33.348L237.73 33.183C237.811 32.633 238.056 32.193 238.467 31.863C238.885 31.533 239.387 31.368 239.974 31.368C240.656 31.368 241.206 31.555 241.624 31.929C242.042 32.303 242.251 32.809 242.251 33.447V37H241.327V36.054C241.166 36.3693 240.916 36.6223 240.579 36.813C240.249 36.9963 239.882 37.088 239.479 37.088C238.929 37.088 238.478 36.9377 238.126 36.637C237.781 36.329 237.609 35.933 237.609 35.449C237.609 34.921 237.825 34.5067 238.258 34.206C238.698 33.9053 239.362 33.711 240.249 33.623L241.327 33.502V33.392ZM238.544 35.438C238.544 35.6947 238.643 35.9073 238.841 36.076C239.046 36.2373 239.307 36.318 239.622 36.318C240.157 36.318 240.575 36.153 240.876 35.823C241.177 35.493 241.327 35.0493 241.327 34.492V34.228L240.249 34.349C239.692 34.4077 239.266 34.5323 238.973 34.723C238.687 34.9063 238.544 35.1447 238.544 35.438ZM246.467 32.303C246.357 32.2737 246.233 32.259 246.093 32.259C245.639 32.259 245.272 32.4827 244.993 32.93C244.722 33.37 244.586 34.0227 244.586 34.888V37H243.651V31.456H244.586V32.578C244.733 32.226 244.957 31.9363 245.257 31.709C245.558 31.4817 245.877 31.368 246.214 31.368C246.332 31.368 246.434 31.3753 246.522 31.39L246.467 32.303ZM250.615 36.956C250.373 37.044 250.083 37.088 249.746 37.088C249.247 37.088 248.848 36.945 248.547 36.659C248.254 36.3657 248.107 35.9257 248.107 35.339V32.281H247.073V31.456H248.107V29.773H249.042V31.456H250.527V32.281H249.042V35.372C249.042 35.658 249.115 35.8743 249.262 36.021C249.409 36.1677 249.607 36.241 249.856 36.241C250.127 36.241 250.358 36.1933 250.549 36.098L250.615 36.956ZM251.127 34.228C251.127 33.7 251.234 33.2197 251.446 32.787C251.666 32.347 251.978 32.0023 252.381 31.753C252.792 31.4963 253.269 31.368 253.811 31.368C254.339 31.368 254.805 31.4853 255.208 31.72C255.612 31.9473 255.92 32.2627 256.132 32.666C256.352 33.062 256.462 33.4983 256.462 33.975C256.462 34.129 256.455 34.2647 256.44 34.382H252.062C252.092 34.954 252.268 35.4123 252.59 35.757C252.913 36.0943 253.335 36.263 253.855 36.263C254.273 36.263 254.625 36.1677 254.911 35.977C255.197 35.7863 255.381 35.5187 255.461 35.174L256.341 35.383C256.202 35.9183 255.912 36.3363 255.472 36.637C255.032 36.9377 254.493 37.088 253.855 37.088C253.313 37.088 252.832 36.9633 252.414 36.714C252.004 36.4573 251.685 36.1127 251.457 35.68C251.237 35.24 251.127 34.756 251.127 34.228ZM255.472 33.623C255.428 33.183 255.26 32.8273 254.966 32.556C254.673 32.2847 254.288 32.149 253.811 32.149C253.379 32.149 253.012 32.281 252.711 32.545C252.411 32.8017 252.213 33.161 252.117 33.623H255.472ZM258.335 35.856V37H257.169V35.856H258.335Z" fill="#B4BECB"/>
<path d="M88.4477 37.088C87.7803 37.088 87.1607 36.9413 86.5887 36.648C86.024 36.3473 85.5693 35.9037 85.2247 35.317C84.88 34.723 84.7077 34.0007 84.7077 33.15C84.7077 32.3067 84.88 31.588 85.2247 30.994C85.5693 30.4 86.024 29.9563 86.5887 29.663C87.1607 29.3623 87.7803 29.212 88.4477 29.212C89.2837 29.212 89.9913 29.432 90.5707 29.872C91.1573 30.3047 91.5313 30.895 91.6927 31.643L90.7027 31.863C90.578 31.3057 90.3177 30.873 89.9217 30.565C89.533 30.257 89.038 30.103 88.4367 30.103C87.9087 30.103 87.4393 30.224 87.0287 30.466C86.6253 30.7007 86.31 31.049 86.0827 31.511C85.8553 31.9657 85.7417 32.512 85.7417 33.15C85.7417 33.788 85.8553 34.338 86.0827 34.8C86.31 35.2547 86.6253 35.5993 87.0287 35.834C87.4393 36.0687 87.9087 36.186 88.4367 36.186C89.0307 36.186 89.5183 36.0393 89.8997 35.746C90.2883 35.4527 90.5523 35.0383 90.6917 34.503L91.6927 34.712C91.4947 35.4453 91.1097 36.0247 90.5377 36.45C89.9657 36.8753 89.269 37.088 88.4477 37.088ZM92.7482 29.212H93.6832V37H92.7482V29.212ZM95.0774 31.456H96.0124V37H95.0774V31.456ZM96.0894 29.212V30.4H95.0114V29.212H96.0894ZM99.8377 37.088C99.295 37.088 98.8147 36.9707 98.3967 36.736C97.9787 36.494 97.656 36.1567 97.4287 35.724C97.2013 35.2913 97.0877 34.7927 97.0877 34.228C97.0877 33.6633 97.2013 33.1647 97.4287 32.732C97.656 32.2993 97.9787 31.9657 98.3967 31.731C98.8147 31.489 99.295 31.368 99.8377 31.368C100.483 31.368 101.022 31.533 101.455 31.863C101.895 32.1857 102.166 32.622 102.269 33.172L101.345 33.359C101.286 33.0217 101.121 32.7467 100.85 32.534C100.578 32.314 100.248 32.204 99.8597 32.204C99.317 32.204 98.8807 32.391 98.5507 32.765C98.228 33.1317 98.0667 33.6193 98.0667 34.228C98.0667 34.8367 98.228 35.328 98.5507 35.702C98.8807 36.0687 99.317 36.252 99.8597 36.252C100.256 36.252 100.586 36.1493 100.85 35.944C101.121 35.7387 101.293 35.4527 101.367 35.086L102.28 35.273C102.162 35.845 101.884 36.2923 101.444 36.615C101.011 36.9303 100.476 37.088 99.8377 37.088ZM103.324 37V29.212H104.27V33.711L106.833 31.456H108.076L105.7 33.645L108.263 37H107.097L105.007 34.272L104.27 34.943V37H103.324ZM111.581 29.212H112.516V32.545C112.714 32.1563 112.974 31.863 113.297 31.665C113.627 31.467 113.997 31.368 114.408 31.368C115.039 31.368 115.541 31.5477 115.915 31.907C116.296 32.2663 116.487 32.7467 116.487 33.348V37H115.552V33.524C115.552 33.1133 115.431 32.7943 115.189 32.567C114.954 32.3323 114.624 32.215 114.199 32.215C113.686 32.215 113.275 32.4313 112.967 32.864C112.666 33.2967 112.516 33.8833 112.516 34.624V37H111.581V29.212ZM117.566 34.228C117.566 33.7 117.672 33.2197 117.885 32.787C118.105 32.347 118.416 32.0023 118.82 31.753C119.23 31.4963 119.707 31.368 120.25 31.368C120.778 31.368 121.243 31.4853 121.647 31.72C122.05 31.9473 122.358 32.2627 122.571 32.666C122.791 33.062 122.901 33.4983 122.901 33.975C122.901 34.129 122.893 34.2647 122.879 34.382H118.501C118.53 34.954 118.706 35.4123 119.029 35.757C119.351 36.0943 119.773 36.263 120.294 36.263C120.712 36.263 121.064 36.1677 121.35 35.977C121.636 35.7863 121.819 35.5187 121.9 35.174L122.78 35.383C122.64 35.9183 122.351 36.3363 121.911 36.637C121.471 36.9377 120.932 37.088 120.294 37.088C119.751 37.088 119.271 36.9633 118.853 36.714C118.442 36.4573 118.123 36.1127 117.896 35.68C117.676 35.24 117.566 34.756 117.566 34.228ZM121.911 33.623C121.867 33.183 121.698 32.8273 121.405 32.556C121.111 32.2847 120.726 32.149 120.25 32.149C119.817 32.149 119.45 32.281 119.15 32.545C118.849 32.8017 118.651 33.161 118.556 33.623H121.911ZM127.229 32.369C127.024 32.281 126.786 32.237 126.514 32.237C126.045 32.237 125.66 32.4643 125.359 32.919C125.066 33.3663 124.919 34.0227 124.919 34.888V37H123.984V31.456H124.919V32.578C125.081 32.226 125.323 31.9363 125.645 31.709C125.968 31.4817 126.302 31.368 126.646 31.368C126.888 31.368 127.101 31.401 127.284 31.467L127.229 32.369ZM127.499 34.228C127.499 33.7 127.605 33.2197 127.818 32.787C128.038 32.347 128.349 32.0023 128.753 31.753C129.163 31.4963 129.64 31.368 130.183 31.368C130.711 31.368 131.176 31.4853 131.58 31.72C131.983 31.9473 132.291 32.2627 132.504 32.666C132.724 33.062 132.834 33.4983 132.834 33.975C132.834 34.129 132.826 34.2647 132.812 34.382H128.434C128.463 34.954 128.639 35.4123 128.962 35.757C129.284 36.0943 129.706 36.263 130.227 36.263C130.645 36.263 130.997 36.1677 131.283 35.977C131.569 35.7863 131.752 35.5187 131.833 35.174L132.713 35.383C132.573 35.9183 132.284 36.3363 131.844 36.637C131.404 36.9377 130.865 37.088 130.227 37.088C129.684 37.088 129.204 36.9633 128.786 36.714C128.375 36.4573 128.056 36.1127 127.829 35.68C127.609 35.24 127.499 34.756 127.499 34.228ZM131.844 33.623C131.8 33.183 131.631 32.8273 131.338 32.556C131.044 32.2847 130.659 32.149 130.183 32.149C129.75 32.149 129.383 32.281 129.083 32.545C128.782 32.8017 128.584 33.161 128.489 33.623H131.844Z" fill="#FFC41B"/>
</svg>
