<svg width="19" height="18" viewBox="0 0 19 18" fill="none" xmlns="http://www.w3.org/2000/svg">
<path d="M6.58686 8.99996C6.58686 7.39154 7.89118 6.08731 9.50057 6.08731C11.11 6.08731 12.415 7.39154 12.415 8.99996C12.415 10.6084 11.11 11.9126 9.50057 11.9126C7.89118 11.9126 6.58686 10.6084 6.58686 8.99996ZM5.01139 8.99996C5.01139 11.4779 7.02119 13.4864 9.50057 13.4864C11.9799 13.4864 13.9897 11.4779 13.9897 8.99996C13.9897 6.52207 11.9799 4.51348 9.50057 4.51348C7.02119 4.51348 5.01139 6.52207 5.01139 8.99996ZM13.1184 4.33559C13.1183 4.54296 13.1797 4.74569 13.2949 4.91816C13.4101 5.09063 13.5739 5.22508 13.7656 5.30451C13.9573 5.38394 14.1682 5.40479 14.3717 5.36442C14.5752 5.32404 14.7622 5.22426 14.909 5.07769C15.0558 4.93111 15.1558 4.74433 15.1963 4.54097C15.2369 4.3376 15.2162 4.12678 15.1369 3.93516C15.0575 3.74355 14.9231 3.57975 14.7507 3.46447C14.5782 3.34919 14.3754 3.28762 14.1679 3.28754H14.1675C13.8893 3.28767 13.6226 3.39811 13.4259 3.59462C13.2292 3.79113 13.1186 4.05763 13.1184 4.33559ZM5.96859 16.1119C5.11623 16.0731 4.65295 15.9312 4.34507 15.8113C3.9369 15.6525 3.64567 15.4634 3.33948 15.1578C3.03328 14.8522 2.84374 14.5614 2.68554 14.1535C2.56552 13.8459 2.42354 13.3828 2.38479 12.5309C2.34241 11.61 2.33395 11.3333 2.33395 9.00003C2.33395 6.66676 2.34311 6.39087 2.38479 5.46913C2.42361 4.61728 2.56664 4.15504 2.68554 3.84658C2.84444 3.43866 3.0337 3.1476 3.33948 2.84159C3.64525 2.53557 3.9362 2.34615 4.34507 2.18804C4.65281 2.06809 5.11623 1.9262 5.96859 1.88748C6.89012 1.84512 7.16695 1.83666 9.50057 1.83666C11.8342 1.83666 12.1113 1.84582 13.0336 1.88748C13.886 1.92627 14.3485 2.06921 14.6571 2.18804C15.0653 2.34615 15.3565 2.53599 15.6627 2.84159C15.9689 3.14718 16.1577 3.43866 16.3166 3.84658C16.4367 4.15413 16.5786 4.61728 16.6174 5.46913C16.6598 6.39087 16.6682 6.66676 16.6682 9.00003C16.6682 11.3333 16.6598 11.6092 16.6174 12.5309C16.5786 13.3828 16.4359 13.8458 16.3166 14.1535C16.1577 14.5614 15.9685 14.8525 15.6627 15.1578C15.3569 15.4631 15.0653 15.6525 14.6571 15.8113C14.3494 15.9313 13.886 16.0732 13.0336 16.1119C12.1121 16.1542 11.8352 16.1627 9.50057 16.1627C7.1659 16.1627 6.88984 16.1542 5.96859 16.1119ZM5.8962 0.315608C4.96551 0.357966 4.32955 0.505452 3.77415 0.721437C3.19897 0.944482 2.71204 1.24372 2.22547 1.72923C1.7389 2.21474 1.44025 2.70214 1.21707 3.27698C1.00096 3.83239 0.853385 4.46763 0.811001 5.39776C0.767918 6.32936 0.758057 6.6272 0.758057 8.99996C0.758057 11.3727 0.767918 11.6706 0.811001 12.6022C0.853385 13.5324 1.00096 14.1675 1.21707 14.7229C1.44025 15.2974 1.73897 15.7854 2.22547 16.2707C2.71197 16.756 3.19897 17.0548 3.77415 17.2785C4.3306 17.4945 4.96551 17.642 5.8962 17.6843C6.82886 17.7267 7.12638 17.7372 9.50057 17.7372C11.8748 17.7372 12.1728 17.7274 13.1049 17.6843C14.0357 17.642 14.6712 17.4945 15.227 17.2785C15.8018 17.0548 16.2891 16.7562 16.7757 16.2707C17.2622 15.7852 17.5603 15.2974 17.7841 14.7229C18.0002 14.1675 18.1484 13.5323 18.1901 12.6022C18.2325 11.6699 18.2424 11.3727 18.2424 8.99996C18.2424 6.6272 18.2325 6.32936 18.1901 5.39776C18.1477 4.46756 18.0002 3.83204 17.7841 3.27698C17.5603 2.70249 17.2615 2.21551 16.7757 1.72923C16.2899 1.24295 15.8018 0.944482 15.2277 0.721437C14.6712 0.505452 14.0356 0.357267 13.1056 0.315608C12.1735 0.27325 11.8755 0.262695 9.50127 0.262695C7.12708 0.262695 6.82886 0.272551 5.8962 0.315608Z" fill="white"/>
<path d="M6.58686 8.99996C6.58686 7.39154 7.89118 6.08731 9.50057 6.08731C11.11 6.08731 12.415 7.39154 12.415 8.99996C12.415 10.6084 11.11 11.9126 9.50057 11.9126C7.89118 11.9126 6.58686 10.6084 6.58686 8.99996ZM5.01139 8.99996C5.01139 11.4779 7.02119 13.4864 9.50057 13.4864C11.9799 13.4864 13.9897 11.4779 13.9897 8.99996C13.9897 6.52207 11.9799 4.51348 9.50057 4.51348C7.02119 4.51348 5.01139 6.52207 5.01139 8.99996ZM13.1184 4.33559C13.1183 4.54296 13.1797 4.74569 13.2949 4.91816C13.4101 5.09063 13.5739 5.22508 13.7656 5.30451C13.9573 5.38394 14.1682 5.40479 14.3717 5.36442C14.5752 5.32404 14.7622 5.22426 14.909 5.07769C15.0558 4.93111 15.1558 4.74433 15.1963 4.54097C15.2369 4.3376 15.2162 4.12678 15.1369 3.93516C15.0575 3.74355 14.9231 3.57975 14.7507 3.46447C14.5782 3.34919 14.3754 3.28762 14.1679 3.28754H14.1675C13.8893 3.28767 13.6226 3.39811 13.4259 3.59462C13.2292 3.79113 13.1186 4.05763 13.1184 4.33559ZM5.96859 16.1119C5.11623 16.0731 4.65295 15.9312 4.34507 15.8113C3.9369 15.6525 3.64567 15.4634 3.33948 15.1578C3.03328 14.8522 2.84374 14.5614 2.68554 14.1535C2.56552 13.8459 2.42354 13.3828 2.38479 12.5309C2.34241 11.61 2.33395 11.3333 2.33395 9.00003C2.33395 6.66676 2.34311 6.39087 2.38479 5.46913C2.42361 4.61728 2.56664 4.15504 2.68554 3.84658C2.84444 3.43866 3.0337 3.1476 3.33948 2.84159C3.64525 2.53557 3.9362 2.34615 4.34507 2.18804C4.65281 2.06809 5.11623 1.9262 5.96859 1.88748C6.89012 1.84512 7.16695 1.83666 9.50057 1.83666C11.8342 1.83666 12.1113 1.84582 13.0336 1.88748C13.886 1.92627 14.3485 2.06921 14.6571 2.18804C15.0653 2.34615 15.3565 2.53599 15.6627 2.84159C15.9689 3.14718 16.1577 3.43866 16.3166 3.84658C16.4367 4.15413 16.5786 4.61728 16.6174 5.46913C16.6598 6.39087 16.6682 6.66676 16.6682 9.00003C16.6682 11.3333 16.6598 11.6092 16.6174 12.5309C16.5786 13.3828 16.4359 13.8458 16.3166 14.1535C16.1577 14.5614 15.9685 14.8525 15.6627 15.1578C15.3569 15.4631 15.0653 15.6525 14.6571 15.8113C14.3494 15.9313 13.886 16.0732 13.0336 16.1119C12.1121 16.1542 11.8352 16.1627 9.50057 16.1627C7.1659 16.1627 6.88984 16.1542 5.96859 16.1119ZM5.8962 0.315608C4.96551 0.357966 4.32955 0.505452 3.77415 0.721437C3.19897 0.944482 2.71204 1.24372 2.22547 1.72923C1.7389 2.21474 1.44025 2.70214 1.21707 3.27698C1.00096 3.83239 0.853385 4.46763 0.811001 5.39776C0.767918 6.32936 0.758057 6.6272 0.758057 8.99996C0.758057 11.3727 0.767918 11.6706 0.811001 12.6022C0.853385 13.5324 1.00096 14.1675 1.21707 14.7229C1.44025 15.2974 1.73897 15.7854 2.22547 16.2707C2.71197 16.756 3.19897 17.0548 3.77415 17.2785C4.3306 17.4945 4.96551 17.642 5.8962 17.6843C6.82886 17.7267 7.12638 17.7372 9.50057 17.7372C11.8748 17.7372 12.1728 17.7274 13.1049 17.6843C14.0357 17.642 14.6712 17.4945 15.227 17.2785C15.8018 17.0548 16.2891 16.7562 16.7757 16.2707C17.2622 15.7852 17.5603 15.2974 17.7841 14.7229C18.0002 14.1675 18.1484 13.5323 18.1901 12.6022C18.2325 11.6699 18.2424 11.3727 18.2424 8.99996C18.2424 6.6272 18.2325 6.32936 18.1901 5.39776C18.1477 4.46756 18.0002 3.83204 17.7841 3.27698C17.5603 2.70249 17.2615 2.21551 16.7757 1.72923C16.2899 1.24295 15.8018 0.944482 15.2277 0.721437C14.6712 0.505452 14.0356 0.357267 13.1056 0.315608C12.1735 0.27325 11.8755 0.262695 9.50127 0.262695C7.12708 0.262695 6.82886 0.272551 5.8962 0.315608Z" fill="white"/>
</svg>
