<svg width="19" height="18" viewBox="0 0 19 18" fill="none" xmlns="http://www.w3.org/2000/svg">
<path d="M0.839355 1.5918C0.839355 0.900454 1.41814 0.339294 2.13161 0.339294H17.0321C17.7459 0.339294 18.3244 0.900454 18.3244 1.5918V16.572C18.3244 17.2636 17.7459 17.8243 17.0321 17.8243H2.13161C1.41821 17.8243 0.839355 17.2636 0.839355 16.5722V1.59159V1.5918Z" fill="white"/>
<path d="M6.15277 14.972V7.1002H3.5363V14.972H6.15305H6.15277ZM4.84508 6.02562C5.75731 6.02562 6.32523 5.42116 6.32523 4.66575C6.30816 3.89313 5.75731 3.30554 4.86243 3.30554C3.96694 3.30554 3.38208 3.89313 3.38208 4.66569C3.38208 5.42109 3.9498 6.02556 4.82794 6.02556H4.84488L4.84508 6.02562ZM7.60102 14.972H10.2173V10.5765C10.2173 10.3416 10.2344 10.106 10.3035 9.93817C10.4925 9.46792 10.923 8.98114 11.646 8.98114C12.5925 8.98114 12.9714 9.70294 12.9714 10.7613V14.972H15.5876V10.4586C15.5876 8.04077 14.297 6.91565 12.5756 6.91565C11.1643 6.91565 10.5444 7.70446 10.2001 8.24171H10.2175V7.10047H7.60116C7.63531 7.83894 7.60096 14.9723 7.60096 14.9723L7.60102 14.972Z" fill="#060809"/>
</svg>
